{
.appVersion = "909";
DisplayStrings = (
"change abechan hefende"
);
customParameters = (
{
name = vendorID;
value = NeWT;
}
);
date = "2016-07-15 07:33:56 +0000";
familyName = Pacifico_new;
features = (
{
code = "script latn;\012lookup locl0 {\012sub Scedilla by Scommaaccent;\012sub scedilla by scommaaccent;\012sub Tcedilla by Tcedilla;\012} locl0;\012lookup locl1 {\012sub Scedilla by Scommaaccent;\012sub scedilla by scommaaccent;\012sub Tcedilla by Tcedilla;\012} locl1;\012lookup locl2 {\012# Problem with lookup\012# Problem with lookup\012} locl2;\012language CAT ;\012# Problem with lookup\012# Problem with lookup\012language MOL ;\012sub Scedilla by Scommaaccent;\012sub scedilla by scommaaccent;\012sub Tcedilla by Tcedilla;\012language ROM ;\012sub Scedilla by Scommaaccent;\012sub scedilla by scommaaccent;\012sub Tcedilla by Tcedilla;\012";
name = locl;
}
);
fontMaster = (
{
alignmentZones = (
"{650, 15}",
"{320, 15}",
"{0, -15}",
"{-260, -15}"
);
ascender = 650;
capHeight = 650;
descender = -260;
guideLines = (
{
position = "{254, 141}";
}
);
id = "90775AEC-CE2A-409D-8CDA-B893D340B5FD";
weight = Bold;
weightValue = 700;
widthValue = 5;
xHeight = 320;
}
);
glyphs = (
{
glyphname = A;
lastChange = "2016-07-15 07:31:59 +0000";
layers = (
{
layerId = "90775AEC-CE2A-409D-8CDA-B893D340B5FD";
paths = (
{
closed = 1;
nodes = (
"486 51 OFFCURVE",
"485 42 OFFCURVE",
"485 33 CURVE SMOOTH",
"485 -24 OFFCURVE",
"520 -67 OFFCURVE",
"575 -67 CURVE SMOOTH",
"630 -67 OFFCURVE",
"682 -43 OFFCURVE",
"710 -11 CURVE SMOOTH",
"716 -4 OFFCURVE",
"719 5 OFFCURVE",
"719 16 CURVE SMOOTH",
"719 38 OFFCURVE",
"702 55 OFFCURVE",
"684 55 CURVE SMOOTH",
"675 55 OFFCURVE",
"667 52 OFFCURVE",
"660 46 CURVE SMOOTH",
"639 28 OFFCURVE",
"621 19 OFFCURVE",
"606 19 CURVE SMOOTH",
"583 19 OFFCURVE",
"572 35 OFFCURVE",
"572 68 CURVE SMOOTH",
"572 88 OFFCURVE",
"577 120 OFFCURVE",
"587 164 CURVE SMOOTH",
"660 477 LINE",
"661 485 OFFCURVE",
"662 491 OFFCURVE",
"662 494 CURVE SMOOTH",
"662 518 OFFCURVE",
"646 530 OFFCURVE",
"615 530 CURVE SMOOTH",
"584 530 OFFCURVE",
"566 520 OFFCURVE",
"562 501 CURVE",
"485 207 LINE SMOOTH",
"454 86 OFFCURVE",
"392 25 OFFCURVE",
"298 25 CURVE SMOOTH",
"207 25 OFFCURVE",
"160 101 OFFCURVE",
"160 198 CURVE SMOOTH",
"160 295 OFFCURVE",
"196 394 OFFCURVE",
"257 478 CURVE SMOOTH",
"317 561 OFFCURVE",
"418 620 OFFCURVE",
"530 620 CURVE SMOOTH",
"532 620 LINE SMOOTH",
"599 620 OFFCURVE",
"662 599 OFFCURVE",
"721 557 CURVE",
"728 551 OFFCURVE",
"736 548 OFFCURVE",
"747 548 CURVE SMOOTH",
"768 548 OFFCURVE",
"786 566 OFFCURVE",
"786 593 CURVE SMOOTH",
"786 606 OFFCURVE",
"781 617 OFFCURVE",
"771 625 CURVE",
"706 684 OFFCURVE",
"627 713 OFFCURVE",
"535 713 CURVE SMOOTH",
"422 713 OFFCURVE",
"309 663 OFFCURVE",
"218 578 CURVE SMOOTH",
"127 493 OFFCURVE",
"63 354 OFFCURVE",
"55 197 CURVE SMOOTH",
"54 172 LINE",
"54 8 OFFCURVE",
"142 -72 OFFCURVE",
"271 -72 CURVE",
"292 -71 LINE SMOOTH",
"380 -64 OFFCURVE",
"459 1 OFFCURVE",
"487 60 CURVE"
);
}
);
width = 706;
}
);
note = A;
unicode = 0041;
},
{
glyphname = B;
lastChange = "2016-07-15 07:31:59 +0000";
layers = (
{
layerId = "90775AEC-CE2A-409D-8CDA-B893D340B5FD";
paths = (
{
closed = 1;
nodes = (
"415 -90 OFFCURVE",
"598 40 OFFCURVE",
"598 176 CURVE SMOOTH",
"598 247 OFFCURVE",
"520 303 OFFCURVE",
"453 307 CURVE",
"564 307 OFFCURVE",
"657 393 OFFCURVE",
"657 494 CURVE SMOOTH",
"657 594 OFFCURVE",
"553 681 OFFCURVE",
"370 681 CURVE SMOOTH",
"237 681 OFFCURVE",
"124 640 OFFCURVE",
"31 559 CURVE",
"24 552 OFFCURVE",
"20 543 OFFCURVE",
"20 532 CURVE SMOOTH",
"20 508 OFFCURVE",
"41 485 OFFCURVE",
"69 485 CURVE SMOOTH",
"83 485 OFFCURVE",
"97 491 OFFCURVE",
"112 503 CURVE SMOOTH",
"184 564 OFFCURVE",
"255 593 OFFCURVE",
"371 593 CURVE SMOOTH",
"487 593 OFFCURVE",
"538 544 OFFCURVE",
"538 476 CURVE SMOOTH",
"538 468 LINE",
"527 384 OFFCURVE",
"477 336 OFFCURVE",
"372 336 CURVE SMOOTH",
"367 336 LINE",
"334 338 LINE",
"323 337 OFFCURVE",
"315 337 OFFCURVE",
"308 336 CURVE SMOOTH",
"295 334 OFFCURVE",
"282 324 OFFCURVE",
"282 307 CURVE SMOOTH",
"282 296 OFFCURVE",
"293 287 OFFCURVE",
"314 282 CURVE",
"335 276 OFFCURVE",
"358 271 OFFCURVE",
"383 268 CURVE SMOOTH",
"434 261 OFFCURVE",
"484 230 OFFCURVE",
"484 171 CURVE SMOOTH",
"484 82 OFFCURVE",
"360 -13 OFFCURVE",
"213 -13 CURVE SMOOTH",
"181 -13 OFFCURVE",
"180 -10 OFFCURVE",
"180 15 CURVE SMOOTH",
"180 182 OFFCURVE",
"220 403 OFFCURVE",
"283 480 CURVE",
"271 501 OFFCURVE",
"254 512 OFFCURVE",
"233 512 CURVE SMOOTH",
"182 512 OFFCURVE",
"141 467 OFFCURVE",
"110 378 CURVE SMOOTH",
"79 289 OFFCURVE",
"63 155 OFFCURVE",
"63 -23 CURVE SMOOTH",
"63 -44 OFFCURVE",
"77 -60 OFFCURVE",
"106 -72 CURVE SMOOTH",
"135 -84 OFFCURVE",
"174 -90 OFFCURVE",
"223 -90 CURVE SMOOTH"
);
}
);
width = 609;
}
);
note = B;
unicode = 0042;
},
{
glyphname = C;
lastChange = "2016-07-15 07:31:59 +0000";
layers = (
{
layerId = "90775AEC-CE2A-409D-8CDA-B893D340B5FD";
paths = (
{
closed = 1;
nodes = (
"55 26 OFFCURVE",
"145 -95 OFFCURVE",
"320 -95 CURVE SMOOTH",
"460 -95 OFFCURVE",
"585 1 OFFCURVE",
"629 121 CURVE SMOOTH",
"630 124 OFFCURVE",
"631 129 OFFCURVE",
"631 136 CURVE SMOOTH",
"631 151 OFFCURVE",
"613 165 OFFCURVE",
"594 165 CURVE SMOOTH",
"584 165 OFFCURVE",
"576 161 OFFCURVE",
"570 153 CURVE",
"507 58 OFFCURVE",
"442 -2 OFFCURVE",
"335 -2 CURVE SMOOTH",
"228 -2 OFFCURVE",
"171 84 OFFCURVE",
"171 207 CURVE SMOOTH",
"171 268 OFFCURVE",
"183 328 OFFCURVE",
"207 385 CURVE SMOOTH",
"254 499 OFFCURVE",
"348 580 OFFCURVE",
"453 580 CURVE SMOOTH",
"509 580 OFFCURVE",
"539 551 OFFCURVE",
"539 500 CURVE SMOOTH",
"539 449 OFFCURVE",
"494 396 OFFCURVE",
"417 388 CURVE SMOOTH",
"378 383 OFFCURVE",
"359 368 OFFCURVE",
"359 341 CURVE SMOOTH",
"359 316 OFFCURVE",
"376 304 OFFCURVE",
"410 304 CURVE SMOOTH",
"419 304 OFFCURVE",
"425 304 OFFCURVE",
"430 305 CURVE",
"553 320 OFFCURVE",
"632 420 OFFCURVE",
"632 516 CURVE SMOOTH",
"632 611 OFFCURVE",
"570 672 OFFCURVE",
"459 672 CURVE SMOOTH",
"386 672 OFFCURVE",
"319 649 OFFCURVE",
"256 603 CURVE SMOOTH",
"131 510 OFFCURVE",
"55 351 OFFCURVE",
"55 190 CURVE SMOOTH"
);
}
);
width = 603;
}
);
note = C;
unicode = 0043;
},
{
glyphname = D;
lastChange = "2016-07-15 07:31:59 +0000";
layers = (
{
layerId = "90775AEC-CE2A-409D-8CDA-B893D340B5FD";
paths = (
{
closed = 1;
nodes = (
"446 588 OFFCURVE",
"534 501 OFFCURVE",
"534 384 CURVE SMOOTH",
"534 196 OFFCURVE",
"377 25 OFFCURVE",
"210 25 CURVE SMOOTH",
"193 25 OFFCURVE",
"188 39 OFFCURVE",
"188 70 CURVE SMOOTH",
"188 86 LINE",
"187 211 OFFCURVE",
"250 427 OFFCURVE",
"309 502 CURVE",
"293 529 OFFCURVE",
"273 543 OFFCURVE",
"249 543 CURVE",
"231 542 OFFCURVE",
"217 534 OFFCURVE",
"207 519 CURVE SMOOTH",
"136 415 OFFCURVE",
"80 196 OFFCURVE",
"80 28 CURVE SMOOTH",
"80 25 OFFCURVE",
"80 23 OFFCURVE",
"80 21 CURVE",
"79 4 OFFCURVE",
"87 -10 OFFCURVE",
"104 -20 CURVE SMOOTH",
"140 -41 OFFCURVE",
"178 -51 OFFCURVE",
"217 -51 CURVE SMOOTH",
"223 -51 LINE",
"304 -47 OFFCURVE",
"377 -24 OFFCURVE",
"443 18 CURVE SMOOTH",
"480 41 OFFCURVE",
"512 68 OFFCURVE",
"540 101 CURVE SMOOTH",
"595 166 OFFCURVE",
"633 270 OFFCURVE",
"633 393 CURVE SMOOTH",
"633 574 OFFCURVE",
"515 684 OFFCURVE",
"314 684 CURVE SMOOTH",
"198 684 OFFCURVE",
"114 652 OFFCURVE",
"61 588 CURVE SMOOTH",
"41 563 OFFCURVE",
"31 535 OFFCURVE",
"32 502 CURVE",
"31 481 OFFCURVE",
"41 457 OFFCURVE",
"64 457 CURVE SMOOTH",
"80 457 OFFCURVE",
"103 482 OFFCURVE",
"132 531 CURVE",
"169 569 OFFCURVE",
"223 588 OFFCURVE",
"293 588 CURVE SMOOTH"
);
}
);
width = 636;
}
);
note = D;
unicode = 0044;
},
{
glyphname = E;
lastChange = "2016-07-15 07:31:59 +0000";
layers = (
{
layerId = "90775AEC-CE2A-409D-8CDA-B893D340B5FD";
paths = (
{
closed = 1;
nodes = (
"122 404 OFFCURVE",
"190 336 OFFCURVE",
"310 331 CURVE",
"149 331 OFFCURVE",
"45 215 OFFCURVE",
"45 95 CURVE SMOOTH",
"45 -25 OFFCURVE",
"132 -110 OFFCURVE",
"288 -110 CURVE SMOOTH",
"444 -110 OFFCURVE",
"598 -23 OFFCURVE",
"681 69 CURVE",
"689 77 OFFCURVE",
"693 87 OFFCURVE",
"693 100 CURVE SMOOTH",
"693 125 OFFCURVE",
"676 153 OFFCURVE",
"654 153 CURVE SMOOTH",
"643 153 OFFCURVE",
"631 147 OFFCURVE",
"620 136 CURVE SMOOTH",
"536 48 OFFCURVE",
"406 -12 OFFCURVE",
"314 -12 CURVE SMOOTH",
"221 -12 OFFCURVE",
"168 29 OFFCURVE",
"168 114 CURVE SMOOTH",
"168 198 OFFCURVE",
"242 266 OFFCURVE",
"390 274 CURVE SMOOTH",
"425 275 OFFCURVE",
"443 292 OFFCURVE",
"443 325 CURVE SMOOTH",
"443 346 OFFCURVE",
"428 368 OFFCURVE",
"404 372 CURVE SMOOTH",
"285 392 OFFCURVE",
"250 417 OFFCURVE",
"250 501 CURVE SMOOTH",
"250 585 OFFCURVE",
"341 641 OFFCURVE",
"442 641 CURVE SMOOTH",
"493 641 OFFCURVE",
"533 629 OFFCURVE",
"562 604 CURVE",
"525 593 OFFCURVE",
"506 571 OFFCURVE",
"506 539 CURVE SMOOTH",
"506 499 OFFCURVE",
"533 474 OFFCURVE",
"574 474 CURVE SMOOTH",
"615 474 OFFCURVE",
"651 503 OFFCURVE",
"651 556 CURVE SMOOTH",
"651 607 OFFCURVE",
"628 647 OFFCURVE",
"582 676 CURVE SMOOTH",
"489 732 OFFCURVE",
"362 725 OFFCURVE",
"276 694 CURVE SMOOTH",
"190 662 OFFCURVE",
"122 588 OFFCURVE",
"122 491 CURVE SMOOTH"
);
}
);
width = 576;
}
);
note = E;
unicode = 0045;
},
{
glyphname = F;
lastChange = "2016-07-15 07:31:59 +0000";
layers = (
{
layerId = "90775AEC-CE2A-409D-8CDA-B893D340B5FD";
paths = (
{
closed = 1;
nodes = (
"108 46 OFFCURVE",
"78 57 OFFCURVE",
"49 80 CURVE",
"44 83 OFFCURVE",
"40 85 OFFCURVE",
"36 85 CURVE SMOOTH",
"12 85 OFFCURVE",
"-19 46 OFFCURVE",
"-19 23 CURVE SMOOTH",
"-19 12 OFFCURVE",
"-17 4 OFFCURVE",
"-13 -1 CURVE",
"19 -38 OFFCURVE",
"79 -66 OFFCURVE",
"132 -66 CURVE SMOOTH",
"158 -66 OFFCURVE",
"181 -63 OFFCURVE",
"202 -57 CURVE SMOOTH",
"243 -45 OFFCURVE",
"271 -31 OFFCURVE",
"299 4 CURVE SMOOTH",
"327 39 OFFCURVE",
"340 58 OFFCURVE",
"360 111 CURVE SMOOTH",
"373 144 OFFCURVE",
"389 189 OFFCURVE",
"407 248 CURVE",
"448 248 OFFCURVE",
"494 250 OFFCURVE",
"543 255 CURVE SMOOTH",
"559 257 OFFCURVE",
"567 271 OFFCURVE",
"567 298 CURVE SMOOTH",
"567 324 OFFCURVE",
"558 337 OFFCURVE",
"539 337 CURVE SMOOTH",
"535 337 OFFCURVE",
"516 337 OFFCURVE",
"483 337 CURVE SMOOTH",
"450 336 OFFCURVE",
"430 336 OFFCURVE",
"425 336 CURVE",
"452 423 OFFCURVE",
"477 549 OFFCURVE",
"480 612 CURVE",
"507 613 OFFCURVE",
"528 614 OFFCURVE",
"543 614 CURVE SMOOTH",
"640 614 OFFCURVE",
"722 608 OFFCURVE",
"789 597 CURVE",
"791 597 OFFCURVE",
"792 597 OFFCURVE",
"792 597 CURVE",
"808 597 OFFCURVE",
"817 624 OFFCURVE",
"817 649 CURVE SMOOTH",
"817 670 OFFCURVE",
"800 686 OFFCURVE",
"765 696 CURVE SMOOTH",
"730 705 OFFCURVE",
"675 710 OFFCURVE",
"599 710 CURVE SMOOTH",
"583 710 OFFCURVE",
"546 709 OFFCURVE",
"487 707 CURVE SMOOTH",
"370 703 OFFCURVE",
"245 668 OFFCURVE",
"176 622 CURVE SMOOTH",
"107 576 OFFCURVE",
"29 493 OFFCURVE",
"29 376 CURVE SMOOTH",
"29 331 OFFCURVE",
"39 299 OFFCURVE",
"59 280 CURVE",
"70 261 OFFCURVE",
"94 252 OFFCURVE",
"130 252 CURVE SMOOTH",
"165 252 OFFCURVE",
"183 256 OFFCURVE",
"183 265 CURVE SMOOTH",
"183 267 OFFCURVE",
"182 269 OFFCURVE",
"181 270 CURVE",
"155 294 OFFCURVE",
"142 331 OFFCURVE",
"142 381 CURVE SMOOTH",
"142 480 OFFCURVE",
"223 581 OFFCURVE",
"396 604 CURVE",
"394 599 OFFCURVE",
"389 579 OFFCURVE",
"380 544 CURVE SMOOTH",
"356 452 OFFCURVE",
"337 382 OFFCURVE",
"324 333 CURVE",
"220 330 OFFCURVE",
"234 248 OFFCURVE",
"286 248 CURVE SMOOTH",
"304 248 LINE",
"281 172 OFFCURVE",
"255 119 OFFCURVE",
"228 90 CURVE SMOOTH",
"201 61 OFFCURVE",
"171 46 OFFCURVE",
"140 46 CURVE SMOOTH"
);
}
);
width = 565;
}
);
note = F;
unicode = 0046;
},
{
glyphname = G;
lastChange = "2016-07-15 07:31:59 +0000";
layers = (
{
layerId = "90775AEC-CE2A-409D-8CDA-B893D340B5FD";
paths = (
{
closed = 1;
nodes = (
"45 -14 OFFCURVE",
"208 -56 OFFCURVE",
"325 -56 CURVE SMOOTH",
"441 -56 OFFCURVE",
"554 -17 OFFCURVE",
"575 20 CURVE",
"548 -66 OFFCURVE",
"521 -126 OFFCURVE",
"495 -160 CURVE SMOOTH",
"468 -195 OFFCURVE",
"435 -212 OFFCURVE",
"396 -212 CURVE SMOOTH",
"373 -212 OFFCURVE",
"345 -207 OFFCURVE",
"311 -196 CURVE",
"306 -195 OFFCURVE",
"302 -194 OFFCURVE",
"299 -194 CURVE SMOOTH",
"270 -194 OFFCURVE",
"241 -226 OFFCURVE",
"241 -258 CURVE SMOOTH",
"241 -306 OFFCURVE",
"328 -334 OFFCURVE",
"396 -334 CURVE SMOOTH",
"545 -334 OFFCURVE",
"639 -190 OFFCURVE",
"691 117 CURVE",
"694 130 OFFCURVE",
"695 142 OFFCURVE",
"695 155 CURVE SMOOTH",
"695 210 OFFCURVE",
"659 227 OFFCURVE",
"556 227 CURVE SMOOTH",
"517 227 OFFCURVE",
"487 213 OFFCURVE",
"487 179 CURVE SMOOTH",
"487 145 OFFCURVE",
"513 134 OFFCURVE",
"545 134 CURVE SMOOTH",
"561 134 OFFCURVE",
"571 134 OFFCURVE",
"576 134 CURVE",
"584 133 OFFCURVE",
"591 128 OFFCURVE",
"591 119 CURVE SMOOTH",
"591 114 OFFCURVE",
"591 111 OFFCURVE",
"590 108 CURVE",
"584 77 LINE",
"494 46 OFFCURVE",
"418 30 OFFCURVE",
"357 30 CURVE SMOOTH",
"234 30 OFFCURVE",
"164 89 OFFCURVE",
"164 209 CURVE SMOOTH",
"164 268 OFFCURVE",
"175 323 OFFCURVE",
"198 372 CURVE SMOOTH",
"243 471 OFFCURVE",
"358 580 OFFCURVE",
"495 580 CURVE SMOOTH",
"548 580 OFFCURVE",
"583 558 OFFCURVE",
"583 513 CURVE SMOOTH",
"583 468 OFFCURVE",
"604 455 OFFCURVE",
"639 455 CURVE SMOOTH",
"678 455 OFFCURVE",
"697 474 OFFCURVE",
"697 513 CURVE SMOOTH",
"697 620 OFFCURVE",
"619 676 OFFCURVE",
"506 676 CURVE SMOOTH",
"338 676 OFFCURVE",
"146 555 OFFCURVE",
"74 370 CURVE SMOOTH",
"55 318 OFFCURVE",
"45 263 OFFCURVE",
"45 205 CURVE SMOOTH"
);
}
);
width = 703;
}
);
note = G;
unicode = 0047;
},
{
glyphname = H;
lastChange = "2016-07-15 07:31:59 +0000";
layers = (
{
layerId = "90775AEC-CE2A-409D-8CDA-B893D340B5FD";
paths = (
{
closed = 1;
nodes = (
"242 600 OFFCURVE",
"281 560 OFFCURVE",
"281 500 CURVE SMOOTH",
"281 470 OFFCURVE",
"275 437 OFFCURVE",
"263 401 CURVE SMOOTH",
"221 278 LINE",
"201 280 OFFCURVE",
"181 282 OFFCURVE",
"160 284 CURVE",
"155 284 LINE SMOOTH",
"128 284 OFFCURVE",
"107 261 OFFCURVE",
"107 238 CURVE SMOOTH",
"107 202 OFFCURVE",
"159 204 OFFCURVE",
"195 200 CURVE",
"107 -56 LINE SMOOTH",
"99 -79 OFFCURVE",
"95 -97 OFFCURVE",
"95 -110 CURVE SMOOTH",
"95 -135 OFFCURVE",
"109 -150 OFFCURVE",
"136 -157 CURVE",
"144 -158 OFFCURVE",
"149 -159 OFFCURVE",
"152 -159 CURVE SMOOTH",
"181 -159 OFFCURVE",
"202 -136 OFFCURVE",
"216 -89 CURVE SMOOTH",
"304 191 LINE",
"338 189 OFFCURVE",
"367 188 OFFCURVE",
"390 188 CURVE SMOOTH",
"429 188 OFFCURVE",
"462 189 OFFCURVE",
"491 191 CURVE",
"476 143 LINE SMOOTH",
"459 90 OFFCURVE",
"451 41 OFFCURVE",
"451 -6 CURVE SMOOTH",
"451 -99 OFFCURVE",
"510 -158 OFFCURVE",
"599 -158 CURVE SMOOTH",
"666 -158 OFFCURVE",
"735 -131 OFFCURVE",
"804 -76 CURVE SMOOTH",
"813 -69 OFFCURVE",
"818 -58 OFFCURVE",
"818 -44 CURVE SMOOTH",
"818 -17 OFFCURVE",
"801 9 OFFCURVE",
"787 9 CURVE SMOOTH",
"780 9 OFFCURVE",
"774 8 OFFCURVE",
"771 5 CURVE",
"705 -37 OFFCURVE",
"654 -58 OFFCURVE",
"619 -58 CURVE SMOOTH",
"579 -58 OFFCURVE",
"559 -31 OFFCURVE",
"559 23 CURVE SMOOTH",
"559 52 OFFCURVE",
"565 89 OFFCURVE",
"576 132 CURVE SMOOTH",
"595 203 LINE",
"699 222 OFFCURVE",
"782 260 OFFCURVE",
"827 300 CURVE SMOOTH",
"872 339 OFFCURVE",
"918 402 OFFCURVE",
"918 485 CURVE SMOOTH",
"918 568 OFFCURVE",
"861 628 OFFCURVE",
"779 628 CURVE SMOOTH",
"697 628 OFFCURVE",
"604 547 OFFCURVE",
"549 374 CURVE SMOOTH",
"517 274 LINE",
"482 271 OFFCURVE",
"448 269 OFFCURVE",
"416 269 CURVE SMOOTH",
"383 269 OFFCURVE",
"354 270 OFFCURVE",
"329 271 CURVE",
"356 356 LINE SMOOTH",
"377 422 OFFCURVE",
"387 477 OFFCURVE",
"387 521 CURVE SMOOTH",
"387 653 OFFCURVE",
"284 692 OFFCURVE",
"203 692 CURVE SMOOTH",
"72 692 OFFCURVE",
"-55 594 OFFCURVE",
"-90 439 CURVE",
"-91 436 OFFCURVE",
"-91 431 OFFCURVE",
"-91 422 CURVE SMOOTH",
"-91 404 OFFCURVE",
"-73 383 OFFCURVE",
"-52 383 CURVE SMOOTH",
"-29 383 OFFCURVE",
"-12 399 OFFCURVE",
"0 432 CURVE SMOOTH",
"44 544 OFFCURVE",
"105 600 OFFCURVE",
"182 600 CURVE SMOOTH"
);
},
{
closed = 1;
nodes = (
"818 380 OFFCURVE",
"748 319 OFFCURVE",
"617 289 CURVE",
"634 355 LINE SMOOTH",
"666 482 OFFCURVE",
"728 548 OFFCURVE",
"777 548 CURVE SMOOTH",
"806 548 OFFCURVE",
"827 523 OFFCURVE",
"827 483 CURVE",
"826 472 LINE SMOOTH"
);
}
);
width = 820;
}
);
note = H;
unicode = 0048;
},
{
glyphname = Hbar;
lastChange = "2016-07-15 07:31:59 +0000";
layers = (
{
layerId = "90775AEC-CE2A-409D-8CDA-B893D340B5FD";
paths = (
{
closed = 1;
nodes = (
"681 441 OFFCURVE",
"673 451 OFFCURVE",
"656 451 CURVE SMOOTH",
"655 451 LINE",
"134 434 LINE SMOOTH",
"110 433 OFFCURVE",
"96 420 OFFCURVE",
"96 405 CURVE SMOOTH",
"96 390 OFFCURVE",
"107 380 OFFCURVE",
"124 380 CURVE SMOOTH",
"647 381 LINE",
"668 382 OFFCURVE",
"681 400 OFFCURVE",
"681 420 CURVE SMOOTH"
);
},
{
closed = 1;
nodes = (
"105 600 OFFCURVE",
"44 544 OFFCURVE",
"0 432 CURVE SMOOTH",
"-12 399 OFFCURVE",
"-29 383 OFFCURVE",
"-52 383 CURVE SMOOTH",
"-73 383 OFFCURVE",
"-91 402 OFFCURVE",
"-91 427 CURVE SMOOTH",
"-91 432 OFFCURVE",
"-91 436 OFFCURVE",
"-90 439 CURVE",
"-55 594 OFFCURVE",
"72 692 OFFCURVE",
"203 692 CURVE SMOOTH",
"284 692 OFFCURVE",
"387 653 OFFCURVE",
"387 521 CURVE SMOOTH",
"387 477 OFFCURVE",
"377 422 OFFCURVE",
"356 356 CURVE SMOOTH",
"329 271 LINE",
"354 270 OFFCURVE",
"378 269 OFFCURVE",
"401 269 CURVE SMOOTH",
"444 269 OFFCURVE",
"482 271 OFFCURVE",
"517 274 CURVE",
"549 374 LINE SMOOTH",
"604 547 OFFCURVE",
"695 628 OFFCURVE",
"784 628 CURVE SMOOTH",
"859 628 OFFCURVE",
"918 568 OFFCURVE",
"918 485 CURVE SMOOTH",
"918 466 OFFCURVE",
"916 448 OFFCURVE",
"911 429 CURVE SMOOTH",
"902 391 OFFCURVE",
"872 339 OFFCURVE",
"827 300 CURVE SMOOTH",
"782 260 OFFCURVE",
"699 222 OFFCURVE",
"595 203 CURVE",
"576 132 LINE SMOOTH",
"565 89 OFFCURVE",
"559 52 OFFCURVE",
"559 23 CURVE SMOOTH",
"559 -31 OFFCURVE",
"579 -58 OFFCURVE",
"619 -58 CURVE SMOOTH",
"654 -58 OFFCURVE",
"705 -37 OFFCURVE",
"771 5 CURVE",
"774 8 OFFCURVE",
"778 9 OFFCURVE",
"783 9 CURVE SMOOTH",
"802 9 OFFCURVE",
"818 -18 OFFCURVE",
"818 -43 CURVE SMOOTH",
"818 -58 OFFCURVE",
"813 -69 OFFCURVE",
"804 -76 CURVE SMOOTH",
"735 -131 OFFCURVE",
"666 -158 OFFCURVE",
"599 -158 CURVE SMOOTH",
"510 -158 OFFCURVE",
"451 -103 OFFCURVE",
"451 4 CURVE SMOOTH",
"451 44 OFFCURVE",
"459 90 OFFCURVE",
"476 143 CURVE SMOOTH",
"491 191 LINE",
"463 188 OFFCURVE",
"433 188 OFFCURVE",
"401 188 CURVE SMOOTH",
"370 188 OFFCURVE",
"338 189 OFFCURVE",
"304 191 CURVE",
"216 -89 LINE SMOOTH",
"202 -136 OFFCURVE",
"181 -159 OFFCURVE",
"152 -159 CURVE SMOOTH",
"149 -159 OFFCURVE",
"144 -158 OFFCURVE",
"136 -157 CURVE",
"109 -150 OFFCURVE",
"95 -135 OFFCURVE",
"95 -110 CURVE SMOOTH",
"95 -97 OFFCURVE",
"99 -79 OFFCURVE",
"107 -56 CURVE SMOOTH",
"195 200 LINE",
"159 204 OFFCURVE",
"107 202 OFFCURVE",
"107 238 CURVE SMOOTH",
"107 261 OFFCURVE",
"128 284 OFFCURVE",
"155 284 CURVE SMOOTH",
"160 284 LINE",
"181 282 OFFCURVE",
"201 280 OFFCURVE",
"221 278 CURVE",
"263 401 LINE SMOOTH",
"275 437 OFFCURVE",
"281 468 OFFCURVE",
"281 493 CURVE SMOOTH",
"281 562 OFFCURVE",
"242 600 OFFCURVE",
"182 600 CURVE SMOOTH"
);
},
{
closed = 1;
nodes = (
"748 319 OFFCURVE",
"818 380 OFFCURVE",
"826 472 CURVE",
"826 473 OFFCURVE",
"826 475 OFFCURVE",
"827 478 CURVE",
"827 480 OFFCURVE",
"827 482 OFFCURVE",
"827 483 CURVE SMOOTH",
"827 523 OFFCURVE",
"806 548 OFFCURVE",
"777 548 CURVE SMOOTH",
"728 548 OFFCURVE",
"666 482 OFFCURVE",
"634 355 CURVE SMOOTH",
"617 289 LINE"
);
}
);
width = 768;
}
);
note = Hbar;
unicode = 0126;
},
{
glyphname = I;
lastChange = "2016-07-15 07:31:59 +0000";
layers = (
{
layerId = "90775AEC-CE2A-409D-8CDA-B893D340B5FD";
paths = (
{
closed = 1;
nodes = (
"155 661 OFFCURVE",
"140 632 OFFCURVE",
"140 599 CURVE SMOOTH",
"140 566 OFFCURVE",
"159 555 OFFCURVE",
"188 555 CURVE SMOOTH",
"202 555 OFFCURVE",
"228 556 OFFCURVE",
"265 557 CURVE",
"208 442 OFFCURVE",
"148 230 OFFCURVE",
"132 67 CURVE",
"79 66 OFFCURVE",
"3 50 OFFCURVE",
"-5 23 CURVE SMOOTH",
"-7 17 OFFCURVE",
"-8 11 OFFCURVE",
"-8 6 CURVE SMOOTH",
"-8 -15 OFFCURVE",
"5 -34 OFFCURVE",
"25 -34 CURVE SMOOTH",
"35 -34 OFFCURVE",
"72 -30 OFFCURVE",
"136 -22 CURVE SMOOTH",
"199 -15 OFFCURVE",
"248 -10 OFFCURVE",
"283 -9 CURVE SMOOTH",
"314 -8 OFFCURVE",
"330 10 OFFCURVE",
"330 37 CURVE SMOOTH",
"330 50 OFFCURVE",
"325 59 OFFCURVE",
"314 63 CURVE SMOOTH",
"298 69 OFFCURVE",
"268 72 OFFCURVE",
"223 72 CURVE SMOOTH",
"221 72 LINE",
"222 177 OFFCURVE",
"311 483 OFFCURVE",
"355 559 CURVE",
"414 559 OFFCURVE",
"449 563 OFFCURVE",
"459 572 CURVE",
"470 580 OFFCURVE",
"475 618 OFFCURVE",
"475 631 CURVE SMOOTH",
"475 652 OFFCURVE",
"466 662 OFFCURVE",
"447 662 CURVE SMOOTH",
"178 661 LINE SMOOTH"
);
}
);
width = 346;
}
);
note = I;
unicode = 0049;
},
{
glyphname = IJ;
lastChange = "2016-07-15 07:31:59 +0000";
layers = (
{
layerId = "90775AEC-CE2A-409D-8CDA-B893D340B5FD";
paths = (
{
closed = 1;
nodes = (
"261 556 LINE",
"204 445 OFFCURVE",
"148 235 OFFCURVE",
"132 67 CURVE",
"79 66 OFFCURVE",
"3 50 OFFCURVE",
"-5 23 CURVE SMOOTH",
"-7 17 OFFCURVE",
"-8 10 OFFCURVE",
"-8 3 CURVE SMOOTH",
"-8 -13 OFFCURVE",
"6 -34 OFFCURVE",
"24 -34 CURVE SMOOTH",
"33 -34 OFFCURVE",
"71 -29 OFFCURVE",
"139 -20 CURVE SMOOTH",
"206 -11 OFFCURVE",
"258 -5 OFFCURVE",
"293 -4 CURVE SMOOTH",
"328 -3 OFFCURVE",
"346 22 OFFCURVE",
"346 43 CURVE SMOOTH",
"346 54 OFFCURVE",
"343 61 OFFCURVE",
"338 65 CURVE",
"323 70 OFFCURVE",
"303 73 OFFCURVE",
"278 73 CURVE SMOOTH",
"253 73 OFFCURVE",
"233 72 OFFCURVE",
"220 69 CURVE",
"220 134 OFFCURVE",
"271 327 OFFCURVE",
"314 459 CURVE SMOOTH",
"335 525 OFFCURVE",
"348 558 OFFCURVE",
"351 558 CURVE SMOOTH",
"352 558 OFFCURVE",
"352 558 OFFCURVE",
"352 557 CURVE",
"361 558 OFFCURVE",
"391 561 OFFCURVE",
"444 564 CURVE SMOOTH",
"590 572 OFFCURVE",
"663 577 OFFCURVE",
"663 579 CURVE",
"664 579 LINE SMOOTH",
"753 579 OFFCURVE",
"813 578 OFFCURVE",
"845 575 CURVE",
"792 370 OFFCURVE",
"728 193 OFFCURVE",
"651 44 CURVE SMOOTH",
"608 -39 OFFCURVE",
"573 -81 OFFCURVE",
"546 -81 CURVE SMOOTH",
"519 -81 OFFCURVE",
"501 -64 OFFCURVE",
"492 -29 CURVE SMOOTH",
"483 5 OFFCURVE",
"476 58 OFFCURVE",
"472 130 CURVE SMOOTH",
"471 158 OFFCURVE",
"455 175 OFFCURVE",
"436 175 CURVE SMOOTH",
"416 175 OFFCURVE",
"401 157 OFFCURVE",
"401 122 CURVE SMOOTH",
"401 62 OFFCURVE",
"406 10 OFFCURVE",
"415 -34 CURVE SMOOTH",
"434 -123 OFFCURVE",
"482 -190 OFFCURVE",
"557 -190 CURVE SMOOTH",
"697 -190 OFFCURVE",
"810 174 OFFCURVE",
"878 388 CURVE SMOOTH",
"912 495 OFFCURVE",
"932 557 OFFCURVE",
"938 575 CURVE",
"959 575 LINE",
"958 576 LINE",
"986 579 OFFCURVE",
"1009 581 OFFCURVE",
"1028 582 CURVE",
"1029 582 LINE SMOOTH",
"1040 582 OFFCURVE",
"1060 615 OFFCURVE",
"1060 638 CURVE SMOOTH",
"1060 657 OFFCURVE",
"1048 667 OFFCURVE",
"1023 667 CURVE SMOOTH",
"962 667 LINE",
"954 680 OFFCURVE",
"939 686 OFFCURVE",
"918 686 CURVE SMOOTH",
"896 686 OFFCURVE",
"881 680 OFFCURVE",
"873 667 CURVE",
"728 666 OFFCURVE",
"590 664 OFFCURVE",
"458 662 CURVE",
"474 661 LINE",
"474 659 OFFCURVE",
"428 658 OFFCURVE",
"335 658 CURVE SMOOTH",
"242 658 OFFCURVE",
"190 659 OFFCURVE",
"178 661 CURVE",
"154 661 OFFCURVE",
"135 624 OFFCURVE",
"135 601 CURVE SMOOTH",
"135 590 OFFCURVE",
"137 581 OFFCURVE",
"140 576 CURVE",
"139 572 LINE",
"139 561 OFFCURVE",
"157 555 OFFCURVE",
"194 555 CURVE SMOOTH",
"255 556 LINE"
);
}
);
width = 858;
}
);
note = IJ;
unicode = 0132;
},
{
glyphname = J;
lastChange = "2016-07-15 07:31:59 +0000";
layers = (
{
layerId = "90775AEC-CE2A-409D-8CDA-B893D340B5FD";
paths = (
{
closed = 1;
nodes = (
"431 699 OFFCURVE",
"353 703 OFFCURVE",
"310 703 CURVE SMOOTH",
"225 703 OFFCURVE",
"175 695 OFFCURVE",
"118 668 CURVE SMOOTH",
"62 641 OFFCURVE",
"21 586 OFFCURVE",
"-4 503 CURVE SMOOTH",
"-6 496 OFFCURVE",
"-7 490 OFFCURVE",
"-7 485 CURVE SMOOTH",
"-7 464 OFFCURVE",
"3 454 OFFCURVE",
"23 454 CURVE SMOOTH",
"40 454 OFFCURVE",
"53 461 OFFCURVE",
"60 476 CURVE",
"75 505 OFFCURVE",
"91 526 OFFCURVE",
"109 541 CURVE SMOOTH",
"144 569 OFFCURVE",
"214 582 OFFCURVE",
"294 582 CURVE SMOOTH",
"346 582 OFFCURVE",
"418 581 OFFCURVE",
"510 578 CURVE",
"484 471 OFFCURVE",
"456 373 OFFCURVE",
"425 283 CURVE SMOOTH",
"363 103 OFFCURVE",
"324 9 OFFCURVE",
"277 -61 CURVE SMOOTH",
"254 -96 OFFCURVE",
"233 -114 OFFCURVE",
"215 -114 CURVE",
"215 -209 OFFCURVE",
"145 -85 OFFCURVE",
"138 16 CURVE SMOOTH",
"137 44 OFFCURVE",
"119 61 OFFCURVE",
"100 61 CURVE SMOOTH",
"80 61 OFFCURVE",
"63 41 OFFCURVE",
"63 4 CURVE SMOOTH",
"67 -151 OFFCURVE",
"112 -222 OFFCURVE",
"223 -222 CURVE SMOOTH",
"328 -222 OFFCURVE",
"405 -62 OFFCURVE",
"444 40 CURVE SMOOTH",
"483 142 OFFCURVE",
"501 195 OFFCURVE",
"530 294 CURVE SMOOTH",
"552 370 OFFCURVE",
"578 464 OFFCURVE",
"608 575 CURVE",
"647 574 OFFCURVE",
"683 573 OFFCURVE",
"714 573 CURVE SMOOTH",
"776 573 OFFCURVE",
"801 584 OFFCURVE",
"801 632 CURVE SMOOTH",
"801 642 LINE SMOOTH",
"801 667 OFFCURVE",
"782 680 OFFCURVE",
"745 681 CURVE SMOOTH",
"708 681 OFFCURVE",
"667 682 OFFCURVE",
"623 685 CURVE",
"614 695 OFFCURVE",
"601 700 OFFCURVE",
"583 700 CURVE SMOOTH",
"565 700 OFFCURVE",
"552 697 OFFCURVE",
"545 690 CURVE"
);
}
);
width = 523;
}
);
note = J;
unicode = 004A;
},
{
glyphname = K;
lastChange = "2016-07-15 07:31:59 +0000";
layers = (
{
layerId = "90775AEC-CE2A-409D-8CDA-B893D340B5FD";
paths = (
{
closed = 1;
nodes = (
"52 301 OFFCURVE",
"64 312 OFFCURVE",
"64 332 CURVE SMOOTH",
"64 338 LINE",
"50 370 OFFCURVE",
"43 398 OFFCURVE",
"43 421 CURVE SMOOTH",
"43 468 OFFCURVE",
"53 496 OFFCURVE",
"80 531 CURVE SMOOTH",
"110 569 OFFCURVE",
"162 597 OFFCURVE",
"237 615 CURVE",
"240 558 OFFCURVE",
"241 517 OFFCURVE",
"241 492 CURVE SMOOTH",
"241 325 OFFCURVE",
"220 195 OFFCURVE",
"178 100 CURVE SMOOTH",
"136 5 OFFCURVE",
"76 -42 OFFCURVE",
"-1 -42 CURVE",
"-46 -34 LINE",
"-75 -34 OFFCURVE",
"-97 -59 OFFCURVE",
"-97 -92 CURVE",
"-96 -103 LINE SMOOTH",
"-93 -128 OFFCURVE",
"-55 -141 OFFCURVE",
"20 -141 CURVE SMOOTH",
"168 -141 OFFCURVE",
"264 1 OFFCURVE",
"320 286 CURVE",
"337 21 OFFCURVE",
"453 -151 OFFCURVE",
"609 -151 CURVE SMOOTH",
"642 -151 OFFCURVE",
"673 -146 OFFCURVE",
"702 -137 CURVE SMOOTH",
"730 -128 OFFCURVE",
"744 -117 OFFCURVE",
"744 -104 CURVE SMOOTH",
"744 -71 OFFCURVE",
"732 -55 OFFCURVE",
"707 -55 CURVE SMOOTH",
"701 -55 OFFCURVE",
"688 -57 OFFCURVE",
"669 -60 CURVE SMOOTH",
"650 -63 OFFCURVE",
"634 -65 OFFCURVE",
"621 -65 CURVE SMOOTH",
"524 -62 OFFCURVE",
"443 73 OFFCURVE",
"411 285 CURVE",
"576 366 OFFCURVE",
"748 538 OFFCURVE",
"783 613 CURVE",
"791 633 OFFCURVE",
"795 649 OFFCURVE",
"795 660 CURVE SMOOTH",
"795 681 OFFCURVE",
"783 692 OFFCURVE",
"760 692 CURVE SMOOTH",
"743 692 OFFCURVE",
"723 676 OFFCURVE",
"713 664 CURVE",
"703 651 OFFCURVE",
"686 630 OFFCURVE",
"685 626 CURVE",
"621 539 OFFCURVE",
"479 407 OFFCURVE",
"327 327 CURVE",
"341 432 OFFCURVE",
"348 544 OFFCURVE",
"348 661 CURVE SMOOTH",
"348 686 OFFCURVE",
"327 703 OFFCURVE",
"312 703 CURVE SMOOTH",
"304 703 OFFCURVE",
"299 703 OFFCURVE",
"297 702 CURVE",
"230 691 OFFCURVE",
"172 674 OFFCURVE",
"125 653 CURVE SMOOTH",
"29 609 OFFCURVE",
"-49 530 OFFCURVE",
"-49 418 CURVE SMOOTH",
"-49 357 OFFCURVE",
"-27 294 OFFCURVE",
"12 294 CURVE"
);
}
);
width = 697;
}
);
note = K;
unicode = 004B;
},
{
glyphname = L;
lastChange = "2016-07-15 07:31:59 +0000";
layers = (
{
layerId = "90775AEC-CE2A-409D-8CDA-B893D340B5FD";
paths = (
{
closed = 1;
nodes = (
"247 428 OFFCURVE",
"232 408 OFFCURVE",
"232 387 CURVE SMOOTH",
"232 366 OFFCURVE",
"242 354 OFFCURVE",
"261 350 CURVE SMOOTH",
"302 342 OFFCURVE",
"340 335 OFFCURVE",
"377 330 CURVE",
"367 209 OFFCURVE",
"352 121 OFFCURVE",
"331 66 CURVE",
"268 95 OFFCURVE",
"214 110 OFFCURVE",
"169 110 CURVE SMOOTH",
"90 110 OFFCURVE",
"41 54 OFFCURVE",
"41 -9 CURVE SMOOTH",
"41 -72 OFFCURVE",
"86 -121 OFFCURVE",
"170 -121 CURVE SMOOTH",
"182 -121 LINE",
"259 -117 OFFCURVE",
"321 -94 OFFCURVE",
"368 -52 CURVE",
"375 -57 OFFCURVE",
"393 -67 OFFCURVE",
"421 -84 CURVE SMOOTH",
"476 -117 OFFCURVE",
"485 -123 OFFCURVE",
"534 -150 CURVE SMOOTH",
"583 -178 OFFCURVE",
"606 -187 OFFCURVE",
"647 -203 CURVE SMOOTH",
"684 -218 OFFCURVE",
"719 -225 OFFCURVE",
"753 -225 CURVE SMOOTH",
"814 -225 OFFCURVE",
"861 -195 OFFCURVE",
"894 -136 CURVE",
"898 -128 OFFCURVE",
"900 -119 OFFCURVE",
"900 -109 CURVE SMOOTH",
"900 -90 OFFCURVE",
"880 -71 OFFCURVE",
"855 -71 CURVE SMOOTH",
"842 -71 OFFCURVE",
"832 -77 OFFCURVE",
"824 -89 CURVE SMOOTH",
"803 -121 OFFCURVE",
"775 -137 OFFCURVE",
"738 -137 CURVE SMOOTH",
"674 -137 OFFCURVE",
"590 -87 OFFCURVE",
"508 -36 CURVE SMOOTH",
"467 -11 OFFCURVE",
"438 7 OFFCURVE",
"422 16 CURVE",
"462 84 OFFCURVE",
"486 185 OFFCURVE",
"495 319 CURVE",
"508 318 OFFCURVE",
"520 318 OFFCURVE",
"532 318 CURVE SMOOTH",
"744 318 OFFCURVE",
"860 399 OFFCURVE",
"860 528 CURVE SMOOTH",
"860 633 OFFCURVE",
"768 701 OFFCURVE",
"635 701 CURVE SMOOTH",
"576 701 OFFCURVE",
"523 684 OFFCURVE",
"478 649 CURVE SMOOTH",
"427 610 OFFCURVE",
"391 533 OFFCURVE",
"382 408 CURVE",
"268 428 LINE"
);
},
{
closed = 1;
nodes = (
"161 -46 OFFCURVE",
"138 -30 OFFCURVE",
"138 -8 CURVE SMOOTH",
"138 14 OFFCURVE",
"154 29 OFFCURVE",
"181 29 CURVE SMOOTH",
"206 29 OFFCURVE",
"242 17 OFFCURVE",
"288 -7 CURVE",
"263 -33 OFFCURVE",
"233 -46 OFFCURVE",
"197 -46 CURVE SMOOTH"
);
},
{
closed = 1;
nodes = (
"707 614 OFFCURVE",
"750 583 OFFCURVE",
"750 528 CURVE SMOOTH",
"750 459 OFFCURVE",
"676 399 OFFCURVE",
"511 399 CURVE SMOOTH",
"508 399 OFFCURVE",
"504 399 OFFCURVE",
"501 399 CURVE",
"517 563 OFFCURVE",
"551 614 OFFCURVE",
"640 614 CURVE SMOOTH"
);
}
);
width = 645;
}
);
note = L;
unicode = 004C;
},
{
glyphname = Lslash;
lastChange = "2016-07-15 07:31:59 +0000";
layers = (
{
layerId = "90775AEC-CE2A-409D-8CDA-B893D340B5FD";
paths = (
{
closed = 1;
nodes = (
"541 282 OFFCURVE",
"536 281 OFFCURVE",
"533 278 CURVE",
"334 170 LINE SMOOTH",
"316 161 OFFCURVE",
"307 150 OFFCURVE",
"307 137 CURVE SMOOTH",
"307 122 OFFCURVE",
"319 111 OFFCURVE",
"334 111 CURVE SMOOTH",
"341 111 OFFCURVE",
"346 112 OFFCURVE",
"349 113 CURVE",
"558 226 LINE SMOOTH",
"570 233 OFFCURVE",
"576 242 OFFCURVE",
"576 251 CURVE",
"575 269 OFFCURVE",
"558 282 OFFCURVE",
"547 282 CURVE SMOOTH"
);
},
{
closed = 1;
nodes = (
"214 110 OFFCURVE",
"268 95 OFFCURVE",
"331 66 CURVE",
"352 121 OFFCURVE",
"367 209 OFFCURVE",
"377 330 CURVE",
"340 335 OFFCURVE",
"302 342 OFFCURVE",
"261 350 CURVE SMOOTH",
"242 354 OFFCURVE",
"232 366 OFFCURVE",
"232 387 CURVE SMOOTH",
"232 408 OFFCURVE",
"247 428 OFFCURVE",
"268 428 CURVE SMOOTH",
"272 428 OFFCURVE",
"275 428 OFFCURVE",
"277 427 CURVE",
"314 419 OFFCURVE",
"349 413 OFFCURVE",
"382 408 CURVE",
"383 411 OFFCURVE",
"383 414 OFFCURVE",
"383 417 CURVE",
"391 530 OFFCURVE",
"427 610 OFFCURVE",
"478 649 CURVE SMOOTH",
"529 688 OFFCURVE",
"576 701 OFFCURVE",
"635 701 CURVE SMOOTH",
"768 701 OFFCURVE",
"860 633 OFFCURVE",
"860 528 CURVE SMOOTH",
"860 522 OFFCURVE",
"859 513 OFFCURVE",
"858 501 CURVE",
"843 396 OFFCURVE",
"744 318 OFFCURVE",
"532 318 CURVE SMOOTH",
"528 318 OFFCURVE",
"524 318 OFFCURVE",
"520 318 CURVE SMOOTH",
"516 318 OFFCURVE",
"512 318 OFFCURVE",
"508 319 CURVE",
"503 319 OFFCURVE",
"499 319 OFFCURVE",
"495 319 CURVE",
"486 185 OFFCURVE",
"462 84 OFFCURVE",
"422 16 CURVE",
"438 7 OFFCURVE",
"461 -7 OFFCURVE",
"491 -26 CURVE SMOOTH",
"551 -63 OFFCURVE",
"576 -78 OFFCURVE",
"623 -102 CURVE SMOOTH",
"670 -126 OFFCURVE",
"706 -137 OFFCURVE",
"738 -137 CURVE SMOOTH",
"775 -137 OFFCURVE",
"803 -121 OFFCURVE",
"824 -89 CURVE SMOOTH",
"832 -77 OFFCURVE",
"843 -71 OFFCURVE",
"857 -71 CURVE SMOOTH",
"880 -71 OFFCURVE",
"900 -89 OFFCURVE",
"900 -113 CURVE SMOOTH",
"900 -120 OFFCURVE",
"898 -128 OFFCURVE",
"894 -136 CURVE",
"861 -195 OFFCURVE",
"814 -225 OFFCURVE",
"753 -225 CURVE SMOOTH",
"737 -225 OFFCURVE",
"720 -223 OFFCURVE",
"703 -220 CURVE SMOOTH",
"668 -213 OFFCURVE",
"624 -194 OFFCURVE",
"594 -181 CURVE SMOOTH",
"564 -168 OFFCURVE",
"503 -133 OFFCURVE",
"480 -119 CURVE SMOOTH",
"456 -105 OFFCURVE",
"383 -61 OFFCURVE",
"368 -52 CURVE",
"321 -94 OFFCURVE",
"259 -117 OFFCURVE",
"182 -121 CURVE",
"170 -121 LINE SMOOTH",
"86 -121 OFFCURVE",
"41 -71 OFFCURVE",
"41 -10 CURVE SMOOTH",
"41 54 OFFCURVE",
"90 110 OFFCURVE",
"169 110 CURVE SMOOTH"
);
},
{
closed = 1;
nodes = (
"242 17 OFFCURVE",
"206 29 OFFCURVE",
"181 29 CURVE SMOOTH",
"154 29 OFFCURVE",
"138 13 OFFCURVE",
"138 -7 CURVE SMOOTH",
"138 -31 OFFCURVE",
"161 -46 OFFCURVE",
"197 -46 CURVE SMOOTH",
"233 -46 OFFCURVE",
"263 -33 OFFCURVE",
"288 -7 CURVE"
);
},
{
closed = 1;
nodes = (
"504 399 OFFCURVE",
"508 399 OFFCURVE",
"511 399 CURVE SMOOTH",
"676 399 OFFCURVE",
"750 459 OFFCURVE",
"750 528 CURVE SMOOTH",
"750 583 OFFCURVE",
"707 614 OFFCURVE",
"640 614 CURVE SMOOTH",
"551 614 OFFCURVE",
"517 563 OFFCURVE",
"501 399 CURVE"
);
}
);
width = 622;
}
);
note = Lslash;
unicode = 0141;
},
{
glyphname = M;
lastChange = "2016-07-15 07:31:59 +0000";
layers = (
{
layerId = "90775AEC-CE2A-409D-8CDA-B893D340B5FD";
paths = (
{
closed = 1;
nodes = (
"102 657 OFFCURVE",
"5 591 OFFCURVE",
"-10 504 CURVE",
"-10 475 OFFCURVE",
"46 433 OFFCURVE",
"58 433 CURVE",
"100 525 OFFCURVE",
"137 571 OFFCURVE",
"168 571 CURVE SMOOTH",
"182 571 OFFCURVE",
"189 558 OFFCURVE",
"189 531 CURVE SMOOTH",
"189 490 OFFCURVE",
"174 419 OFFCURVE",
"145 318 CURVE SMOOTH",
"41 -32 LINE",
"62 -50 OFFCURVE",
"89 -59 OFFCURVE",
"121 -59 CURVE SMOOTH",
"157 -59 OFFCURVE",
"168 -22 OFFCURVE",
"177 14 CURVE",
"241 212 OFFCURVE",
"292 349 OFFCURVE",
"331 424 CURVE SMOOTH",
"369 499 OFFCURVE",
"412 536 OFFCURVE",
"459 536 CURVE SMOOTH",
"494 536 OFFCURVE",
"512 514 OFFCURVE",
"512 470 CURVE SMOOTH",
"512 449 OFFCURVE",
"507 420 OFFCURVE",
"497 381 CURVE",
"378 -23 LINE",
"399 -40 OFFCURVE",
"422 -49 OFFCURVE",
"445 -49 CURVE SMOOTH",
"460 -49 OFFCURVE",
"471 -44 OFFCURVE",
"477 -34 CURVE SMOOTH",
"488 -15 OFFCURVE",
"489 -13 OFFCURVE",
"497 13 CURVE SMOOTH",
"501 26 OFFCURVE",
"519 78 OFFCURVE",
"552 170 CURVE SMOOTH",
"616 353 OFFCURVE",
"682 546 OFFCURVE",
"767 562 CURVE",
"770 563 OFFCURVE",
"775 563 OFFCURVE",
"781 563 CURVE SMOOTH",
"808 563 OFFCURVE",
"822 544 OFFCURVE",
"822 507 CURVE SMOOTH",
"822 478 OFFCURVE",
"812 428 OFFCURVE",
"791 358 CURVE SMOOTH",
"721 123 LINE SMOOTH",
"710 88 OFFCURVE",
"705 54 OFFCURVE",
"705 22 CURVE SMOOTH",
"705 -43 OFFCURVE",
"748 -94 OFFCURVE",
"847 -94 CURVE SMOOTH",
"896 -94 OFFCURVE",
"939 -74 OFFCURVE",
"974 -33 CURVE",
"983 -24 OFFCURVE",
"987 -13 OFFCURVE",
"987 -2 CURVE SMOOTH",
"987 20 OFFCURVE",
"969 37 OFFCURVE",
"950 37 CURVE SMOOTH",
"941 37 OFFCURVE",
"933 34 OFFCURVE",
"927 27 CURVE SMOOTH",
"907 4 OFFCURVE",
"883 -7 OFFCURVE",
"855 -7 CURVE SMOOTH",
"823 -7 OFFCURVE",
"801 14 OFFCURVE",
"801 39 CURVE SMOOTH",
"801 52 OFFCURVE",
"803 65 OFFCURVE",
"806 78 CURVE",
"881 334 LINE SMOOTH",
"904 411 OFFCURVE",
"917 477 OFFCURVE",
"920 530 CURVE",
"920 542 LINE SMOOTH",
"920 593 OFFCURVE",
"898 661 OFFCURVE",
"813 661 CURVE SMOOTH",
"710 661 OFFCURVE",
"639 569 OFFCURVE",
"572 398 CURVE",
"587 455 OFFCURVE",
"595 502 OFFCURVE",
"595 537 CURVE SMOOTH",
"595 612 OFFCURVE",
"565 650 OFFCURVE",
"505 650 CURVE SMOOTH",
"495 650 LINE",
"404 645 OFFCURVE",
"324 581 OFFCURVE",
"241 388 CURVE",
"266 472 OFFCURVE",
"278 532 OFFCURVE",
"278 567 CURVE SMOOTH",
"278 627 OFFCURVE",
"245 657 OFFCURVE",
"179 657 CURVE SMOOTH"
);
}
);
width = 919;
}
);
note = M;
unicode = 004D;
},
{
glyphname = N;
lastChange = "2016-07-15 07:31:59 +0000";
layers = (
{
layerId = "90775AEC-CE2A-409D-8CDA-B893D340B5FD";
paths = (
{
closed = 1;
nodes = (
"282 496 OFFCURVE",
"289 536 OFFCURVE",
"289 569 CURVE SMOOTH",
"289 641 OFFCURVE",
"256 677 OFFCURVE",
"189 677 CURVE SMOOTH",
"96 677 OFFCURVE",
"-1 612 OFFCURVE",
"-25 493 CURVE",
"-26 484 OFFCURVE",
"-27 478 OFFCURVE",
"-27 475 CURVE SMOOTH",
"-27 436 OFFCURVE",
"2 427 OFFCURVE",
"49 424 CURVE",
"65 481 OFFCURVE",
"84 522 OFFCURVE",
"106 549 CURVE SMOOTH",
"128 576 OFFCURVE",
"151 589 OFFCURVE",
"174 589 CURVE SMOOTH",
"197 589 OFFCURVE",
"208 571 OFFCURVE",
"208 535 CURVE SMOOTH",
"208 490 OFFCURVE",
"189 421 OFFCURVE",
"150 328 CURVE SMOOTH",
"51 94 OFFCURVE",
"-1 -29 OFFCURVE",
"-6 -41 CURVE",
"10 -52 OFFCURVE",
"35 -58 OFFCURVE",
"68 -58 CURVE SMOOTH",
"85 -58 OFFCURVE",
"99 -52 OFFCURVE",
"109 -39 CURVE SMOOTH",
"118 -27 OFFCURVE",
"130 -4 OFFCURVE",
"144 30 CURVE SMOOTH",
"247 260 LINE SMOOTH",
"327 448 OFFCURVE",
"398 564 OFFCURVE",
"517 564 CURVE SMOOTH",
"538 564 OFFCURVE",
"554 549 OFFCURVE",
"554 528 CURVE SMOOTH",
"554 503 OFFCURVE",
"544 469 OFFCURVE",
"524 424 CURVE SMOOTH",
"484 335 OFFCURVE",
"423 205 OFFCURVE",
"407 101 CURVE",
"406 92 OFFCURVE",
"405 84 OFFCURVE",
"405 79 CURVE SMOOTH",
"405 6 OFFCURVE",
"467 -43 OFFCURVE",
"543 -43 CURVE SMOOTH",
"601 -43 OFFCURVE",
"651 -18 OFFCURVE",
"694 31 CURVE SMOOTH",
"709 48 OFFCURVE",
"716 64 OFFCURVE",
"716 77 CURVE SMOOTH",
"716 103 OFFCURVE",
"702 116 OFFCURVE",
"681 116 CURVE SMOOTH",
"670 116 OFFCURVE",
"659 110 OFFCURVE",
"647 97 CURVE",
"624 70 OFFCURVE",
"597 57 OFFCURVE",
"566 57 CURVE SMOOTH",
"538 57 OFFCURVE",
"517 72 OFFCURVE",
"517 100 CURVE SMOOTH",
"517 103 OFFCURVE",
"518 108 OFFCURVE",
"519 115 CURVE",
"529 165 OFFCURVE",
"546 220 OFFCURVE",
"571 279 CURVE SMOOTH",
"620 397 OFFCURVE",
"661 491 OFFCURVE",
"661 566 CURVE SMOOTH",
"661 635 OFFCURVE",
"617 674 OFFCURVE",
"538 674 CURVE SMOOTH",
"415 674 OFFCURVE",
"327 582 OFFCURVE",
"267 450 CURVE"
);
}
);
width = 626;
}
);
note = N;
unicode = 004E;
},
{
glyphname = Eng;
lastChange = "2016-07-15 07:31:59 +0000";
layers = (
{
layerId = "90775AEC-CE2A-409D-8CDA-B893D340B5FD";
paths = (
{
closed = 1;
nodes = (
"95 -261 OFFCURVE",
"95 -247 OFFCURVE",
"108 -218 CURVE SMOOTH",
"133 -157 OFFCURVE",
"190 -105 OFFCURVE",
"278 -62 CURVE",
"246 -146 OFFCURVE",
"165 -261 OFFCURVE",
"108 -261 CURVE SMOOTH"
);
},
{
closed = 1;
nodes = (
"39 -302 OFFCURVE",
"64 -320 OFFCURVE",
"107 -320 CURVE SMOOTH",
"186 -320 OFFCURVE",
"309 -221 OFFCURVE",
"392 -24 CURVE",
"414 -11 OFFCURVE",
"444 1 OFFCURVE",
"481 13 CURVE SMOOTH",
"518 24 OFFCURVE",
"545 35 OFFCURVE",
"561 44 CURVE",
"589 57 OFFCURVE",
"603 72 OFFCURVE",
"603 89 CURVE SMOOTH",
"603 100 OFFCURVE",
"597 106 OFFCURVE",
"584 106 CURVE SMOOTH",
"582 106 OFFCURVE",
"578 105 OFFCURVE",
"573 104 CURVE",
"571 104 LINE SMOOTH",
"548 104 OFFCURVE",
"456 71 OFFCURVE",
"405 43 CURVE",
"426 106 OFFCURVE",
"454 181 OFFCURVE",
"487 268 CURVE SMOOTH",
"520 355 OFFCURVE",
"542 418 OFFCURVE",
"555 459 CURVE SMOOTH",
"567 500 OFFCURVE",
"573 536 OFFCURVE",
"573 569 CURVE SMOOTH",
"573 634 OFFCURVE",
"529 674 OFFCURVE",
"455 674 CURVE SMOOTH",
"418 674 OFFCURVE",
"384 667 OFFCURVE",
"355 654 CURVE SMOOTH",
"295 627 OFFCURVE",
"259 592 OFFCURVE",
"224 533 CURVE SMOOTH",
"196 487 OFFCURVE",
"172 433 OFFCURVE",
"152 372 CURVE",
"183 488 OFFCURVE",
"199 563 OFFCURVE",
"199 597 CURVE SMOOTH",
"199 641 OFFCURVE",
"154 673 OFFCURVE",
"107 673 CURVE SMOOTH",
"104 673 OFFCURVE",
"98 672 OFFCURVE",
"90 671 CURVE SMOOTH",
"-2 658 OFFCURVE",
"-74 589 OFFCURVE",
"-110 504 CURVE",
"-113 498 OFFCURVE",
"-114 492 OFFCURVE",
"-114 485 CURVE SMOOTH",
"-114 458 OFFCURVE",
"-93 435 OFFCURVE",
"-52 416 CURVE",
"-41 412 LINE",
"-32 468 OFFCURVE",
"44 589 OFFCURVE",
"85 589 CURVE SMOOTH",
"86 589 LINE SMOOTH",
"99 589 OFFCURVE",
"106 573 OFFCURVE",
"106 542 CURVE",
"105 527 LINE",
"104 452 OFFCURVE",
"47 283 OFFCURVE",
"-66 20 CURVE SMOOTH",
"-81 -16 OFFCURVE",
"-90 -36 OFFCURVE",
"-92 -40 CURVE",
"-91 -39 OFFCURVE",
"-90 -39 OFFCURVE",
"-89 -39 CURVE SMOOTH",
"-88 -39 OFFCURVE",
"-79 -42 OFFCURVE",
"-62 -48 CURVE",
"-46 -55 OFFCURVE",
"-32 -58 OFFCURVE",
"-19 -58 CURVE SMOOTH",
"-6 -58 OFFCURVE",
"5 -55 OFFCURVE",
"14 -49 CURVE SMOOTH",
"32 -37 OFFCURVE",
"35 -27 OFFCURVE",
"45 1 CURVE SMOOTH",
"50 14 OFFCURVE",
"56 30 OFFCURVE",
"65 49 CURVE SMOOTH",
"74 68 OFFCURVE",
"88 100 OFFCURVE",
"109 147 CURVE SMOOTH",
"129 193 OFFCURVE",
"146 231 OFFCURVE",
"159 260 CURVE SMOOTH",
"185 318 OFFCURVE",
"223 399 OFFCURVE",
"253 443 CURVE SMOOTH",
"283 487 OFFCURVE",
"333 564 OFFCURVE",
"428 564 CURVE SMOOTH",
"449 564 OFFCURVE",
"466 547 OFFCURVE",
"466 527 CURVE SMOOTH",
"466 507 OFFCURVE",
"463 486 OFFCURVE",
"453 450 CURVE SMOOTH",
"443 414 OFFCURVE",
"434 385 OFFCURVE",
"412 324 CURVE SMOOTH",
"401 293 OFFCURVE",
"390 265 OFFCURVE",
"381 238 CURVE SMOOTH",
"372 211 OFFCURVE",
"359 175 OFFCURVE",
"342 128 CURVE SMOOTH",
"325 81 OFFCURVE",
"309 37 OFFCURVE",
"295 -2 CURVE",
"176 -59 OFFCURVE",
"39 -171 OFFCURVE",
"39 -274 CURVE SMOOTH"
);
},
{
closed = 1;
nodes = (
"-92 -41 OFFCURVE",
"-92 -41 OFFCURVE",
"-92 -41 CURVE SMOOTH",
"-92 -41 OFFCURVE",
"-92 -41 OFFCURVE",
"-92 -40 CURVE"
);
}
);
width = 538;
}
);
note = Eng;
unicode = 014A;
},
{
glyphname = O;
lastChange = "2016-07-15 08:05:47 +0000";
layers = (
{
layerId = "90775AEC-CE2A-409D-8CDA-B893D340B5FD";
paths = (
{
closed = 1;
nodes = (
"45 42 OFFCURVE",
"147 -104 OFFCURVE",
"331 -104 CURVE SMOOTH",
"444 -104 OFFCURVE",
"541 -50 OFFCURVE",
"598 30 CURVE SMOOTH",
"657 114 OFFCURVE",
"687 209 OFFCURVE",
"687 316 CURVE SMOOTH",
"687 447 OFFCURVE",
"645 545 OFFCURVE",
"561 608 CURVE SMOOTH",
"517 641 OFFCURVE",
"466 658 OFFCURVE",
"407 658 CURVE SMOOTH",
"290 658 OFFCURVE",
"194 603 OFFCURVE",
"135 522 CURVE SMOOTH",
"75 437 OFFCURVE",
"45 342 OFFCURVE",
"45 235 CURVE SMOOTH"
);
},
{
closed = 1;
nodes = (
"505 562 OFFCURVE",
"565 452 OFFCURVE",
"565 329 CURVE SMOOTH",
"565 268 OFFCURVE",
"557 213 OFFCURVE",
"540 166 CURVE SMOOTH",
"507 70 OFFCURVE",
"432 -5 OFFCURVE",
"328 -5 CURVE SMOOTH",
"223 -5 OFFCURVE",
"161 107 OFFCURVE",
"161 231 CURVE SMOOTH",
"161 293 OFFCURVE",
"169 348 OFFCURVE",
"186 395 CURVE SMOOTH",
"219 489 OFFCURVE",
"297 562 OFFCURVE",
"400 562 CURVE SMOOTH"
);
}
);
width = 702;
}
);
note = O;
unicode = 004F;
},
{
glyphname = Oslash;
lastChange = "2016-07-15 07:31:59 +0000";
layers = (
{
layerId = "90775AEC-CE2A-409D-8CDA-B893D340B5FD";
paths = (
{
closed = 1;
nodes = (
"715 708 OFFCURVE",
"717 714 OFFCURVE",
"717 719 CURVE SMOOTH",
"717 730 OFFCURVE",
"708 737 OFFCURVE",
"692 737 CURVE SMOOTH",
"683 737 OFFCURVE",
"677 733 OFFCURVE",
"674 725 CURVE",
"76 -158 LINE",
"71 -167 OFFCURVE",
"69 -175 OFFCURVE",
"69 -184 CURVE SMOOTH",
"69 -201 OFFCURVE",
"86 -216 OFFCURVE",
"109 -216 CURVE SMOOTH",
"120 -216 OFFCURVE",
"129 -211 OFFCURVE",
"136 -201 CURVE",
"711 702 LINE SMOOTH"
);
},
{
closed = 1;
nodes = (
"56 339 OFFCURVE",
"89 441 OFFCURVE",
"147 522 CURVE SMOOTH",
"205 603 OFFCURVE",
"301 658 OFFCURVE",
"416 658 CURVE SMOOTH",
"476 658 OFFCURVE",
"528 642 OFFCURVE",
"572 609 CURVE SMOOTH",
"659 543 OFFCURVE",
"698 437 OFFCURVE",
"698 316 CURVE SMOOTH",
"698 213 OFFCURVE",
"666 111 OFFCURVE",
"609 31 CURVE SMOOTH",
"552 -50 OFFCURVE",
"455 -104 OFFCURVE",
"342 -104 CURVE SMOOTH",
"158 -104 OFFCURVE",
"56 42 OFFCURVE",
"56 235 CURVE SMOOTH"
);
},
{
closed = 1;
nodes = (
"360 562 OFFCURVE",
"315 546 OFFCURVE",
"278 514 CURVE SMOOTH",
"203 449 OFFCURVE",
"172 351 OFFCURVE",
"172 244 CURVE SMOOTH",
"172 103 OFFCURVE",
"233 -5 OFFCURVE",
"342 -5 CURVE SMOOTH",
"392 -5 OFFCURVE",
"435 12 OFFCURVE",
"472 45 CURVE SMOOTH",
"544 111 OFFCURVE",
"576 210 OFFCURVE",
"576 318 CURVE SMOOTH",
"576 455 OFFCURVE",
"516 562 OFFCURVE",
"411 562 CURVE SMOOTH"
);
}
);
width = 678;
}
);
note = Oslash;
unicode = 00D8;
},
{
glyphname = OE;
lastChange = "2016-07-15 07:31:59 +0000";
layers = (
{
layerId = "90775AEC-CE2A-409D-8CDA-B893D340B5FD";
paths = (
{
closed = 1;
nodes = (
"247 1 OFFCURVE",
"186 117 OFFCURVE",
"186 233 CURVE SMOOTH",
"186 300 OFFCURVE",
"204 368 OFFCURVE",
"239 438 CURVE SMOOTH",
"275 510 OFFCURVE",
"346 562 OFFCURVE",
"438 562 CURVE SMOOTH",
"530 562 OFFCURVE",
"587 455 OFFCURVE",
"587 316 CURVE SMOOTH",
"587 100 OFFCURVE",
"528 -5 OFFCURVE",
"364 -5 CURVE",
"342 -4 LINE SMOOTH"
);
},
{
closed = 1;
nodes = (
"77 95 OFFCURVE",
"137 -34 OFFCURVE",
"241 -82 CURVE SMOOTH",
"270 -96 OFFCURVE",
"302 -103 OFFCURVE",
"336 -103 CURVE SMOOTH",
"457 -103 OFFCURVE",
"559 -43 OFFCURVE",
"587 16 CURVE",
"598 -55 OFFCURVE",
"651 -104 OFFCURVE",
"767 -104 CURVE SMOOTH",
"883 -104 OFFCURVE",
"1103 -14 OFFCURVE",
"1182 69 CURVE",
"1189 78 OFFCURVE",
"1193 89 OFFCURVE",
"1193 101 CURVE SMOOTH",
"1193 125 OFFCURVE",
"1174 153 OFFCURVE",
"1154 153 CURVE SMOOTH",
"1144 153 OFFCURVE",
"1133 147 OFFCURVE",
"1120 136 CURVE",
"1056 67 OFFCURVE",
"876 -1 OFFCURVE",
"760 -1 CURVE SMOOTH",
"687 -1 OFFCURVE",
"661 39 OFFCURVE",
"654 88 CURVE",
"652 98 LINE",
"676 133 OFFCURVE",
"697 227 OFFCURVE",
"697 252 CURVE SMOOTH",
"697 265 OFFCURVE",
"696 272 OFFCURVE",
"695 273 CURVE",
"706 272 OFFCURVE",
"718 271 OFFCURVE",
"730 270 CURVE SMOOTH",
"760 267 OFFCURVE",
"787 265 OFFCURVE",
"810 265 CURVE SMOOTH",
"856 265 OFFCURVE",
"880 295 OFFCURVE",
"880 322 CURVE SMOOTH",
"880 349 OFFCURVE",
"864 372 OFFCURVE",
"833 372 CURVE SMOOTH",
"697 372 LINE",
"690 406 OFFCURVE",
"686 429 OFFCURVE",
"683 441 CURVE SMOOTH",
"680 452 OFFCURVE",
"678 461 OFFCURVE",
"678 467 CURVE SMOOTH",
"678 555 OFFCURVE",
"803 637 OFFCURVE",
"932 637 CURVE SMOOTH",
"979 637 OFFCURVE",
"1017 624 OFFCURVE",
"1047 598 CURVE",
"1048 600 LINE",
"1052 600 OFFCURVE",
"1026 542 OFFCURVE",
"1024 542 CURVE SMOOTH",
"1023 542 OFFCURVE",
"1022 543 OFFCURVE",
"1022 544 CURVE",
"1012 526 OFFCURVE",
"1007 512 OFFCURVE",
"1007 502 CURVE SMOOTH",
"1007 489 OFFCURVE",
"1016 483 OFFCURVE",
"1033 483 CURVE SMOOTH",
"1047 483 LINE SMOOTH",
"1108 483 OFFCURVE",
"1138 513 OFFCURVE",
"1138 573 CURVE SMOOTH",
"1138 668 OFFCURVE",
"1058 717 OFFCURVE",
"934 717 CURVE SMOOTH",
"810 717 OFFCURVE",
"652 649 OFFCURVE",
"616 545 CURVE",
"609 600 OFFCURVE",
"540 658 OFFCURVE",
"428 658 CURVE SMOOTH",
"315 658 OFFCURVE",
"219 606 OFFCURVE",
"162 522 CURVE SMOOTH",
"105 437 OFFCURVE",
"77 334 OFFCURVE",
"77 211 CURVE SMOOTH"
);
}
);
width = 1076;
}
);
note = OE;
unicode = 0152;
},
{
glyphname = P;
lastChange = "2016-07-15 07:31:59 +0000";
layers = (
{
layerId = "90775AEC-CE2A-409D-8CDA-B893D340B5FD";
paths = (
{
closed = 1;
nodes = (
"728 639 OFFCURVE",
"620 726 OFFCURVE",
"456 726 CURVE SMOOTH",
"438 726 OFFCURVE",
"419 725 OFFCURVE",
"399 723 CURVE SMOOTH",
"186 699 OFFCURVE",
"71 486 OFFCURVE",
"71 198 CURVE SMOOTH",
"71 5 OFFCURVE",
"119 -129 OFFCURVE",
"224 -129 CURVE SMOOTH",
"329 -129 OFFCURVE",
"366 -51 OFFCURVE",
"385 97 CURVE SMOOTH",
"403 240 LINE",
"598 255 OFFCURVE",
"728 371 OFFCURVE",
"728 507 CURVE SMOOTH"
);
},
{
closed = 1;
nodes = (
"472 508 OFFCURVE",
"458 520 OFFCURVE",
"430 520 CURVE SMOOTH",
"401 520 OFFCURVE",
"381 507 OFFCURVE",
"368 482 CURVE SMOOTH",
"355 456 OFFCURVE",
"340 405 OFFCURVE",
"324 328 CURVE",
"305 333 OFFCURVE",
"288 340 OFFCURVE",
"273 349 CURVE",
"258 357 OFFCURVE",
"248 361 OFFCURVE",
"245 361 CURVE SMOOTH",
"233 361 OFFCURVE",
"227 350 OFFCURVE",
"227 328 CURVE SMOOTH",
"227 283 OFFCURVE",
"258 273 OFFCURVE",
"285 264 CURVE",
"298 259 OFFCURVE",
"307 256 OFFCURVE",
"312 254 CURVE",
"308 225 OFFCURVE",
"304 191 OFFCURVE",
"301 153 CURVE SMOOTH",
"294 76 OFFCURVE",
"292 48 OFFCURVE",
"284 8 CURVE SMOOTH",
"275 -32 OFFCURVE",
"261 -45 OFFCURVE",
"238 -45 CURVE SMOOTH",
"193 -45 OFFCURVE",
"170 38 OFFCURVE",
"170 205 CURVE SMOOTH",
"170 305 OFFCURVE",
"185 394 OFFCURVE",
"215 472 CURVE SMOOTH",
"247 556 OFFCURVE",
"313 628 OFFCURVE",
"428 628 CURVE SMOOTH",
"543 628 OFFCURVE",
"601 578 OFFCURVE",
"601 494 CURVE SMOOTH",
"601 409 OFFCURVE",
"527 336 OFFCURVE",
"412 319 CURVE",
"419 354 OFFCURVE",
"431 389 OFFCURVE",
"448 422 CURVE SMOOTH",
"464 455 OFFCURVE",
"472 476 OFFCURVE",
"472 485 CURVE SMOOTH"
);
}
);
width = 579;
}
);
note = P;
unicode = 0050;
},
{
glyphname = Thorn;
lastChange = "2016-07-15 07:31:59 +0000";
layers = (
{
layerId = "90775AEC-CE2A-409D-8CDA-B893D340B5FD";
paths = (
{
closed = 1;
nodes = (
"587 410 OFFCURVE",
"514 343 OFFCURVE",
"397 326 CURVE",
"414 381 OFFCURVE",
"434 483 OFFCURVE",
"458 630 CURVE",
"544 616 OFFCURVE",
"587 571 OFFCURVE",
"587 495 CURVE SMOOTH"
);
},
{
closed = 1;
nodes = (
"308 329 OFFCURVE",
"297 334 OFFCURVE",
"277 345 CURVE",
"256 355 OFFCURVE",
"240 360 OFFCURVE",
"229 360 CURVE SMOOTH",
"213 360 OFFCURVE",
"212 353 OFFCURVE",
"212 331 CURVE SMOOTH",
"212 309 OFFCURVE",
"216 296 OFFCURVE",
"229 286 CURVE",
"241 276 OFFCURVE",
"248 272 OFFCURVE",
"272 261 CURVE SMOOTH",
"283 256 OFFCURVE",
"292 251 OFFCURVE",
"299 248 CURVE",
"295 219 OFFCURVE",
"291 185 OFFCURVE",
"288 148 CURVE SMOOTH",
"280 72 OFFCURVE",
"278 44 OFFCURVE",
"270 5 CURVE SMOOTH",
"262 -34 OFFCURVE",
"249 -46 OFFCURVE",
"226 -46 CURVE SMOOTH",
"178 -46 OFFCURVE",
"154 38 OFFCURVE",
"154 205 CURVE SMOOTH",
"154 299 OFFCURVE",
"168 387 OFFCURVE",
"197 469 CURVE SMOOTH",
"226 553 OFFCURVE",
"285 615 OFFCURVE",
"361 628 CURVE",
"311 328 LINE"
);
},
{
closed = 1;
nodes = (
"318 -125 OFFCURVE",
"353 -34 OFFCURVE",
"369 97 CURVE",
"372 116 OFFCURVE",
"374 141 OFFCURVE",
"377 172 CURVE SMOOTH",
"380 202 OFFCURVE",
"382 224 OFFCURVE",
"384 237 CURVE SMOOTH",
"386 250 OFFCURVE",
"389 257 OFFCURVE",
"393 258 CURVE",
"577 287 OFFCURVE",
"691 385 OFFCURVE",
"691 498 CURVE SMOOTH",
"691 611 OFFCURVE",
"606 699 OFFCURVE",
"473 720 CURVE",
"484 790 OFFCURVE",
"489 827 OFFCURVE",
"489 830 CURVE",
"490 843 OFFCURVE",
"484 849 OFFCURVE",
"472 849 CURVE SMOOTH",
"433 849 OFFCURVE",
"402 807 OFFCURVE",
"378 723 CURVE",
"309 718 OFFCURVE",
"249 691 OFFCURVE",
"200 640 CURVE SMOOTH",
"106 543 OFFCURVE",
"59 396 OFFCURVE",
"59 198 CURVE SMOOTH",
"59 5 OFFCURVE",
"105 -125 OFFCURVE",
"213 -125 CURVE SMOOTH"
);
}
);
width = 384;
}
);
note = Thorn;
unicode = 00DE;
},
{
glyphname = Q;
lastChange = "2016-07-15 07:31:59 +0000";
layers = (
{
layerId = "90775AEC-CE2A-409D-8CDA-B893D340B5FD";
paths = (
{
closed = 1;
nodes = (
"1034 -340 OFFCURVE",
"1064 -304 OFFCURVE",
"1069 -271 CURVE",
"1069 -251 OFFCURVE",
"1043 -232 OFFCURVE",
"1021 -232 CURVE SMOOTH",
"1010 -232 OFFCURVE",
"997 -240 OFFCURVE",
"984 -257 CURVE",
"956 -291 OFFCURVE",
"942 -305 OFFCURVE",
"910 -305 CURVE SMOOTH",
"824 -305 OFFCURVE",
"658 -203 OFFCURVE",
"413 2 CURVE",
"412 3 OFFCURVE",
"407 4 OFFCURVE",
"400 4 CURVE SMOOTH",
"384 4 OFFCURVE",
"350 -29 OFFCURVE",
"350 -43 CURVE SMOOTH",
"350 -50 OFFCURVE",
"352 -55 OFFCURVE",
"355 -57 CURVE",
"374 -72 OFFCURVE",
"403 -95 OFFCURVE",
"441 -126 CURVE SMOOTH",
"516 -187 OFFCURVE",
"535 -202 OFFCURVE",
"597 -250 CURVE SMOOTH",
"659 -299 OFFCURVE",
"683 -313 OFFCURVE",
"732 -345 CURVE SMOOTH",
"781 -377 OFFCURVE",
"843 -406 OFFCURVE",
"901 -406 CURVE SMOOTH",
"930 -406 OFFCURVE",
"956 -397 OFFCURVE",
"980 -380 CURVE SMOOTH"
);
},
{
closed = 1;
nodes = (
"56 339 OFFCURVE",
"89 441 OFFCURVE",
"147 522 CURVE SMOOTH",
"205 603 OFFCURVE",
"301 658 OFFCURVE",
"416 658 CURVE SMOOTH",
"476 658 OFFCURVE",
"528 642 OFFCURVE",
"572 609 CURVE SMOOTH",
"659 543 OFFCURVE",
"698 437 OFFCURVE",
"698 316 CURVE SMOOTH",
"698 213 OFFCURVE",
"666 111 OFFCURVE",
"609 31 CURVE SMOOTH",
"552 -50 OFFCURVE",
"455 -104 OFFCURVE",
"342 -104 CURVE SMOOTH",
"158 -104 OFFCURVE",
"56 42 OFFCURVE",
"56 235 CURVE SMOOTH"
);
},
{
closed = 1;
nodes = (
"360 562 OFFCURVE",
"315 546 OFFCURVE",
"278 514 CURVE SMOOTH",
"203 449 OFFCURVE",
"172 351 OFFCURVE",
"172 244 CURVE SMOOTH",
"172 103 OFFCURVE",
"233 -5 OFFCURVE",
"342 -5 CURVE SMOOTH",
"392 -5 OFFCURVE",
"435 12 OFFCURVE",
"472 45 CURVE SMOOTH",
"544 111 OFFCURVE",
"576 210 OFFCURVE",
"576 318 CURVE SMOOTH",
"576 455 OFFCURVE",
"516 562 OFFCURVE",
"411 562 CURVE SMOOTH"
);
}
);
width = 736;
}
);
note = Q;
unicode = 0051;
},
{
glyphname = R;
lastChange = "2016-07-15 07:31:59 +0000";
layers = (
{
layerId = "90775AEC-CE2A-409D-8CDA-B893D340B5FD";
paths = (
{
closed = 1;
nodes = (
"972 -88 OFFCURVE",
"948 -64 OFFCURVE",
"934 -64 CURVE SMOOTH",
"927 -64 OFFCURVE",
"921 -66 OFFCURVE",
"918 -69 CURVE SMOOTH",
"883 -105 OFFCURVE",
"852 -123 OFFCURVE",
"823 -123 CURVE SMOOTH",
"814 -123 OFFCURVE",
"807 -123 OFFCURVE",
"803 -122 CURVE",
"756 -115 OFFCURVE",
"698 -49 OFFCURVE",
"653 38 CURVE SMOOTH",
"608 125 OFFCURVE",
"573 212 OFFCURVE",
"548 298 CURVE",
"676 327 OFFCURVE",
"748 412 OFFCURVE",
"748 501 CURVE SMOOTH",
"748 616 OFFCURVE",
"639 710 OFFCURVE",
"452 710 CURVE SMOOTH",
"233 710 OFFCURVE",
"91 513 OFFCURVE",
"78 182 CURVE SMOOTH",
"77 158 OFFCURVE",
"76 141 OFFCURVE",
"76 131 CURVE SMOOTH",
"76 -40 OFFCURVE",
"136 -144 OFFCURVE",
"225 -145 CURVE SMOOTH",
"321 -145 OFFCURVE",
"359 -57 OFFCURVE",
"373 -8 CURVE SMOOTH",
"387 41 OFFCURVE",
"390 61 OFFCURVE",
"397 109 CURVE SMOOTH",
"404 157 OFFCURVE",
"406 176 OFFCURVE",
"411 228 CURVE SMOOTH",
"414 253 OFFCURVE",
"416 273 OFFCURVE",
"418 286 CURVE",
"433 286 OFFCURVE",
"463 289 OFFCURVE",
"463 289 CURVE",
"468 213 OFFCURVE",
"512 88 OFFCURVE",
"572 -24 CURVE SMOOTH",
"631 -137 OFFCURVE",
"721 -230 OFFCURVE",
"801 -230 CURVE SMOOTH",
"832 -230 OFFCURVE",
"861 -221 OFFCURVE",
"888 -204 CURVE SMOOTH",
"942 -170 OFFCURVE",
"972 -124 OFFCURVE",
"972 -107 CURVE SMOOTH"
);
},
{
closed = 1;
nodes = (
"321 370 OFFCURVE",
"307 371 OFFCURVE",
"299 371 CURVE SMOOTH",
"288 371 OFFCURVE",
"283 358 OFFCURVE",
"283 333 CURVE",
"284 312 OFFCURVE",
"300 297 OFFCURVE",
"331 290 CURVE",
"330 278 OFFCURVE",
"319 198 OFFCURVE",
"311 146 CURVE SMOOTH",
"303 94 OFFCURVE",
"286 -35 OFFCURVE",
"249 -48 CURVE SMOOTH",
"246 -49 OFFCURVE",
"241 -50 OFFCURVE",
"236 -50 CURVE SMOOTH",
"217 -50 OFFCURVE",
"203 -32 OFFCURVE",
"195 3 CURVE SMOOTH",
"187 38 OFFCURVE",
"183 91 OFFCURVE",
"183 164 CURVE SMOOTH",
"183 193 LINE SMOOTH",
"186 446 OFFCURVE",
"286 609 OFFCURVE",
"458 609 CURVE SMOOTH",
"570 609 OFFCURVE",
"629 562 OFFCURVE",
"630 495 CURVE SMOOTH",
"630 427 OFFCURVE",
"552 356 OFFCURVE",
"437 356 CURVE SMOOTH",
"434 356 OFFCURVE",
"431 356 OFFCURVE",
"427 356 CURVE",
"432 381 OFFCURVE",
"429 387 OFFCURVE",
"459 426 CURVE SMOOTH",
"474 445 OFFCURVE",
"482 462 OFFCURVE",
"483 476 CURVE",
"483 500 OFFCURVE",
"471 512 OFFCURVE",
"446 513 CURVE SMOOTH",
"396 514 OFFCURVE",
"355 452 OFFCURVE",
"347 400 CURVE",
"346 389 OFFCURVE",
"344 378 OFFCURVE",
"342 367 CURVE"
);
}
);
width = 750;
}
);
note = R;
unicode = 0052;
},
{
glyphname = S;
lastChange = "2016-07-15 07:31:59 +0000";
layers = (
{
layerId = "90775AEC-CE2A-409D-8CDA-B893D340B5FD";
paths = (
{
closed = 1;
nodes = (
"222 -26 OFFCURVE",
"162 7 OFFCURVE",
"162 90 CURVE SMOOTH",
"162 106 OFFCURVE",
"167 122 OFFCURVE",
"176 137 CURVE SMOOTH",
"185 152 OFFCURVE",
"190 164 OFFCURVE",
"190 173 CURVE SMOOTH",
"190 193 OFFCURVE",
"179 203 OFFCURVE",
"157 203 CURVE SMOOTH",
"92 203 OFFCURVE",
"49 147 OFFCURVE",
"49 87 CURVE SMOOTH",
"49 79 LINE",
"52 36 OFFCURVE",
"67 -1 OFFCURVE",
"96 -30 CURVE SMOOTH",
"149 -86 OFFCURVE",
"229 -114 OFFCURVE",
"338 -114 CURVE SMOOTH",
"521 -114 OFFCURVE",
"647 -37 OFFCURVE",
"647 91 CURVE SMOOTH",
"647 174 OFFCURVE",
"613 217 OFFCURVE",
"532 264 CURVE SMOOTH",
"484 291 OFFCURVE",
"437 315 OFFCURVE",
"402 333 CURVE SMOOTH",
"384 342 OFFCURVE",
"371 348 OFFCURVE",
"363 353 CURVE",
"354 358 OFFCURVE",
"344 363 OFFCURVE",
"333 370 CURVE",
"321 376 OFFCURVE",
"313 381 OFFCURVE",
"308 385 CURVE SMOOTH",
"298 393 OFFCURVE",
"282 405 OFFCURVE",
"278 416 CURVE",
"272 428 OFFCURVE",
"269 441 OFFCURVE",
"269 454 CURVE SMOOTH",
"269 510 OFFCURVE",
"326 551 OFFCURVE",
"421 551 CURVE SMOOTH",
"516 551 OFFCURVE",
"563 525 OFFCURVE",
"563 474 CURVE SMOOTH",
"563 447 OFFCURVE",
"552 424 OFFCURVE",
"531 405 CURVE",
"523 395 OFFCURVE",
"519 385 OFFCURVE",
"519 375 CURVE SMOOTH",
"519 352 OFFCURVE",
"539 332 OFFCURVE",
"572 332 CURVE SMOOTH",
"589 332 OFFCURVE",
"606 341 OFFCURVE",
"625 360 CURVE SMOOTH",
"655 392 OFFCURVE",
"670 430 OFFCURVE",
"671 474 CURVE",
"668 575 OFFCURVE",
"572 632 OFFCURVE",
"433 632 CURVE SMOOTH",
"324 632 OFFCURVE",
"242 604 OFFCURVE",
"186 548 CURVE SMOOTH",
"157 519 OFFCURVE",
"142 485 OFFCURVE",
"142 446 CURVE SMOOTH",
"142 411 OFFCURVE",
"149 385 OFFCURVE",
"162 366 CURVE",
"167 358 OFFCURVE",
"172 351 OFFCURVE",
"175 346 CURVE SMOOTH",
"178 341 OFFCURVE",
"185 335 OFFCURVE",
"194 328 CURVE SMOOTH",
"212 314 OFFCURVE",
"214 310 OFFCURVE",
"237 297 CURVE SMOOTH",
"260 284 OFFCURVE",
"261 283 OFFCURVE",
"289 268 CURVE SMOOTH",
"303 261 OFFCURVE",
"314 255 OFFCURVE",
"323 250 CURVE SMOOTH",
"332 245 OFFCURVE",
"349 236 OFFCURVE",
"376 223 CURVE SMOOTH",
"429 196 OFFCURVE",
"444 188 OFFCURVE",
"476 164 CURVE SMOOTH",
"505 143 OFFCURVE",
"520 116 OFFCURVE",
"520 84 CURVE SMOOTH",
"520 11 OFFCURVE",
"461 -26 OFFCURVE",
"342 -26 CURVE SMOOTH"
);
}
);
width = 681;
}
);
note = S;
unicode = 0053;
},
{
glyphname = T;
lastChange = "2016-07-15 07:31:59 +0000";
layers = (
{
layerId = "90775AEC-CE2A-409D-8CDA-B893D340B5FD";
paths = (
{
closed = 1;
nodes = (
"254 -65 OFFCURVE",
"273 -86 OFFCURVE",
"312 -86 CURVE SMOOTH",
"347 -86 OFFCURVE",
"369 -59 OFFCURVE",
"377 -6 CURVE SMOOTH",
"396 115 OFFCURVE",
"436 299 OFFCURVE",
"497 546 CURVE",
"586 539 OFFCURVE",
"658 535 OFFCURVE",
"713 535 CURVE SMOOTH",
"768 535 OFFCURVE",
"798 537 OFFCURVE",
"803 541 CURVE",
"804 542 OFFCURVE",
"807 544 OFFCURVE",
"812 547 CURVE SMOOTH",
"822 553 OFFCURVE",
"823 553 OFFCURVE",
"830 560 CURVE SMOOTH",
"836 566 OFFCURVE",
"839 576 OFFCURVE",
"839 589 CURVE SMOOTH",
"839 615 OFFCURVE",
"825 626 OFFCURVE",
"789 627 CURVE SMOOTH",
"729 627 OFFCURVE",
"651 630 OFFCURVE",
"554 637 CURVE SMOOTH",
"457 644 OFFCURVE",
"390 647 OFFCURVE",
"354 647 CURVE SMOOTH",
"318 647 OFFCURVE",
"288 646 OFFCURVE",
"263 643 CURVE",
"132 622 OFFCURVE",
"53 599 OFFCURVE",
"1 454 CURVE SMOOTH",
"0 451 OFFCURVE",
"-1 446 OFFCURVE",
"-1 441 CURVE SMOOTH",
"-1 424 OFFCURVE",
"9 415 OFFCURVE",
"30 415 CURVE SMOOTH",
"50 415 OFFCURVE",
"63 421 OFFCURVE",
"69 432 CURVE",
"76 443 OFFCURVE",
"83 453 OFFCURVE",
"90 462 CURVE SMOOTH",
"103 478 OFFCURVE",
"139 507 OFFCURVE",
"180 523 CURVE SMOOTH",
"231 543 OFFCURVE",
"295 553 OFFCURVE",
"374 553 CURVE SMOOTH",
"388 553 OFFCURVE",
"404 553 OFFCURVE",
"421 552 CURVE",
"350 353 OFFCURVE",
"301 197 OFFCURVE",
"274 85 CURVE SMOOTH",
"261 33 OFFCURVE",
"254 -3 OFFCURVE",
"254 -24 CURVE SMOOTH"
);
}
);
width = 489;
}
);
note = T;
unicode = 0054;
},
{
glyphname = U;
lastChange = "2016-07-15 07:31:59 +0000";
layers = (
{
layerId = "90775AEC-CE2A-409D-8CDA-B893D340B5FD";
paths = (
{
closed = 1;
nodes = (
"487 594 OFFCURVE",
"503 617 OFFCURVE",
"531 617 CURVE SMOOTH",
"575 617 OFFCURVE",
"598 562 OFFCURVE",
"598 479 CURVE SMOOTH",
"598 471 OFFCURVE",
"598 463 OFFCURVE",
"597 455 CURVE",
"530 458 OFFCURVE",
"487 513 OFFCURVE",
"487 565 CURVE SMOOTH"
);
},
{
closed = 1;
nodes = (
"413 476 OFFCURVE",
"485 382 OFFCURVE",
"589 381 CURVE",
"562 234 OFFCURVE",
"488 92 OFFCURVE",
"381 40 CURVE SMOOTH",
"352 25 OFFCURVE",
"320 18 OFFCURVE",
"285 18 CURVE SMOOTH",
"215 18 OFFCURVE",
"178 77 OFFCURVE",
"178 183 CURVE SMOOTH",
"178 289 OFFCURVE",
"228 447 OFFCURVE",
"293 556 CURVE SMOOTH",
"298 564 OFFCURVE",
"301 572 OFFCURVE",
"301 580 CURVE SMOOTH",
"301 598 OFFCURVE",
"288 607 OFFCURVE",
"263 607 CURVE SMOOTH",
"248 607 OFFCURVE",
"235 604 OFFCURVE",
"226 598 CURVE SMOOTH",
"46 478 LINE SMOOTH",
"34 470 OFFCURVE",
"28 458 OFFCURVE",
"28 441 CURVE SMOOTH",
"28 424 OFFCURVE",
"36 416 OFFCURVE",
"53 416 CURVE SMOOTH",
"60 416 OFFCURVE",
"68 418 OFFCURVE",
"75 423 CURVE SMOOTH",
"150 474 LINE",
"101 365 OFFCURVE",
"76 263 OFFCURVE",
"76 167 CURVE SMOOTH",
"76 20 OFFCURVE",
"142 -75 OFFCURVE",
"289 -75 CURVE SMOOTH",
"334 -75 OFFCURVE",
"376 -65 OFFCURVE",
"417 -46 CURVE SMOOTH",
"498 -7 OFFCURVE",
"556 58 OFFCURVE",
"603 141 CURVE SMOOTH",
"649 222 OFFCURVE",
"677 310 OFFCURVE",
"688 405 CURVE",
"723 421 OFFCURVE",
"758 445 OFFCURVE",
"793 476 CURVE SMOOTH",
"801 483 OFFCURVE",
"805 491 OFFCURVE",
"805 500 CURVE SMOOTH",
"805 518 OFFCURVE",
"793 532 OFFCURVE",
"780 532 CURVE SMOOTH",
"773 532 OFFCURVE",
"767 530 OFFCURVE",
"762 525 CURVE",
"738 506 OFFCURVE",
"715 490 OFFCURVE",
"692 479 CURVE",
"691 607 OFFCURVE",
"641 699 OFFCURVE",
"550 699 CURVE SMOOTH",
"459 699 OFFCURVE",
"413 644 OFFCURVE",
"413 560 CURVE SMOOTH"
);
}
);
width = 632;
}
);
note = U;
unicode = 0055;
},
{
glyphname = V;
lastChange = "2016-07-15 07:31:59 +0000";
layers = (
{
layerId = "90775AEC-CE2A-409D-8CDA-B893D340B5FD";
paths = (
{
closed = 1;
nodes = (
"552 634 OFFCURVE",
"567 613 OFFCURVE",
"567 571 CURVE SMOOTH",
"567 547 OFFCURVE",
"562 518 OFFCURVE",
"552 483 CURVE",
"507 499 OFFCURVE",
"479 543 OFFCURVE",
"479 579 CURVE SMOOTH",
"479 614 OFFCURVE",
"495 634 OFFCURVE",
"522 634 CURVE SMOOTH"
);
},
{
closed = 1;
nodes = (
"797 500 OFFCURVE",
"801 509 OFFCURVE",
"801 518 CURVE SMOOTH",
"801 536 OFFCURVE",
"791 548 OFFCURVE",
"776 548 CURVE SMOOTH",
"768 548 OFFCURVE",
"757 543 OFFCURVE",
"744 534 CURVE SMOOTH",
"713 512 OFFCURVE",
"682 496 OFFCURVE",
"650 486 CURVE",
"655 513 OFFCURVE",
"658 538 OFFCURVE",
"658 561 CURVE SMOOTH",
"658 656 OFFCURVE",
"614 709 OFFCURVE",
"533 709 CURVE SMOOTH",
"452 709 OFFCURVE",
"404 652 OFFCURVE",
"404 579 CURVE SMOOTH",
"404 506 OFFCURVE",
"452 432 OFFCURVE",
"528 411 CURVE",
"513 374 OFFCURVE",
"495 334 OFFCURVE",
"474 289 CURVE",
"415 177 OFFCURVE",
"300 26 OFFCURVE",
"238 26 CURVE SMOOTH",
"207 26 OFFCURVE",
"191 65 OFFCURVE",
"191 143 CURVE SMOOTH",
"191 264 OFFCURVE",
"237 413 OFFCURVE",
"270 481 CURVE SMOOTH",
"286 514 OFFCURVE",
"297 534 OFFCURVE",
"302 539 CURVE",
"303 542 OFFCURVE",
"304 545 OFFCURVE",
"304 550 CURVE SMOOTH",
"304 558 OFFCURVE",
"285 579 OFFCURVE",
"262 579 CURVE SMOOTH",
"250 579 OFFCURVE",
"238 574 OFFCURVE",
"227 564 CURVE",
"1 427 LINE",
"-11 419 OFFCURVE",
"-17 409 OFFCURVE",
"-17 398 CURVE SMOOTH",
"-17 375 OFFCURVE",
"-8 363 OFFCURVE",
"9 363 CURVE SMOOTH",
"16 363 OFFCURVE",
"23 365 OFFCURVE",
"30 370 CURVE",
"163 453 LINE",
"117 346 OFFCURVE",
"94 245 OFFCURVE",
"94 148 CURVE SMOOTH",
"94 19 OFFCURVE",
"141 -51 OFFCURVE",
"232 -51 CURVE SMOOTH",
"236 -51 LINE",
"293 -48 OFFCURVE",
"350 -17 OFFCURVE",
"408 42 CURVE SMOOTH",
"523 160 OFFCURVE",
"597 314 OFFCURVE",
"629 410 CURVE",
"679 421 OFFCURVE",
"732 449 OFFCURVE",
"788 492 CURVE"
);
}
);
width = 562;
}
);
note = V;
unicode = 0056;
},
{
glyphname = W;
lastChange = "2016-07-15 07:31:59 +0000";
layers = (
{
layerId = "90775AEC-CE2A-409D-8CDA-B893D340B5FD";
paths = (
{
closed = 1;
nodes = (
"577 273 OFFCURVE",
"589 340 OFFCURVE",
"614 395 CURVE SMOOTH",
"628 425 OFFCURVE",
"635 448 OFFCURVE",
"635 464 CURVE SMOOTH",
"635 496 OFFCURVE",
"617 515 OFFCURVE",
"597 515 CURVE SMOOTH",
"591 515 LINE SMOOTH",
"552 515 OFFCURVE",
"544 490 OFFCURVE",
"533 469 CURVE",
"523 448 OFFCURVE",
"514 422 OFFCURVE",
"506 393 CURVE",
"499 375 OFFCURVE",
"491 359 OFFCURVE",
"483 344 CURVE SMOOTH",
"475 329 OFFCURVE",
"469 317 OFFCURVE",
"464 308 CURVE",
"388 140 OFFCURVE",
"292 45 OFFCURVE",
"231 38 CURVE",
"227 38 LINE SMOOTH",
"198 38 OFFCURVE",
"183 74 OFFCURVE",
"183 145 CURVE SMOOTH",
"183 241 OFFCURVE",
"206 342 OFFCURVE",
"252 448 CURVE SMOOTH",
"272 495 OFFCURVE",
"286 523 OFFCURVE",
"295 532 CURVE SMOOTH",
"298 535 OFFCURVE",
"299 541 OFFCURVE",
"299 549 CURVE SMOOTH",
"299 565 OFFCURVE",
"275 590 OFFCURVE",
"254 590 CURVE SMOOTH",
"236 590 OFFCURVE",
"220 584 OFFCURVE",
"206 571 CURVE",
"-18 436 LINE SMOOTH",
"-33 427 OFFCURVE",
"-41 415 OFFCURVE",
"-41 400 CURVE SMOOTH",
"-41 369 OFFCURVE",
"-27 352 OFFCURVE",
"-8 352 CURVE SMOOTH",
"1 352 OFFCURVE",
"11 355 OFFCURVE",
"21 361 CURVE SMOOTH",
"129 428 LINE",
"92 332 OFFCURVE",
"74 245 OFFCURVE",
"74 167 CURVE SMOOTH",
"74 17 OFFCURVE",
"122 -58 OFFCURVE",
"217 -58 CURVE SMOOTH",
"221 -58 LINE SMOOTH",
"313 -55 OFFCURVE",
"405 34 OFFCURVE",
"482 170 CURVE",
"485 111 OFFCURVE",
"495 59 OFFCURVE",
"514 15 CURVE SMOOTH",
"533 -30 OFFCURVE",
"563 -58 OFFCURVE",
"614 -58 CURVE SMOOTH",
"665 -58 OFFCURVE",
"728 -22 OFFCURVE",
"784 42 CURVE SMOOTH",
"831 99 OFFCURVE",
"879 169 OFFCURVE",
"926 254 CURVE SMOOTH",
"956 310 OFFCURVE",
"979 363 OFFCURVE",
"996 414 CURVE",
"1048 423 OFFCURVE",
"1103 446 OFFCURVE",
"1161 484 CURVE SMOOTH",
"1173 492 OFFCURVE",
"1179 502 OFFCURVE",
"1179 515 CURVE SMOOTH",
"1179 539 OFFCURVE",
"1164 554 OFFCURVE",
"1144 554 CURVE SMOOTH",
"1134 554 OFFCURVE",
"1126 552 OFFCURVE",
"1119 547 CURVE SMOOTH",
"1105 537 OFFCURVE",
"1098 532 OFFCURVE",
"1090 528 CURVE",
"1086 525 OFFCURVE",
"1082 523 OFFCURVE",
"1079 521 CURVE SMOOTH",
"1071 516 OFFCURVE",
"1064 512 OFFCURVE",
"1057 509 CURVE",
"1053 507 OFFCURVE",
"1049 505 OFFCURVE",
"1046 504 CURVE",
"1043 502 OFFCURVE",
"1039 500 OFFCURVE",
"1036 499 CURVE",
"1029 496 OFFCURVE",
"1023 494 OFFCURVE",
"1017 492 CURVE",
"1022 521 OFFCURVE",
"1025 548 OFFCURVE",
"1025 575 CURVE SMOOTH",
"1025 628 OFFCURVE",
"997 660 OFFCURVE",
"957 688 CURVE",
"936 701 OFFCURVE",
"923 713 OFFCURVE",
"916 722 CURVE",
"819 722 OFFCURVE",
"765 662 OFFCURVE",
"765 587 CURVE SMOOTH",
"765 511 OFFCURVE",
"813 442 OFFCURVE",
"892 418 CURVE",
"861 337 OFFCURVE",
"823 261 OFFCURVE",
"776 189 CURVE SMOOTH",
"729 118 OFFCURVE",
"663 45 OFFCURVE",
"619 38 CURVE",
"615 38 LINE SMOOTH",
"589 38 OFFCURVE",
"576 75 OFFCURVE",
"576 149 CURVE SMOOTH",
"576 156 OFFCURVE",
"576 162 OFFCURVE",
"576 169 CURVE",
"577 192 LINE"
);
},
{
closed = 1;
nodes = (
"863 617 OFFCURVE",
"881 650 OFFCURVE",
"909 650 CURVE SMOOTH",
"926 650 OFFCURVE",
"935 634 OFFCURVE",
"935 602 CURVE SMOOTH",
"935 570 OFFCURVE",
"929 533 OFFCURVE",
"916 490 CURVE",
"881 506 OFFCURVE",
"863 539 OFFCURVE",
"863 589 CURVE SMOOTH"
);
}
);
width = 982;
}
);
note = W;
unicode = 0057;
},
{
glyphname = X;
lastChange = "2016-07-15 07:31:59 +0000";
layers = (
{
layerId = "90775AEC-CE2A-409D-8CDA-B893D340B5FD";
paths = (
{
closed = 1;
nodes = (
"132 491 OFFCURVE",
"140 487 OFFCURVE",
"146 479 CURVE",
"151 470 OFFCURVE",
"158 456 OFFCURVE",
"166 437 CURVE SMOOTH",
"259 211 LINE",
"236 182 OFFCURVE",
"209 150 OFFCURVE",
"180 115 CURVE SMOOTH",
"120 44 OFFCURVE",
"62 10 OFFCURVE",
"-21 10 CURVE SMOOTH",
"-44 10 OFFCURVE",
"-58 -14 OFFCURVE",
"-58 -42 CURVE SMOOTH",
"-58 -71 OFFCURVE",
"-44 -97 OFFCURVE",
"-8 -97 CURVE SMOOTH",
"28 -97 OFFCURVE",
"50 -94 OFFCURVE",
"89 -74 CURVE SMOOTH",
"124 -57 OFFCURVE",
"169 -13 OFFCURVE",
"224 58 CURVE SMOOTH",
"248 89 OFFCURVE",
"270 116 OFFCURVE",
"289 140 CURVE",
"343 9 LINE SMOOTH",
"372 -60 OFFCURVE",
"406 -95 OFFCURVE",
"445 -95 CURVE SMOOTH",
"476 -95 OFFCURVE",
"515 -71 OFFCURVE",
"564 -24 CURVE SMOOTH",
"674 83 LINE SMOOTH",
"679 88 OFFCURVE",
"681 95 OFFCURVE",
"681 103 CURVE SMOOTH",
"681 118 OFFCURVE",
"662 135 OFFCURVE",
"652 135 CURVE SMOOTH",
"647 135 OFFCURVE",
"643 134 OFFCURVE",
"641 132 CURVE",
"531 30 LINE",
"518 17 OFFCURVE",
"507 11 OFFCURVE",
"498 11 CURVE SMOOTH",
"489 11 OFFCURVE",
"481 15 OFFCURVE",
"474 22 CURVE",
"461 37 OFFCURVE",
"457 48 OFFCURVE",
"445 77 CURVE",
"380 254 LINE",
"463 355 OFFCURVE",
"534 436 OFFCURVE",
"594 498 CURVE SMOOTH",
"622 526 OFFCURVE",
"636 551 OFFCURVE",
"636 574 CURVE SMOOTH",
"636 597 OFFCURVE",
"619 610 OFFCURVE",
"598 610 CURVE SMOOTH",
"578 610 OFFCURVE",
"561 601 OFFCURVE",
"546 584 CURVE",
"489 506 OFFCURVE",
"425 421 OFFCURVE",
"352 328 CURVE",
"295 484 LINE SMOOTH",
"271 547 OFFCURVE",
"230 578 OFFCURVE",
"171 578 CURVE SMOOTH",
"112 578 OFFCURVE",
"47 541 OFFCURVE",
"-26 466 CURVE SMOOTH",
"-34 458 OFFCURVE",
"-38 449 OFFCURVE",
"-38 440 CURVE SMOOTH",
"-38 421 OFFCURVE",
"-21 406 OFFCURVE",
"-7 406 CURVE SMOOTH",
"0 406 OFFCURVE",
"5 408 OFFCURVE",
"10 413 CURVE SMOOTH",
"65 465 OFFCURVE",
"102 491 OFFCURVE",
"123 491 CURVE SMOOTH"
);
}
);
width = 589;
}
);
note = X;
unicode = 0058;
},
{
glyphname = Y;
lastChange = "2016-07-15 07:31:59 +0000";
layers = (
{
layerId = "90775AEC-CE2A-409D-8CDA-B893D340B5FD";
paths = (
{
closed = 1;
nodes = (
"623 552 OFFCURVE",
"625 564 OFFCURVE",
"625 575 CURVE SMOOTH",
"625 598 OFFCURVE",
"609 609 OFFCURVE",
"577 609 CURVE SMOOTH",
"554 609 OFFCURVE",
"539 593 OFFCURVE",
"531 560 CURVE SMOOTH",
"442 210 LINE",
"386 141 OFFCURVE",
"316 95 OFFCURVE",
"264 95 CURVE SMOOTH",
"211 95 OFFCURVE",
"178 135 OFFCURVE",
"178 222 CURVE SMOOTH",
"178 309 OFFCURVE",
"210 432 OFFCURVE",
"275 589 CURVE",
"276 592 OFFCURVE",
"277 595 OFFCURVE",
"277 599 CURVE SMOOTH",
"277 613 OFFCURVE",
"265 620 OFFCURVE",
"240 620 CURVE SMOOTH",
"215 620 OFFCURVE",
"194 607 OFFCURVE",
"179 582 CURVE SMOOTH",
"108 457 OFFCURVE",
"72 343 OFFCURVE",
"72 240 CURVE SMOOTH",
"72 105 OFFCURVE",
"137 21 OFFCURVE",
"245 21 CURVE SMOOTH",
"299 21 OFFCURVE",
"357 48 OFFCURVE",
"420 102 CURVE",
"409 60 LINE",
"266 -71 OFFCURVE",
"168 -193 OFFCURVE",
"168 -274 CURVE SMOOTH",
"168 -314 OFFCURVE",
"195 -345 OFFCURVE",
"242 -345 CURVE SMOOTH",
"265 -345 OFFCURVE",
"287 -339 OFFCURVE",
"308 -328 CURVE SMOOTH",
"348 -306 OFFCURVE",
"379 -270 OFFCURVE",
"410 -202 CURVE SMOOTH",
"436 -144 OFFCURVE",
"464 -60 OFFCURVE",
"493 49 CURVE",
"571 118 OFFCURVE",
"645 178 OFFCURVE",
"716 228 CURVE SMOOTH",
"722 232 OFFCURVE",
"725 239 OFFCURVE",
"725 248 CURVE SMOOTH",
"725 266 OFFCURVE",
"711 285 OFFCURVE",
"700 285 CURVE SMOOTH",
"694 285 OFFCURVE",
"688 283 OFFCURVE",
"683 280 CURVE",
"636 249 OFFCURVE",
"583 208 OFFCURVE",
"522 158 CURVE",
"587 411 OFFCURVE",
"620 537 OFFCURVE",
"620 537 CURVE"
);
},
{
closed = 1;
nodes = (
"254 -265 OFFCURVE",
"250 -257 OFFCURVE",
"250 -241 CURVE SMOOTH",
"250 -211 OFFCURVE",
"289 -155 OFFCURVE",
"366 -74 CURVE",
"337 -153 OFFCURVE",
"310 -209 OFFCURVE",
"285 -244 CURVE SMOOTH",
"275 -258 OFFCURVE",
"267 -265 OFFCURVE",
"262 -265 CURVE SMOOTH"
);
}
);
width = 589;
}
);
note = Y;
unicode = 0059;
},
{
glyphname = Z;
lastChange = "2016-07-15 07:31:59 +0000";
layers = (
{
layerId = "90775AEC-CE2A-409D-8CDA-B893D340B5FD";
paths = (
{
closed = 1;
nodes = (
"780 56 OFFCURVE",
"765 72 OFFCURVE",
"745 72 CURVE SMOOTH",
"734 72 OFFCURVE",
"723 68 OFFCURVE",
"711 61 CURVE",
"662 24 OFFCURVE",
"616 5 OFFCURVE",
"573 5 CURVE SMOOTH",
"524 5 OFFCURVE",
"479 28 OFFCURVE",
"408 75 CURVE SMOOTH",
"372 98 OFFCURVE",
"341 116 OFFCURVE",
"316 129 CURVE",
"317 130 OFFCURVE",
"344 161 OFFCURVE",
"397 223 CURVE SMOOTH",
"519 365 OFFCURVE",
"618 465 OFFCURVE",
"695 523 CURVE",
"762 524 OFFCURVE",
"810 528 OFFCURVE",
"810 576 CURVE SMOOTH",
"810 590 OFFCURVE",
"806 601 OFFCURVE",
"798 608 CURVE SMOOTH",
"782 623 OFFCURVE",
"770 623 OFFCURVE",
"737 627 CURVE",
"702 628 OFFCURVE",
"639 632 OFFCURVE",
"548 638 CURVE SMOOTH",
"456 644 OFFCURVE",
"390 647 OFFCURVE",
"351 647 CURVE SMOOTH",
"312 647 OFFCURVE",
"282 646 OFFCURVE",
"261 644 CURVE SMOOTH",
"220 640 OFFCURVE",
"167 625 OFFCURVE",
"132 598 CURVE SMOOTH",
"91 567 OFFCURVE",
"61 519 OFFCURVE",
"41 454 CURVE",
"40 447 OFFCURVE",
"39 443 OFFCURVE",
"39 441 CURVE SMOOTH",
"39 424 OFFCURVE",
"49 415 OFFCURVE",
"69 415 CURVE SMOOTH",
"88 415 OFFCURVE",
"101 421 OFFCURVE",
"106 432 CURVE",
"122 460 OFFCURVE",
"153 483 OFFCURVE",
"198 500 CURVE SMOOTH",
"243 517 OFFCURVE",
"316 525 OFFCURVE",
"418 525 CURVE SMOOTH",
"434 525 OFFCURVE",
"460 525 OFFCURVE",
"497 524 CURVE SMOOTH",
"533 523 OFFCURVE",
"558 522 OFFCURVE",
"573 522 CURVE",
"561 514 LINE SMOOTH",
"525 490 OFFCURVE",
"485 458 OFFCURVE",
"440 418 CURVE SMOOTH",
"350 337 OFFCURVE",
"293 274 OFFCURVE",
"231 207 CURVE SMOOTH",
"200 174 OFFCURVE",
"182 155 OFFCURVE",
"178 151 CURVE SMOOTH",
"113 87 OFFCURVE",
"80 44 OFFCURVE",
"80 23 CURVE SMOOTH",
"80 2 OFFCURVE",
"106 -14 OFFCURVE",
"126 -14 CURVE SMOOTH",
"135 -14 OFFCURVE",
"142 -12 OFFCURVE",
"147 -9 CURVE",
"151 -6 OFFCURVE",
"166 4 OFFCURVE",
"192 23 CURVE SMOOTH",
"217 41 OFFCURVE",
"236 54 OFFCURVE",
"249 63 CURVE",
"266 55 OFFCURVE",
"298 37 OFFCURVE",
"345 9 CURVE SMOOTH",
"439 -47 OFFCURVE",
"503 -75 OFFCURVE",
"578 -75 CURVE SMOOTH",
"634 -75 OFFCURVE",
"690 -57 OFFCURVE",
"745 -21 CURVE",
"768 -4 OFFCURVE",
"780 14 OFFCURVE",
"780 32 CURVE SMOOTH"
);
}
);
width = 631;
}
);
note = Z;
unicode = 005A;
},
{
color = 3;
glyphname = a;
lastChange = "2016-07-15 14:37:52 +0000";
layers = (
{
background = {
paths = (
{
closed = 1;
nodes = (
"695 -5 OFFCURVE",
"735 27 OFFCURVE",
"748 77 CURVE",
"780 275 LINE",
"790 282 OFFCURVE",
"792 291 OFFCURVE",
"792 303 CURVE SMOOTH",
"792 323 OFFCURVE",
"782 336 OFFCURVE",
"754 336 CURVE SMOOTH",
"623 336 OFFCURVE",
"520 260 OFFCURVE",
"520 125 CURVE SMOOTH",
"520 53 OFFCURVE",
"568 -5 OFFCURVE",
"645 -5 CURVE SMOOTH"
);
},
{
closed = 1;
nodes = (
"627 68 OFFCURVE",
"608 94 OFFCURVE",
"608 131 CURVE SMOOTH",
"608 215 OFFCURVE",
"664 266 OFFCURVE",
"757 266 CURVE",
"747 208 LINE SMOOTH",
"728 99 OFFCURVE",
"697 68 OFFCURVE",
"658 68 CURVE SMOOTH"
);
},
{
closed = 1;
nodes = (
"873 -5 OFFCURVE",
"909 22 OFFCURVE",
"951 85 CURVE SMOOTH",
"961 100 OFFCURVE",
"964 119 OFFCURVE",
"951 132 CURVE SMOOTH",
"940 143 OFFCURVE",
"926 145 OFFCURVE",
"917 132 CURVE SMOOTH",
"891 95 OFFCURVE",
"869 69 OFFCURVE",
"844 69 CURVE SMOOTH",
"831 69 OFFCURVE",
"820 78 OFFCURVE",
"820 105 CURVE SMOOTH",
"820 134 OFFCURVE",
"834 204 OFFCURVE",
"855 270 CURVE SMOOTH",
"863 295 OFFCURVE",
"845 307 OFFCURVE",
"819 307 CURVE SMOOTH",
"792 307 OFFCURVE",
"777 296 OFFCURVE",
"771 278 CURVE SMOOTH",
"745 201 OFFCURVE",
"733 128 OFFCURVE",
"734 89 CURVE SMOOTH",
"736 23 OFFCURVE",
"771 -5 OFFCURVE",
"823 -5 CURVE SMOOTH"
);
},
{
closed = 1;
nodes = (
"195 -5 OFFCURVE",
"235 31 OFFCURVE",
"248 81 CURVE",
"280 275 LINE",
"290 282 OFFCURVE",
"292 291 OFFCURVE",
"292 303 CURVE SMOOTH",
"292 323 OFFCURVE",
"282 336 OFFCURVE",
"254 336 CURVE SMOOTH",
"123 336 OFFCURVE",
"20 258 OFFCURVE",
"20 123 CURVE SMOOTH",
"20 49 OFFCURVE",
"68 -5 OFFCURVE",
"145 -5 CURVE SMOOTH"
);
},
{
closed = 1;
nodes = (
"127 66 OFFCURVE",
"108 94 OFFCURVE",
"108 131 CURVE SMOOTH",
"108 213 OFFCURVE",
"163 270 OFFCURVE",
"257 265 CURVE",
"247 208 LINE SMOOTH",
"228 99 OFFCURVE",
"197 66 OFFCURVE",
"158 66 CURVE SMOOTH"
);
},
{
closed = 1;
nodes = (
"373 -5 OFFCURVE",
"409 22 OFFCURVE",
"451 85 CURVE SMOOTH",
"461 100 OFFCURVE",
"464 119 OFFCURVE",
"451 132 CURVE SMOOTH",
"440 143 OFFCURVE",
"426 145 OFFCURVE",
"417 132 CURVE SMOOTH",
"391 95 OFFCURVE",
"369 69 OFFCURVE",
"344 69 CURVE SMOOTH",
"331 69 OFFCURVE",
"320 78 OFFCURVE",
"320 105 CURVE SMOOTH",
"320 134 OFFCURVE",
"334 204 OFFCURVE",
"355 270 CURVE SMOOTH",
"363 295 OFFCURVE",
"345 307 OFFCURVE",
"319 307 CURVE SMOOTH",
"292 307 OFFCURVE",
"277 296 OFFCURVE",
"271 278 CURVE SMOOTH",
"245 201 OFFCURVE",
"233 128 OFFCURVE",
"234 89 CURVE SMOOTH",
"236 23 OFFCURVE",
"271 -5 OFFCURVE",
"323 -5 CURVE SMOOTH"
);
}
);
};
layerId = "90775AEC-CE2A-409D-8CDA-B893D340B5FD";
paths = (
{
closed = 1;
nodes = (
"195 -5 OFFCURVE",
"235 31 OFFCURVE",
"248 81 CURVE",
"280 275 LINE",
"290 282 OFFCURVE",
"292 291 OFFCURVE",
"292 303 CURVE SMOOTH",
"292 323 OFFCURVE",
"282 336 OFFCURVE",
"254 336 CURVE SMOOTH",
"127 336 OFFCURVE",
"24 258 OFFCURVE",
"24 123 CURVE SMOOTH",
"24 49 OFFCURVE",
"72 -5 OFFCURVE",
"147 -5 CURVE SMOOTH"
);
},
{
closed = 1;
nodes = (
"131 66 OFFCURVE",
"112 94 OFFCURVE",
"112 131 CURVE SMOOTH",
"112 213 OFFCURVE",
"167 270 OFFCURVE",
"257 265 CURVE",
"247 208 LINE SMOOTH",
"228 99 OFFCURVE",
"197 66 OFFCURVE",
"160 66 CURVE SMOOTH"
);
},
{
closed = 1;
nodes = (
"373 -5 OFFCURVE",
"409 22 OFFCURVE",
"451 85 CURVE SMOOTH",
"461 100 OFFCURVE",
"464 119 OFFCURVE",
"451 132 CURVE SMOOTH",
"440 143 OFFCURVE",
"426 145 OFFCURVE",
"417 132 CURVE SMOOTH",
"391 95 OFFCURVE",
"369 69 OFFCURVE",
"344 69 CURVE SMOOTH",
"331 69 OFFCURVE",
"320 78 OFFCURVE",
"320 105 CURVE SMOOTH",
"320 134 OFFCURVE",
"334 204 OFFCURVE",
"355 270 CURVE SMOOTH",
"363 295 OFFCURVE",
"345 307 OFFCURVE",
"319 307 CURVE SMOOTH",
"292 307 OFFCURVE",
"277 296 OFFCURVE",
"271 278 CURVE SMOOTH",
"245 201 OFFCURVE",
"233 128 OFFCURVE",
"234 89 CURVE SMOOTH",
"236 23 OFFCURVE",
"271 -5 OFFCURVE",
"323 -5 CURVE SMOOTH"
);
}
);
width = 390;
}
);
note = a;
unicode = 0061;
},
{
glyphname = aacute;
lastChange = "2016-07-15 07:55:41 +0000";
layers = (
{
background = {
paths = (
{
closed = 1;
nodes = (
"380 -6 OFFCURVE",
"416 40 OFFCURVE",
"442 78 CURVE",
"451 92 OFFCURVE",
"452 112 OFFCURVE",
"442 125 CURVE",
"434 137 OFFCURVE",
"417 138 OFFCURVE",
"409 125 CURVE",
"401 113 OFFCURVE",
"392 99 OFFCURVE",
"381 88 CURVE",
"387 94 OFFCURVE",
"380 87 OFFCURVE",
"378 85 CURVE",
"376 83 OFFCURVE",
"373 80 OFFCURVE",
"371 78 CURVE",
"366 74 OFFCURVE",
"361 70 OFFCURVE",
"355 67 CURVE",
"357 68 OFFCURVE",
"359 69 OFFCURVE",
"361 70 CURVE",
"353 66 OFFCURVE",
"344 62 OFFCURVE",
"336 61 CURVE",
"338 61 OFFCURVE",
"340 61 OFFCURVE",
"342 62 CURVE",
"338 61 OFFCURVE",
"334 61 OFFCURVE",
"330 61 CURVE",
"314 60 OFFCURVE",
"307 40 OFFCURVE",
"307 27 CURVE",
"307 13 OFFCURVE",
"314 -7 OFFCURVE",
"330 -6 CURVE"
);
},
{
closed = 1;
nodes = (
"149 59 OFFCURVE",
"148 59 OFFCURVE",
"147 59 CURVE",
"151 59 OFFCURVE",
"155 59 OFFCURVE",
"158 57 CURVE",
"152 59 OFFCURVE",
"146 59 OFFCURVE",
"140 61 CURVE",
"144 60 OFFCURVE",
"147 59 OFFCURVE",
"150 57 CURVE",
"144 60 OFFCURVE",
"138 62 OFFCURVE",
"132 65 CURVE",
"135 63 OFFCURVE",
"138 62 OFFCURVE",
"141 61 CURVE",
"135 64 OFFCURVE",
"130 67 OFFCURVE",
"124 72 CURVE",
"126 70 OFFCURVE",
"129 68 OFFCURVE",
"131 66 CURVE",
"124 72 OFFCURVE",
"118 80 OFFCURVE",
"114 88 CURVE",
"116 85 OFFCURVE",
"117 83 OFFCURVE",
"118 80 CURVE",
"112 93 OFFCURVE",
"109 108 OFFCURVE",
"108 122 CURVE",
"108 119 OFFCURVE",
"108 116 OFFCURVE",
"108 114 CURVE",
"107 133 OFFCURVE",
"109 154 OFFCURVE",
"115 174 CURVE",
"114 171 OFFCURVE",
"113 168 OFFCURVE",
"112 165 CURVE",
"117 182 OFFCURVE",
"124 198 OFFCURVE",
"134 212 CURVE",
"133 210 OFFCURVE",
"131 207 OFFCURVE",
"129 205 CURVE",
"136 216 OFFCURVE",
"145 225 OFFCURVE",
"154 235 CURVE",
"152 233 OFFCURVE",
"149 230 OFFCURVE",
"147 227 CURVE",
"155 236 OFFCURVE",
"164 243 OFFCURVE",
"174 249 CURVE",
"170 247 OFFCURVE",
"167 245 OFFCURVE",
"164 243 CURVE",
"175 249 OFFCURVE",
"185 254 OFFCURVE",
"195 258 CURVE",
"192 257 OFFCURVE",
"188 255 OFFCURVE",
"184 254 CURVE",
"196 258 OFFCURVE",
"208 261 OFFCURVE",
"221 263 CURVE",
"217 263 OFFCURVE",
"212 262 OFFCURVE",
"209 261 CURVE",
"223 264 OFFCURVE",
"237 265 OFFCURVE",
"251 265 CURVE",
"270 265 OFFCURVE",
"296 280 OFFCURVE",
"298 300 CURVE",
"299 309 OFFCURVE",
"295 317 OFFCURVE",
"288 323 CURVE",
"279 329 OFFCURVE",
"269 330 OFFCURVE",
"259 330 CURVE",
"202 330 OFFCURVE",
"145 313 OFFCURVE",
"101 279 CURVE",
"80 263 OFFCURVE",
"65 244 OFFCURVE",
"51 223 CURVE",
"39 206 OFFCURVE",
"32 186 OFFCURVE",
"27 166 CURVE",
"23 153 OFFCURVE",
"21 138 OFFCURVE",
"20 125 CURVE",
"20 105 OFFCURVE",
"21 83 OFFCURVE",
"29 64 CURVE",
"36 44 OFFCURVE",
"49 26 OFFCURVE",
"67 13 CURVE",
"90 -2 OFFCURVE",
"116 -6 OFFCURVE",
"143 -6 CURVE",
"162 -7 OFFCURVE",
"188 8 OFFCURVE",
"190 29 CURVE",
"191 38 OFFCURVE",
"187 46 OFFCURVE",
"180 51 CURVE",
"170 57 OFFCURVE",
"160 59 OFFCURVE",
"150 59 CURVE"
);
},
{
closed = 1;
nodes = (
"333 59 OFFCURVE",
"332 59 OFFCURVE",
"332 59 CURVE",
"336 59 OFFCURVE",
"339 57 OFFCURVE",
"343 57 CURVE",
"339 59 OFFCURVE",
"334 59 OFFCURVE",
"330 60 CURVE",
"334 59 OFFCURVE",
"337 57 OFFCURVE",
"340 57 CURVE",
"337 59 OFFCURVE",
"333 60 OFFCURVE",
"330 61 CURVE",
"333 60 OFFCURVE",
"336 57 OFFCURVE",
"339 56 CURVE",
"335 59 OFFCURVE",
"331 62 OFFCURVE",
"328 65 CURVE",
"330 63 OFFCURVE",
"332 61 OFFCURVE",
"334 59 CURVE",
"330 63 OFFCURVE",
"327 68 OFFCURVE",
"324 73 CURVE",
"325 70 OFFCURVE",
"326 68 OFFCURVE",
"328 65 CURVE",
"323 74 OFFCURVE",
"321 83 OFFCURVE",
"321 93 CURVE",
"321 90 OFFCURVE",
"321 87 OFFCURVE",
"321 84 CURVE",
"320 108 OFFCURVE",
"322 131 OFFCURVE",
"325 155 CURVE",
"329 179 OFFCURVE",
"334 204 OFFCURVE",
"341 228 CURVE",
"340 225 OFFCURVE",
"340 223 OFFCURVE",
"339 220 CURVE",
"344 237 OFFCURVE",
"350 253 OFFCURVE",
"355 269 CURVE",
"358 278 OFFCURVE",
"359 286 OFFCURVE",
"353 294 CURVE",
"348 301 OFFCURVE",
"337 305 OFFCURVE",
"328 306 CURVE",
"317 308 OFFCURVE",
"305 305 OFFCURVE",
"294 300 CURVE",
"286 296 OFFCURVE",
"275 289 OFFCURVE",
"272 280 CURVE",
"253 225 OFFCURVE",
"237 170 OFFCURVE",
"234 113 CURVE",
"233 97 OFFCURVE",
"233 83 OFFCURVE",
"234 68 CURVE",
"235 55 OFFCURVE",
"240 43 OFFCURVE",
"246 32 CURVE",
"251 22 OFFCURVE",
"261 12 OFFCURVE",
"271 7 CURVE",
"288 -3 OFFCURVE",
"307 -6 OFFCURVE",
"326 -6 CURVE",
"346 -7 OFFCURVE",
"371 8 OFFCURVE",
"374 29 CURVE",
"375 38 OFFCURVE",
"370 46 OFFCURVE",
"363 51 CURVE",
"354 57 OFFCURVE",
"344 59 OFFCURVE",
"333 59 CURVE"
);
},
{
closed = 1;
nodes = (
"253 248 OFFCURVE",
"251 233 OFFCURVE",
"248 217 CURVE",
"248 216 OFFCURVE",
"247 210 OFFCURVE",
"248 218 CURVE",
"248 216 OFFCURVE",
"248 215 OFFCURVE",
"247 213 CURVE",
"247 210 OFFCURVE",
"246 207 OFFCURVE",
"245 204 CURVE",
"244 197 OFFCURVE",
"243 191 OFFCURVE",
"241 183 CURVE",
"239 172 OFFCURVE",
"236 162 OFFCURVE",
"233 151 CURVE",
"231 146 OFFCURVE",
"230 141 OFFCURVE",
"228 136 CURVE",
"228 134 OFFCURVE",
"225 126 OFFCURVE",
"228 134 CURVE",
"227 132 OFFCURVE",
"226 130 OFFCURVE",
"225 127 CURVE",
"222 120 OFFCURVE",
"219 112 OFFCURVE",
"216 105 CURVE",
"213 102 OFFCURVE",
"211 98 OFFCURVE",
"210 95 CURVE",
"208 92 OFFCURVE",
"213 100 OFFCURVE",
"211 97 CURVE",
"210 96 OFFCURVE",
"210 95 OFFCURVE",
"210 95 CURVE",
"209 93 OFFCURVE",
"208 92 OFFCURVE",
"207 90 CURVE",
"203 85 OFFCURVE",
"200 80 OFFCURVE",
"196 76 CURVE",
"195 75 OFFCURVE",
"194 74 OFFCURVE",
"193 73 CURVE",
"190 71 OFFCURVE",
"197 77 OFFCURVE",
"193 74 CURVE",
"191 72 OFFCURVE",
"189 70 OFFCURVE",
"187 69 CURVE",
"181 65 OFFCURVE",
"175 61 OFFCURVE",
"167 59 CURVE",
"168 60 OFFCURVE",
"169 60 OFFCURVE",
"170 60 CURVE",
"163 57 OFFCURVE",
"155 56 OFFCURVE",
"146 56 CURVE",
"142 56 OFFCURVE",
"139 51 OFFCURVE",
"137 47 CURVE",
"134 41 OFFCURVE",
"133 33 OFFCURVE",
"133 26 CURVE",
"133 19 OFFCURVE",
"134 10 OFFCURVE",
"137 4 CURVE",
"139 0 OFFCURVE",
"142 -5 OFFCURVE",
"146 -5 CURVE",
"166 -5 OFFCURVE",
"187 1 OFFCURVE",
"202 16 CURVE",
"227 38 OFFCURVE",
"240 71 OFFCURVE",
"250 102 CURVE",
"267 149 OFFCURVE",
"275 199 OFFCURVE",
"283 247 CURVE",
"284 255 OFFCURVE",
"283 263 OFFCURVE",
"281 270 CURVE",
"280 276 OFFCURVE",
"278 282 OFFCURVE",
"273 285 CURVE",
"262 292 OFFCURVE",
"256 269 OFFCURVE",
"256 263 CURVE"
);
}
);
};
components = (
{
name = acute;
transform = "{1, 0, 0, 1, 146, 0}";
},
{
name = a;
}
);
layerId = "90775AEC-CE2A-409D-8CDA-B893D340B5FD";
width = 360;
}
);
note = aacute;
unicode = 00E1;
},
{
glyphname = ae;
lastChange = "2016-07-15 07:31:59 +0000";
layers = (
{
layerId = "90775AEC-CE2A-409D-8CDA-B893D340B5FD";
paths = (
{
closed = 1;
nodes = (
"415 196 OFFCURVE",
"347 168 OFFCURVE",
"312 168 CURVE SMOOTH",
"308 168 LINE",
"319 208 OFFCURVE",
"359 251 OFFCURVE",
"395 251 CURVE SMOOTH",
"412 251 OFFCURVE",
"421 244 OFFCURVE",
"421 230 CURVE",
"420 223 LINE"
);
},
{
closed = 1;
nodes = (
"119 81 OFFCURVE",
"107 93 OFFCURVE",
"107 118 CURVE SMOOTH",
"107 179 OFFCURVE",
"180 261 OFFCURVE",
"271 261 CURVE",
"245 240 OFFCURVE",
"227 200 OFFCURVE",
"217 141 CURVE SMOOTH",
"213 117 OFFCURVE",
"181 81 OFFCURVE",
"144 81 CURVE SMOOTH"
);
},
{
closed = 1;
nodes = (
"157 -5 OFFCURVE",
"195 21 OFFCURVE",
"223 73 CURVE",
"243 21 OFFCURVE",
"298 -6 OFFCURVE",
"366 -6 CURVE SMOOTH",
"433 -6 OFFCURVE",
"520 38 OFFCURVE",
"555 86 CURVE SMOOTH",
"561 94 OFFCURVE",
"564 102 OFFCURVE",
"564 110 CURVE SMOOTH",
"564 125 OFFCURVE",
"549 138 OFFCURVE",
"535 138 CURVE SMOOTH",
"528 138 OFFCURVE",
"521 136 OFFCURVE",
"516 132 CURVE",
"480 96 OFFCURVE",
"419 74 OFFCURVE",
"372 74 CURVE SMOOTH",
"369 74 LINE SMOOTH",
"331 74 OFFCURVE",
"309 89 OFFCURVE",
"302 120 CURVE",
"318 120 LINE SMOOTH",
"433 120 OFFCURVE",
"490 160 OFFCURVE",
"490 239 CURVE SMOOTH",
"490 295 OFFCURVE",
"448 329 OFFCURVE",
"398 329 CURVE SMOOTH",
"373 329 OFFCURVE",
"351 324 OFFCURVE",
"332 315 CURVE",
"330 330 OFFCURVE",
"318 337 OFFCURVE",
"296 337 CURVE SMOOTH",
"225 337 OFFCURVE",
"161 319 OFFCURVE",
"102 284 CURVE SMOOTH",
"45 248 OFFCURVE",
"5 179 OFFCURVE",
"5 114 CURVE SMOOTH",
"5 49 OFFCURVE",
"32 1 OFFCURVE",
"93 -4 CURVE SMOOTH",
"109 -5 LINE"
);
}
);
width = 491;
}
);
note = ae;
unicode = 00E6;
},
{
color = 3;
glyphname = b;
lastChange = "2016-07-15 15:01:43 +0000";
layers = (
{
background = {
paths = (
{
closed = 1;
nodes = (
"254 -5 OFFCURVE",
"348 74 OFFCURVE",
"348 202 CURVE SMOOTH",
"348 282 OFFCURVE",
"314 332 OFFCURVE",
"257 332 CURVE SMOOTH",
"181 332 OFFCURVE",
"116 225 OFFCURVE",
"109 162 CURVE",
"83 47 LINE",
"101 56 LINE",
"109 91 LINE SMOOTH",
"126 167 OFFCURVE",
"183 259 OFFCURVE",
"230 259 CURVE SMOOTH",
"248 259 OFFCURVE",
"260 241 OFFCURVE",
"260 199 CURVE SMOOTH",
"260 104 OFFCURVE",
"203 60 OFFCURVE",
"147 61 CURVE SMOOTH",
"83 62 OFFCURVE",
"71 106 OFFCURVE",
"54 106 CURVE",
"16 73 LINE",
"4 18 OFFCURVE",
"82 -5 OFFCURVE",
"144 -5 CURVE SMOOTH"
);
},
{
closed = 1;
nodes = (
"383 -5 OFFCURVE",
"419 22 OFFCURVE",
"461 85 CURVE SMOOTH",
"471 100 OFFCURVE",
"474 119 OFFCURVE",
"461 132 CURVE SMOOTH",
"450 143 OFFCURVE",
"436 145 OFFCURVE",
"427 132 CURVE SMOOTH",
"401 95 OFFCURVE",
"379 69 OFFCURVE",
"343 69 CURVE SMOOTH",
"330 69 OFFCURVE",
"301 72 OFFCURVE",
"280 93 CURVE SMOOTH",
"268 105 OFFCURVE",
"255 93 OFFCURVE",
"249 82 CURVE SMOOTH",
"241 67 OFFCURVE",
"248 49 OFFCURVE",
"257 36 CURVE SMOOTH",
"270 17 OFFCURVE",
"303 -5 OFFCURVE",
"332 -5 CURVE SMOOTH"
);
},
{
closed = 1;
nodes = (
"311 636 OFFCURVE",
"279 666 OFFCURVE",
"233 666 CURVE SMOOTH",
"139 666 OFFCURVE",
"87 572 OFFCURVE",
"62 334 CURVE SMOOTH",
"49 213 OFFCURVE",
"41 152 OFFCURVE",
"16 73 CURVE",
"57 24 LINE",
"78 24 OFFCURVE",
"94 38 OFFCURVE",
"99 59 CURVE SMOOTH",
"114 122 OFFCURVE",
"139 229 OFFCURVE",
"144 288 CURVE SMOOTH",
"163 510 OFFCURVE",
"207 602 OFFCURVE",
"240 602 CURVE SMOOTH",
"248 602 OFFCURVE",
"254 590 OFFCURVE",
"254 575 CURVE SMOOTH",
"254 476 OFFCURVE",
"150 352 OFFCURVE",
"104 306 CURVE SMOOTH",
"94 296 OFFCURVE",
"89 280 OFFCURVE",
"100 268 CURVE SMOOTH",
"110 257 OFFCURVE",
"128 266 OFFCURVE",
"138 276 CURVE SMOOTH",
"223 362 OFFCURVE",
"311 485 OFFCURVE",
"311 583 CURVE SMOOTH"
);
}
);
};
layerId = "90775AEC-CE2A-409D-8CDA-B893D340B5FD";
paths = (
{
closed = 1;
nodes = (
"250 -5 OFFCURVE",
"344 72 OFFCURVE",
"344 215 CURVE SMOOTH",
"344 282 OFFCURVE",
"315 330 OFFCURVE",
"257 330 CURVE SMOOTH",
"181 330 OFFCURVE",
"116 225 OFFCURVE",
"109 162 CURVE",
"83 47 LINE",
"101 56 LINE",
"109 91 LINE SMOOTH",
"126 167 OFFCURVE",
"183 256 OFFCURVE",
"227 256 CURVE SMOOTH",
"242 256 OFFCURVE",
"256 241 OFFCURVE",
"256 199 CURVE SMOOTH",
"256 104 OFFCURVE",
"199 60 OFFCURVE",
"147 61 CURVE SMOOTH",
"83 62 OFFCURVE",
"71 106 OFFCURVE",
"54 106 CURVE",
"16 73 LINE",
"4 18 OFFCURVE",
"82 -5 OFFCURVE",
"144 -5 CURVE SMOOTH"
);
},
{
closed = 1;
nodes = (
"376 -5 OFFCURVE",
"412 22 OFFCURVE",
"454 85 CURVE SMOOTH",
"464 100 OFFCURVE",
"467 119 OFFCURVE",
"454 132 CURVE SMOOTH",
"443 143 OFFCURVE",
"429 145 OFFCURVE",
"420 132 CURVE SMOOTH",
"394 95 OFFCURVE",
"372 69 OFFCURVE",
"336 69 CURVE SMOOTH",
"323 69 OFFCURVE",
"294 72 OFFCURVE",
"273 93 CURVE SMOOTH",
"261 105 OFFCURVE",
"248 93 OFFCURVE",
"242 82 CURVE SMOOTH",
"234 67 OFFCURVE",
"241 49 OFFCURVE",
"250 36 CURVE SMOOTH",
"263 17 OFFCURVE",
"296 -5 OFFCURVE",
"325 -5 CURVE SMOOTH"
);
},
{
closed = 1;
nodes = (
"311 636 OFFCURVE",
"279 666 OFFCURVE",
"233 666 CURVE SMOOTH",
"139 666 OFFCURVE",
"87 572 OFFCURVE",
"62 334 CURVE SMOOTH",
"49 213 OFFCURVE",
"41 152 OFFCURVE",
"16 73 CURVE",
"57 24 LINE",
"78 24 OFFCURVE",
"94 38 OFFCURVE",
"99 59 CURVE SMOOTH",
"114 122 OFFCURVE",
"139 229 OFFCURVE",
"144 288 CURVE SMOOTH",
"163 510 OFFCURVE",
"207 602 OFFCURVE",
"240 602 CURVE SMOOTH",
"248 602 OFFCURVE",
"254 590 OFFCURVE",
"254 575 CURVE SMOOTH",
"254 476 OFFCURVE",
"150 352 OFFCURVE",
"104 306 CURVE SMOOTH",
"94 296 OFFCURVE",
"89 280 OFFCURVE",
"100 268 CURVE SMOOTH",
"110 257 OFFCURVE",
"129 266 OFFCURVE",
"139 276 CURVE SMOOTH",
"224 362 OFFCURVE",
"311 485 OFFCURVE",
"311 583 CURVE SMOOTH"
);
}
);
width = 393;
}
);
note = b;
unicode = 0062;
},
{
color = 3;
glyphname = c;
lastChange = "2016-07-15 13:43:11 +0000";
layers = (
{
background = {
paths = (
{
closed = 1;
nodes = (
"605 -4 OFFCURVE",
"631 10 OFFCURVE",
"633 31 CURVE",
"634 40 OFFCURVE",
"630 48 OFFCURVE",
"623 54 CURVE",
"614 60 OFFCURVE",
"604 61 OFFCURVE",
"593 61 CURVE",
"592 61 OFFCURVE",
"590 61 OFFCURVE",
"589 61 CURVE",
"592 61 OFFCURVE",
"596 60 OFFCURVE",
"600 60 CURVE",
"590 61 OFFCURVE",
"581 62 OFFCURVE",
"571 64 CURVE",
"574 63 OFFCURVE",
"578 62 OFFCURVE",
"581 62 CURVE",
"572 64 OFFCURVE",
"563 67 OFFCURVE",
"555 71 CURVE",
"558 70 OFFCURVE",
"561 68 OFFCURVE",
"563 67 CURVE",
"554 72 OFFCURVE",
"546 78 OFFCURVE",
"538 85 CURVE",
"540 83 OFFCURVE",
"542 81 OFFCURVE",
"544 79 CURVE",
"535 88 OFFCURVE",
"528 98 OFFCURVE",
"522 110 CURVE",
"524 107 OFFCURVE",
"525 104 OFFCURVE",
"526 102 CURVE",
"518 118 OFFCURVE",
"514 136 OFFCURVE",
"513 153 CURVE",
"513 150 OFFCURVE",
"513 148 OFFCURVE",
"514 145 CURVE",
"512 167 OFFCURVE",
"514 189 OFFCURVE",
"520 210 CURVE",
"519 208 OFFCURVE",
"519 205 OFFCURVE",
"518 202 CURVE",
"522 216 OFFCURVE",
"528 228 OFFCURVE",
"535 240 CURVE",
"533 238 OFFCURVE",
"532 235 OFFCURVE",
"530 232 CURVE",
"535 240 OFFCURVE",
"541 248 OFFCURVE",
"548 254 CURVE",
"546 252 OFFCURVE",
"543 250 OFFCURVE",
"541 247 CURVE",
"547 253 OFFCURVE",
"553 258 OFFCURVE",
"560 262 CURVE",
"556 260 OFFCURVE",
"553 258 OFFCURVE",
"550 256 CURVE",
"556 260 OFFCURVE",
"563 263 OFFCURVE",
"570 265 CURVE",
"566 264 OFFCURVE",
"562 263 OFFCURVE",
"558 261 CURVE",
"565 263 OFFCURVE",
"571 265 OFFCURVE",
"577 266 CURVE",
"573 266 OFFCURVE",
"569 265 OFFCURVE",
"565 264 CURVE",
"571 265 OFFCURVE",
"577 266 OFFCURVE",
"584 266 CURVE",
"603 266 OFFCURVE",
"629 280 OFFCURVE",
"631 301 CURVE",
"632 310 OFFCURVE",
"628 319 OFFCURVE",
"621 324 CURVE",
"612 330 OFFCURVE",
"602 331 OFFCURVE",
"591 331 CURVE",
"541 330 OFFCURVE",
"489 304 OFFCURVE",
"460 263 CURVE",
"428 219 OFFCURVE",
"418 161 OFFCURVE",
"429 108 CURVE",
"436 76 OFFCURVE",
"454 47 OFFCURVE",
"479 27 CURVE",
"509 3 OFFCURVE",
"548 -4 OFFCURVE",
"586 -4 CURVE"
);
},
{
closed = 1;
nodes = (
"605 -4 OFFCURVE",
"621 -2 OFFCURVE",
"636 2 CURVE",
"651 5 OFFCURVE",
"664 11 OFFCURVE",
"676 19 CURVE",
"700 33 OFFCURVE",
"719 55 OFFCURVE",
"733 78 CURVE",
"741 92 OFFCURVE",
"742 111 OFFCURVE",
"733 124 CURVE",
"725 136 OFFCURVE",
"709 137 OFFCURVE",
"701 124 CURVE",
"697 119 OFFCURVE",
"694 114 OFFCURVE",
"690 108 CURVE",
"688 106 OFFCURVE",
"686 104 OFFCURVE",
"684 101 CURVE",
"683 100 OFFCURVE",
"683 99 OFFCURVE",
"682 98 CURVE",
"677 93 OFFCURVE",
"685 102 OFFCURVE",
"682 98 CURVE",
"674 89 OFFCURVE",
"664 82 OFFCURVE",
"653 75 CURVE",
"655 76 OFFCURVE",
"657 77 OFFCURVE",
"659 79 CURVE",
"646 71 OFFCURVE",
"631 65 OFFCURVE",
"616 62 CURVE",
"618 63 OFFCURVE",
"620 63 OFFCURVE",
"622 64 CURVE",
"611 62 OFFCURVE",
"600 61 OFFCURVE",
"589 61 CURVE",
"573 61 OFFCURVE",
"566 41 OFFCURVE",
"566 28 CURVE",
"566 15 OFFCURVE",
"573 -4 OFFCURVE",
"589 -4 CURVE"
);
},
{
closed = 1;
nodes = (
"625 159 OFFCURVE",
"647 157 OFFCURVE",
"659 171 CURVE",
"672 186 OFFCURVE",
"684 205 OFFCURVE",
"688 225 CURVE",
"691 245 OFFCURVE",
"688 264 OFFCURVE",
"679 283 CURVE",
"664 316 OFFCURVE",
"626 331 OFFCURVE",
"591 331 CURVE",
"574 331 OFFCURVE",
"559 316 OFFCURVE",
"559 298 CURVE",
"559 280 OFFCURVE",
"574 266 OFFCURVE",
"591 266 CURVE",
"595 266 OFFCURVE",
"599 266 OFFCURVE",
"604 265 CURVE",
"601 265 OFFCURVE",
"598 266 OFFCURVE",
"595 266 CURVE",
"602 265 OFFCURVE",
"608 264 OFFCURVE",
"615 261 CURVE",
"612 262 OFFCURVE",
"609 263 OFFCURVE",
"607 264 CURVE",
"611 262 OFFCURVE",
"615 260 OFFCURVE",
"619 257 CURVE",
"617 259 OFFCURVE",
"615 260 OFFCURVE",
"613 262 CURVE",
"616 259 OFFCURVE",
"620 256 OFFCURVE",
"622 253 CURVE",
"621 255 OFFCURVE",
"619 257 OFFCURVE",
"617 259 CURVE",
"620 255 OFFCURVE",
"623 251 OFFCURVE",
"625 247 CURVE",
"624 249 OFFCURVE",
"622 252 OFFCURVE",
"621 254 CURVE",
"623 250 OFFCURVE",
"624 245 OFFCURVE",
"625 240 CURVE",
"625 243 OFFCURVE",
"624 246 OFFCURVE",
"624 249 CURVE",
"624 244 OFFCURVE",
"625 240 OFFCURVE",
"624 235 CURVE",
"624 238 OFFCURVE",
"625 241 OFFCURVE",
"625 244 CURVE",
"625 239 OFFCURVE",
"623 233 OFFCURVE",
"621 228 CURVE",
"622 231 OFFCURVE",
"623 233 OFFCURVE",
"624 236 CURVE",
"621 228 OFFCURVE",
"616 221 OFFCURVE",
"611 214 CURVE",
"613 217 OFFCURVE",
"615 219 OFFCURVE",
"616 221 CURVE",
"615 219 OFFCURVE",
"614 218 OFFCURVE",
"613 217 CURVE",
"607 210 OFFCURVE",
"603 203 OFFCURVE",
"603 194 CURVE",
"603 185 OFFCURVE",
"607 177 OFFCURVE",
"613 171 CURVE"
);
},
{
closed = 1;
nodes = (
"253 -5 OFFCURVE",
"310 18 OFFCURVE",
"354 85 CURVE SMOOTH",
"364 100 OFFCURVE",
"367 119 OFFCURVE",
"354 132 CURVE SMOOTH",
"343 143 OFFCURVE",
"329 145 OFFCURVE",
"320 132 CURVE SMOOTH",
"284 80 OFFCURVE",
"242 61 OFFCURVE",
"202 61 CURVE SMOOTH",
"137 61 OFFCURVE",
"113 105 OFFCURVE",
"113 159 CURVE SMOOTH",
"113 233 OFFCURVE",
"149 267 OFFCURVE",
"192 267 CURVE SMOOTH",
"214 267 OFFCURVE",
"224 256 OFFCURVE",
"224 243 CURVE SMOOTH",
"224 217 OFFCURVE",
"203 217 OFFCURVE",
"203 193 CURVE SMOOTH",
"203 175 OFFCURVE",
"216 164 OFFCURVE",
"235 164 CURVE SMOOTH",
"262 164 OFFCURVE",
"290 194 OFFCURVE",
"290 246 CURVE SMOOTH",
"290 292 OFFCURVE",
"260 332 OFFCURVE",
"189 332 CURVE SMOOTH",
"89 332 OFFCURVE",
"24 246 OFFCURVE",
"24 152 CURVE SMOOTH",
"24 59 OFFCURVE",
"81 -5 OFFCURVE",
"189 -5 CURVE SMOOTH"
);
}
);
};
layerId = "90775AEC-CE2A-409D-8CDA-B893D340B5FD";
paths = (
{
closed = 1;
nodes = (
"253 -5 OFFCURVE",
"310 18 OFFCURVE",
"354 85 CURVE SMOOTH",
"364 100 OFFCURVE",
"367 119 OFFCURVE",
"354 132 CURVE SMOOTH",
"343 143 OFFCURVE",
"329 145 OFFCURVE",
"320 132 CURVE SMOOTH",
"284 80 OFFCURVE",
"242 62 OFFCURVE",
"202 62 CURVE SMOOTH",
"137 62 OFFCURVE",
"114 106 OFFCURVE",
"114 159 CURVE SMOOTH",
"114 233 OFFCURVE",
"149 267 OFFCURVE",
"192 267 CURVE SMOOTH",
"214 267 OFFCURVE",
"224 256 OFFCURVE",
"224 243 CURVE SMOOTH",
"224 217 OFFCURVE",
"203 217 OFFCURVE",
"203 193 CURVE SMOOTH",
"203 175 OFFCURVE",
"216 164 OFFCURVE",
"235 164 CURVE SMOOTH",
"262 164 OFFCURVE",
"290 194 OFFCURVE",
"290 246 CURVE SMOOTH",
"290 292 OFFCURVE",
"261 332 OFFCURVE",
"190 332 CURVE SMOOTH",
"90 332 OFFCURVE",
"24 250 OFFCURVE",
"24 152 CURVE SMOOTH",
"24 59 OFFCURVE",
"81 -5 OFFCURVE",
"189 -5 CURVE SMOOTH"
);
}
);
width = 293;
}
);
note = c;
unicode = 0063;
},
{
color = 3;
glyphname = d;
lastChange = "2016-07-15 14:59:48 +0000";
layers = (
{
background = {
paths = (
{
closed = 1;
nodes = (
"876 186 LINE",
"844 128 LINE SMOOTH",
"825 94 OFFCURVE",
"795 68 OFFCURVE",
"765 68 CURVE SMOOTH",
"729 68 OFFCURVE",
"708 96 OFFCURVE",
"708 137 CURVE SMOOTH",
"708 210 OFFCURVE",
"750 258 OFFCURVE",
"819 264 CURVE SMOOTH",
"841 266 OFFCURVE",
"850 277 OFFCURVE",
"850 298 CURVE SMOOTH",
"850 315 OFFCURVE",
"839 331 OFFCURVE",
"812 331 CURVE SMOOTH",
"704 331 OFFCURVE",
"620 251 OFFCURVE",
"620 133 CURVE SMOOTH",
"620 45 OFFCURVE",
"674 -5 OFFCURVE",
"748 -5 CURVE SMOOTH",
"795 -5 OFFCURVE",
"834 20 OFFCURVE",
"863 70 CURVE SMOOTH",
"918 166 LINE"
);
},
{
closed = 1;
nodes = (
"1069 144 OFFCURVE",
"1054 145 OFFCURVE",
"1044 131 CURVE SMOOTH",
"1018 94 OFFCURVE",
"995 69 OFFCURVE",
"971 69 CURVE SMOOTH",
"948 69 OFFCURVE",
"922 114 OFFCURVE",
"922 211 CURVE SMOOTH",
"922 431 OFFCURVE",
"987 602 OFFCURVE",
"1017 602 CURVE SMOOTH",
"1025 602 OFFCURVE",
"1031 594 OFFCURVE",
"1031 575 CURVE SMOOTH",
"1031 488 OFFCURVE",
"971 358 OFFCURVE",
"877 188 CURVE",
"921 167 LINE",
"1018 337 OFFCURVE",
"1088 481 OFFCURVE",
"1088 580 CURVE SMOOTH",
"1088 630 OFFCURVE",
"1068 666 OFFCURVE",
"1018 666 CURVE SMOOTH",
"879 666 OFFCURVE",
"833 375 OFFCURVE",
"833 202 CURVE SMOOTH",
"833 58 OFFCURVE",
"885 -5 OFFCURVE",
"958 -5 CURVE SMOOTH",
"999 -5 OFFCURVE",
"1035 22 OFFCURVE",
"1077 85 CURVE SMOOTH",
"1087 100 OFFCURVE",
"1090 119 OFFCURVE",
"1078 133 CURVE SMOOTH"
);
},
{
closed = 1;
nodes = (
"276 186 LINE",
"244 128 LINE SMOOTH",
"221 86 OFFCURVE",
"195 67 OFFCURVE",
"170 67 CURVE SMOOTH",
"129 67 OFFCURVE",
"108 100 OFFCURVE",
"108 144 CURVE SMOOTH",
"108 217 OFFCURVE",
"150 265 OFFCURVE",
"236 265 CURVE SMOOTH",
"255 265 OFFCURVE",
"264 277 OFFCURVE",
"264 298 CURVE SMOOTH",
"264 315 OFFCURVE",
"258 331 OFFCURVE",
"243 331 CURVE SMOOTH",
"104 331 OFFCURVE",
"20 251 OFFCURVE",
"20 133 CURVE SMOOTH",
"20 51 OFFCURVE",
"74 -5 OFFCURVE",
"148 -5 CURVE SMOOTH",
"195 -5 OFFCURVE",
"234 20 OFFCURVE",
"263 70 CURVE SMOOTH",
"318 166 LINE"
);
},
{
closed = 1;
nodes = (
"468 143 OFFCURVE",
"454 145 OFFCURVE",
"444 131 CURVE SMOOTH",
"417 95 OFFCURVE",
"395 69 OFFCURVE",
"371 69 CURVE SMOOTH",
"348 69 OFFCURVE",
"322 114 OFFCURVE",
"322 211 CURVE SMOOTH",
"322 431 OFFCURVE",
"387 602 OFFCURVE",
"417 602 CURVE SMOOTH",
"425 602 OFFCURVE",
"431 594 OFFCURVE",
"431 575 CURVE SMOOTH",
"431 488 OFFCURVE",
"371 358 OFFCURVE",
"277 188 CURVE",
"321 167 LINE",
"418 337 OFFCURVE",
"488 481 OFFCURVE",
"488 580 CURVE SMOOTH",
"488 630 OFFCURVE",
"468 666 OFFCURVE",
"418 666 CURVE SMOOTH",
"279 666 OFFCURVE",
"233 375 OFFCURVE",
"233 202 CURVE SMOOTH",
"233 58 OFFCURVE",
"285 -5 OFFCURVE",
"358 -5 CURVE SMOOTH",
"399 -5 OFFCURVE",
"435 22 OFFCURVE",
"477 85 CURVE SMOOTH",
"487 100 OFFCURVE",
"490 119 OFFCURVE",
"478 133 CURVE SMOOTH"
);
}
);
};
guideLines = (
{
angle = 241.0736;
position = "{264, 167}";
},
{
angle = 240.1909;
position = "{290, 118}";
}
);
layerId = "90775AEC-CE2A-409D-8CDA-B893D340B5FD";
paths = (
{
closed = 1;
nodes = (
"276 186 LINE",
"244 128 LINE SMOOTH",
"221 86 OFFCURVE",
"195 67 OFFCURVE",
"172 67 CURVE SMOOTH",
"133 67 OFFCURVE",
"112 100 OFFCURVE",
"112 144 CURVE SMOOTH",
"112 217 OFFCURVE",
"154 265 OFFCURVE",
"236 265 CURVE SMOOTH",
"255 265 OFFCURVE",
"264 277 OFFCURVE",
"264 298 CURVE SMOOTH",
"264 315 OFFCURVE",
"258 331 OFFCURVE",
"243 331 CURVE SMOOTH",
"108 331 OFFCURVE",
"24 251 OFFCURVE",
"24 133 CURVE SMOOTH",
"24 51 OFFCURVE",
"78 -5 OFFCURVE",
"150 -5 CURVE SMOOTH",
"195 -5 OFFCURVE",
"234 20 OFFCURVE",
"263 70 CURVE SMOOTH",
"318 166 LINE"
);
},
{
closed = 1;
nodes = (
"468 143 OFFCURVE",
"454 145 OFFCURVE",
"444 131 CURVE SMOOTH",
"417 95 OFFCURVE",
"395 69 OFFCURVE",
"371 69 CURVE SMOOTH",
"348 69 OFFCURVE",
"322 114 OFFCURVE",
"322 211 CURVE SMOOTH",
"322 431 OFFCURVE",
"387 602 OFFCURVE",
"417 602 CURVE SMOOTH",
"425 602 OFFCURVE",
"431 594 OFFCURVE",
"431 575 CURVE SMOOTH",
"431 488 OFFCURVE",
"371 358 OFFCURVE",
"277 188 CURVE",
"321 167 LINE",
"418 337 OFFCURVE",
"488 481 OFFCURVE",
"488 580 CURVE SMOOTH",
"488 630 OFFCURVE",
"468 666 OFFCURVE",
"418 666 CURVE SMOOTH",
"279 666 OFFCURVE",
"233 375 OFFCURVE",
"233 202 CURVE SMOOTH",
"233 58 OFFCURVE",
"285 -5 OFFCURVE",
"358 -5 CURVE SMOOTH",
"399 -5 OFFCURVE",
"435 22 OFFCURVE",
"477 85 CURVE SMOOTH",
"487 100 OFFCURVE",
"490 119 OFFCURVE",
"478 133 CURVE SMOOTH"
);
}
);
width = 418;
}
);
note = d;
unicode = 0064;
},
{
glyphname = eth;
lastChange = "2016-07-15 07:31:59 +0000";
layers = (
{
layerId = "90775AEC-CE2A-409D-8CDA-B893D340B5FD";
paths = (
{
closed = 1;
nodes = (
"114 188 OFFCURVE",
"169 241 OFFCURVE",
"226 241 CURVE SMOOTH",
"228 241 LINE SMOOTH",
"245 241 OFFCURVE",
"263 238 OFFCURVE",
"283 233 CURVE",
"280 227 OFFCURVE",
"274 209 OFFCURVE",
"263 178 CURVE SMOOTH",
"242 116 OFFCURVE",
"220 78 OFFCURVE",
"191 78 CURVE SMOOTH",
"187 78 LINE",
"138 83 OFFCURVE",
"114 105 OFFCURVE",
"114 143 CURVE SMOOTH"
);
},
{
closed = 1;
nodes = (
"22 53 OFFCURVE",
"87 0 OFFCURVE",
"179 0 CURVE SMOOTH",
"270 0 OFFCURVE",
"341 75 OFFCURVE",
"375 173 CURVE SMOOTH",
"409 271 OFFCURVE",
"408 363 OFFCURVE",
"383 442 CURVE",
"408 452 LINE",
"432 463 OFFCURVE",
"444 477 OFFCURVE",
"444 494 CURVE SMOOTH",
"444 518 OFFCURVE",
"429 538 OFFCURVE",
"416 538 CURVE SMOOTH",
"409 538 OFFCURVE",
"400 536 OFFCURVE",
"388 532 CURVE",
"346 515 LINE",
"334 532 OFFCURVE",
"323 546 OFFCURVE",
"312 557 CURVE SMOOTH",
"291 579 OFFCURVE",
"238 605 OFFCURVE",
"190 605 CURVE SMOOTH",
"142 605 OFFCURVE",
"118 589 OFFCURVE",
"118 557 CURVE SMOOTH",
"118 533 OFFCURVE",
"129 509 OFFCURVE",
"148 509 CURVE SMOOTH",
"194 509 OFFCURVE",
"228 497 OFFCURVE",
"250 474 CURVE",
"207 457 LINE",
"189 448 OFFCURVE",
"180 437 OFFCURVE",
"180 424 CURVE SMOOTH",
"180 399 OFFCURVE",
"198 377 OFFCURVE",
"217 377 CURVE SMOOTH",
"236 377 OFFCURVE",
"254 387 OFFCURVE",
"264 392 CURVE",
"269 394 OFFCURVE",
"277 397 OFFCURVE",
"288 402 CURVE",
"291 382 OFFCURVE",
"293 361 OFFCURVE",
"293 339 CURVE",
"286 338 OFFCURVE",
"274 338 OFFCURVE",
"258 338 CURVE SMOOTH",
"220 338 LINE SMOOTH",
"129 337 OFFCURVE",
"22 243 OFFCURVE",
"22 142 CURVE SMOOTH"
);
}
);
width = 383;
}
);
note = eth;
unicode = 00F0;
},
{
color = 3;
glyphname = e;
lastChange = "2016-07-15 14:21:19 +0000";
layers = (
{
background = {
paths = (
{
closed = 1;
nodes = (
"831 122 OFFCURVE",
"829 120 OFFCURVE",
"827 118 CURVE",
"833 125 OFFCURVE",
"826 117 OFFCURVE",
"825 116 CURVE",
"821 112 OFFCURVE",
"816 108 OFFCURVE",
"812 104 CURVE",
"803 96 OFFCURVE",
"794 89 OFFCURVE",
"784 83 CURVE",
"786 84 OFFCURVE",
"787 85 OFFCURVE",
"789 86 CURVE",
"771 75 OFFCURVE",
"751 68 OFFCURVE",
"729 63 CURVE",
"731 64 OFFCURVE",
"734 64 OFFCURVE",
"736 65 CURVE",
"721 62 OFFCURVE",
"707 61 OFFCURVE",
"692 61 CURVE",
"676 61 OFFCURVE",
"669 41 OFFCURVE",
"669 28 CURVE",
"669 15 OFFCURVE",
"676 -4 OFFCURVE",
"692 -4 CURVE",
"725 -4 OFFCURVE",
"758 2 OFFCURVE",
"788 16 CURVE",
"818 31 OFFCURVE",
"843 53 OFFCURVE",
"865 78 CURVE",
"875 90 OFFCURVE",
"873 112 OFFCURVE",
"865 124 CURVE",
"861 130 OFFCURVE",
"855 134 OFFCURVE",
"849 134 CURVE",
"841 134 OFFCURVE",
"837 130 OFFCURVE",
"833 124 CURVE"
);
},
{
closed = 1;
nodes = (
"694 61 OFFCURVE",
"692 61 OFFCURVE",
"690 61 CURVE",
"694 61 OFFCURVE",
"697 60 OFFCURVE",
"701 60 CURVE",
"690 61 OFFCURVE",
"678 62 OFFCURVE",
"667 65 CURVE",
"671 64 OFFCURVE",
"674 63 OFFCURVE",
"677 62 CURVE",
"668 64 OFFCURVE",
"660 67 OFFCURVE",
"651 72 CURVE",
"654 70 OFFCURVE",
"657 69 OFFCURVE",
"660 67 CURVE",
"651 72 OFFCURVE",
"644 77 OFFCURVE",
"637 84 CURVE",
"639 82 OFFCURVE",
"641 80 OFFCURVE",
"643 78 CURVE",
"634 86 OFFCURVE",
"628 95 OFFCURVE",
"623 106 CURVE",
"624 103 OFFCURVE",
"625 101 OFFCURVE",
"626 98 CURVE",
"618 115 OFFCURVE",
"615 133 OFFCURVE",
"613 151 CURVE",
"613 148 OFFCURVE",
"614 145 OFFCURVE",
"614 142 CURVE",
"612 163 OFFCURVE",
"614 185 OFFCURVE",
"619 205 CURVE",
"619 202 OFFCURVE",
"618 199 OFFCURVE",
"617 197 CURVE",
"621 210 OFFCURVE",
"627 223 OFFCURVE",
"634 235 CURVE",
"633 233 OFFCURVE",
"631 230 OFFCURVE",
"629 227 CURVE",
"635 237 OFFCURVE",
"642 245 OFFCURVE",
"650 253 CURVE",
"648 250 OFFCURVE",
"645 248 OFFCURVE",
"643 246 CURVE",
"649 251 OFFCURVE",
"656 257 OFFCURVE",
"663 261 CURVE",
"660 259 OFFCURVE",
"657 257 OFFCURVE",
"654 255 CURVE",
"660 259 OFFCURVE",
"667 263 OFFCURVE",
"674 265 CURVE",
"670 264 OFFCURVE",
"666 262 OFFCURVE",
"663 261 CURVE",
"669 263 OFFCURVE",
"676 265 OFFCURVE",
"683 267 CURVE",
"679 266 OFFCURVE",
"675 265 OFFCURVE",
"671 265 CURVE",
"675 265 OFFCURVE",
"678 266 OFFCURVE",
"682 266 CURVE",
"701 267 OFFCURVE",
"727 279 OFFCURVE",
"729 301 CURVE",
"732 323 OFFCURVE",
"706 332 OFFCURVE",
"689 331 CURVE",
"676 330 OFFCURVE",
"662 327 OFFCURVE",
"650 323 CURVE",
"633 317 OFFCURVE",
"619 311 OFFCURVE",
"604 301 CURVE",
"581 287 OFFCURVE",
"564 266 OFFCURVE",
"550 244 CURVE",
"536 222 OFFCURVE",
"528 195 OFFCURVE",
"526 169 CURVE",
"523 145 OFFCURVE",
"525 119 OFFCURVE",
"531 96 CURVE",
"539 67 OFFCURVE",
"556 41 OFFCURVE",
"581 24 CURVE",
"612 2 OFFCURVE",
"651 -4 OFFCURVE",
"688 -4 CURVE",
"707 -4 OFFCURVE",
"734 10 OFFCURVE",
"736 31 CURVE",
"737 40 OFFCURVE",
"733 48 OFFCURVE",
"725 54 CURVE",
"716 60 OFFCURVE",
"706 61 OFFCURVE",
"696 61 CURVE"
);
},
{
closed = 1;
nodes = (
"694 266 OFFCURVE",
"698 266 OFFCURVE",
"702 265 CURVE",
"698 266 OFFCURVE",
"695 266 OFFCURVE",
"692 267 CURVE",
"699 266 OFFCURVE",
"705 264 OFFCURVE",
"712 262 CURVE",
"709 263 OFFCURVE",
"706 264 OFFCURVE",
"703 265 CURVE",
"709 263 OFFCURVE",
"714 261 OFFCURVE",
"719 257 CURVE",
"716 259 OFFCURVE",
"714 261 OFFCURVE",
"711 262 CURVE",
"715 260 OFFCURVE",
"719 256 OFFCURVE",
"723 253 CURVE",
"721 255 OFFCURVE",
"719 257 OFFCURVE",
"717 259 CURVE",
"721 255 OFFCURVE",
"724 250 OFFCURVE",
"726 245 CURVE",
"725 248 OFFCURVE",
"724 250 OFFCURVE",
"723 253 CURVE",
"725 247 OFFCURVE",
"727 242 OFFCURVE",
"728 236 CURVE",
"727 239 OFFCURVE",
"727 241 OFFCURVE",
"727 244 CURVE",
"727 241 OFFCURVE",
"727 238 OFFCURVE",
"727 235 CURVE",
"727 215 OFFCURVE",
"747 203 OFFCURVE",
"765 203 CURVE",
"783 203 OFFCURVE",
"803 215 OFFCURVE",
"803 235 CURVE",
"803 261 OFFCURVE",
"792 285 OFFCURVE",
"772 302 CURVE",
"750 323 OFFCURVE",
"719 330 OFFCURVE",
"689 331 CURVE",
"671 331 OFFCURVE",
"651 318 OFFCURVE",
"651 298 CURVE",
"651 278 OFFCURVE",
"671 266 OFFCURVE",
"689 266 CURVE"
);
},
{
closed = 1;
nodes = (
"727 228 OFFCURVE",
"727 225 OFFCURVE",
"727 222 CURVE",
"727 224 OFFCURVE",
"727 227 OFFCURVE",
"728 229 CURVE",
"727 219 OFFCURVE",
"724 210 OFFCURVE",
"720 201 CURVE",
"721 203 OFFCURVE",
"722 206 OFFCURVE",
"723 208 CURVE",
"719 200 OFFCURVE",
"714 193 OFFCURVE",
"709 187 CURVE",
"711 189 OFFCURVE",
"712 191 OFFCURVE",
"714 193 CURVE",
"707 185 OFFCURVE",
"699 179 OFFCURVE",
"690 173 CURVE",
"693 175 OFFCURVE",
"695 176 OFFCURVE",
"697 178 CURVE",
"691 173 OFFCURVE",
"684 169 OFFCURVE",
"676 166 CURVE",
"672 164 OFFCURVE",
"668 162 OFFCURVE",
"664 160 CURVE",
"661 159 OFFCURVE",
"659 158 OFFCURVE",
"657 157 CURVE",
"655 156 OFFCURVE",
"654 156 OFFCURVE",
"653 155 CURVE",
"655 156 OFFCURVE",
"657 157 OFFCURVE",
"659 158 CURVE",
"658 157 OFFCURVE",
"657 157 OFFCURVE",
"656 157 CURVE",
"633 148 OFFCURVE",
"609 141 OFFCURVE",
"585 135 CURVE",
"570 132 OFFCURVE",
"553 117 OFFCURVE",
"561 100 CURVE",
"570 83 OFFCURVE",
"593 82 OFFCURVE",
"609 86 CURVE",
"659 98 OFFCURVE",
"711 114 OFFCURVE",
"753 144 CURVE",
"777 162 OFFCURVE",
"798 188 OFFCURVE",
"802 219 CURVE",
"802 225 OFFCURVE",
"803 232 OFFCURVE",
"803 238 CURVE",
"803 246 OFFCURVE",
"796 253 OFFCURVE",
"790 256 CURVE",
"782 261 OFFCURVE",
"772 262 OFFCURVE",
"763 261 CURVE",
"747 260 OFFCURVE",
"727 250 OFFCURVE",
"727 232 CURVE"
);
},
{
closed = 1;
nodes = (
"253 -5 OFFCURVE",
"310 18 OFFCURVE",
"354 85 CURVE SMOOTH",
"364 100 OFFCURVE",
"367 119 OFFCURVE",
"354 132 CURVE SMOOTH",
"343 143 OFFCURVE",
"329 145 OFFCURVE",
"320 132 CURVE SMOOTH",
"284 80 OFFCURVE",
"242 61 OFFCURVE",
"202 61 CURVE SMOOTH",
"137 61 OFFCURVE",
"113 105 OFFCURVE",
"113 159 CURVE SMOOTH",
"113 233 OFFCURVE",
"149 268 OFFCURVE",
"192 268 CURVE SMOOTH",
"214 268 OFFCURVE",
"227 256 OFFCURVE",
"227 233 CURVE SMOOTH",
"227 183 OFFCURVE",
"180 158 OFFCURVE",
"79 133 CURVE",
"88 84 LINE",
"191 97 OFFCURVE",
"303 145 OFFCURVE",
"303 236 CURVE SMOOTH",
"303 292 OFFCURVE",
"260 332 OFFCURVE",
"189 332 CURVE SMOOTH",
"89 332 OFFCURVE",
"24 246 OFFCURVE",
"24 152 CURVE SMOOTH",
"24 59 OFFCURVE",
"81 -5 OFFCURVE",
"189 -5 CURVE SMOOTH"
);
}
);
};
layerId = "90775AEC-CE2A-409D-8CDA-B893D340B5FD";
paths = (
{
closed = 1;
nodes = (
"273 -5 OFFCURVE",
"331 18 OFFCURVE",
"374 85 CURVE SMOOTH",
"384 100 OFFCURVE",
"387 119 OFFCURVE",
"374 132 CURVE SMOOTH",
"363 143 OFFCURVE",
"349 145 OFFCURVE",
"340 132 CURVE SMOOTH",
"305 79 OFFCURVE",
"262 62 OFFCURVE",
"212 62 CURVE SMOOTH",
"137 62 OFFCURVE",
"113 99 OFFCURVE",
"113 153 CURVE SMOOTH",
"113 233 OFFCURVE",
"149 268 OFFCURVE",
"190 268 CURVE SMOOTH",
"212 268 OFFCURVE",
"225 256 OFFCURVE",
"225 233 CURVE SMOOTH",
"225 183 OFFCURVE",
"179 161 OFFCURVE",
"97 142 CURVE",
"107 85 LINE",
"195 103 OFFCURVE",
"301 145 OFFCURVE",
"301 236 CURVE SMOOTH",
"301 292 OFFCURVE",
"258 330 OFFCURVE",
"187 330 CURVE SMOOTH",
"89 330 OFFCURVE",
"24 246 OFFCURVE",
"24 152 CURVE SMOOTH",
"24 59 OFFCURVE",
"87 -5 OFFCURVE",
"199 -5 CURVE SMOOTH"
);
}
);
width = 313;
}
);
note = e;
unicode = 0065;
},
{
color = 3;
glyphname = f;
lastChange = "2016-07-15 14:03:52 +0000";
layers = (
{
background = {
paths = (
{
closed = 1;
nodes = (
"117 325 OFFCURVE",
"217 599 OFFCURVE",
"281 599 CURVE SMOOTH",
"296 599 OFFCURVE",
"301 591 OFFCURVE",
"301 568 CURVE SMOOTH",
"301 488 OFFCURVE",
"246 368 OFFCURVE",
"158 232 CURVE SMOOTH",
"138 201 OFFCURVE",
"192 177 OFFCURVE",
"210 206 CURVE SMOOTH",
"299 350 OFFCURVE",
"360 483 OFFCURVE",
"360 580 CURVE SMOOTH",
"360 632 OFFCURVE",
"338 666 OFFCURVE",
"288 666 CURVE SMOOTH",
"146 666 OFFCURVE",
"27 374 OFFCURVE",
"27 87 CURVE SMOOTH",
"27 -126 OFFCURVE",
"83 -265 OFFCURVE",
"171 -265 CURVE SMOOTH",
"227 -265 OFFCURVE",
"261 -218 OFFCURVE",
"261 -139 CURVE SMOOTH",
"261 -84 OFFCURVE",
"244 28 OFFCURVE",
"145 134 CURVE",
"108 99 LINE",
"195 -19 OFFCURVE",
"205 -91 OFFCURVE",
"205 -147 CURVE SMOOTH",
"205 -185 OFFCURVE",
"195 -203 OFFCURVE",
"182 -203 CURVE SMOOTH",
"143 -203 OFFCURVE",
"117 -94 OFFCURVE",
"117 107 CURVE SMOOTH"
);
},
{
closed = 1;
nodes = (
"350 134 OFFCURVE",
"340 144 OFFCURVE",
"323 142 CURVE SMOOTH",
"279 137 OFFCURVE",
"208 135 OFFCURVE",
"153 150 CURVE SMOOTH",
"139 154 OFFCURVE",
"128 153 OFFCURVE",
"119 145 CURVE SMOOTH",
"108 135 OFFCURVE",
"98 110 OFFCURVE",
"109 99 CURVE",
"163 75 OFFCURVE",
"237 73 OFFCURVE",
"303 76 CURVE SMOOTH",
"345 78 OFFCURVE",
"352 98 OFFCURVE",
"351 119 CURVE SMOOTH"
);
}
);
};
layerId = "90775AEC-CE2A-409D-8CDA-B893D340B5FD";
paths = (
{
closed = 1;
nodes = (
"117 346 OFFCURVE",
"217 599 OFFCURVE",
"281 599 CURVE SMOOTH",
"296 599 OFFCURVE",
"301 591 OFFCURVE",
"301 568 CURVE SMOOTH",
"301 498 OFFCURVE",
"247 386 OFFCURVE",
"160 250 CURVE SMOOTH",
"141 219 OFFCURVE",
"194 195 OFFCURVE",
"212 224 CURVE SMOOTH",
"302 367 OFFCURVE",
"360 493 OFFCURVE",
"360 580 CURVE SMOOTH",
"360 632 OFFCURVE",
"337 666 OFFCURVE",
"288 666 CURVE SMOOTH",
"146 666 OFFCURVE",
"27 374 OFFCURVE",
"27 87 CURVE SMOOTH",
"27 -126 OFFCURVE",
"83 -265 OFFCURVE",
"181 -265 CURVE SMOOTH",
"235 -265 OFFCURVE",
"261 -218 OFFCURVE",
"261 -139 CURVE SMOOTH",
"261 -84 OFFCURVE",
"244 49 OFFCURVE",
"145 155 CURVE",
"108 120 LINE",
"195 2 OFFCURVE",
"205 -91 OFFCURVE",
"205 -147 CURVE SMOOTH",
"205 -185 OFFCURVE",
"195 -203 OFFCURVE",
"182 -203 CURVE SMOOTH",
"143 -203 OFFCURVE",
"117 -73 OFFCURVE",
"117 128 CURVE SMOOTH"
);
},
{
closed = 1;
nodes = (
"354 168 OFFCURVE",
"344 179 OFFCURVE",
"327 174 CURVE SMOOTH",
"301 166 OFFCURVE",
"259 159 OFFCURVE",
"237 159 CURVE SMOOTH",
"216 159 OFFCURVE",
"182 161 OFFCURVE",
"153 171 CURVE SMOOTH",
"139 176 OFFCURVE",
"128 174 OFFCURVE",
"119 166 CURVE SMOOTH",
"108 156 OFFCURVE",
"98 131 OFFCURVE",
"109 120 CURVE",
"130 104 OFFCURVE",
"202 90 OFFCURVE",
"231 90 CURVE SMOOTH",
"259 90 OFFCURVE",
"299 95 OFFCURVE",
"325 104 CURVE SMOOTH",
"347 112 OFFCURVE",
"357 132 OFFCURVE",
"355 153 CURVE SMOOTH"
);
}
);
width = 277;
}
);
note = f;
unicode = 0066;
},
{
color = 3;
glyphname = g;
lastChange = "2016-07-15 14:39:08 +0000";
layers = (
{
background = {
paths = (
{
closed = 1;
nodes = (
"188 4 OFFCURVE",
"252 39 OFFCURVE",
"271 127 CURVE",
"280 275 LINE",
"290 282 OFFCURVE",
"292 291 OFFCURVE",
"292 303 CURVE SMOOTH",
"292 323 OFFCURVE",
"282 336 OFFCURVE",
"254 336 CURVE SMOOTH",
"123 336 OFFCURVE",
"20 258 OFFCURVE",
"20 131 CURVE SMOOTH",
"20 57 OFFCURVE",
"68 4 OFFCURVE",
"140 4 CURVE SMOOTH"
);
},
{
closed = 1;
nodes = (
"127 77 OFFCURVE",
"108 102 OFFCURVE",
"108 139 CURVE SMOOTH",
"108 213 OFFCURVE",
"167 270 OFFCURVE",
"261 265 CURVE",
"251 206 LINE SMOOTH",
"235 112 OFFCURVE",
"199 72 OFFCURVE",
"157 75 CURVE SMOOTH"
);
},
{
closed = 1;
nodes = (
"340 330 OFFCURVE",
"265 314 OFFCURVE",
"264 279 CURVE",
"269 251 OFFCURVE",
"264 222 OFFCURVE",
"264 190 CURVE SMOOTH",
"264 -30 OFFCURVE",
"182 -201 OFFCURVE",
"152 -201 CURVE SMOOTH",
"144 -201 OFFCURVE",
"138 -193 OFFCURVE",
"138 -177 CURVE SMOOTH",
"138 -119 OFFCURVE",
"198 -40 OFFCURVE",
"294 7 CURVE",
"340 31 OFFCURVE",
"396 48 OFFCURVE",
"458 69 CURVE SMOOTH",
"483 77 OFFCURVE",
"490 103 OFFCURVE",
"481 126 CURVE SMOOTH",
"476 137 OFFCURVE",
"466 145 OFFCURVE",
"444 137 CURVE SMOOTH",
"183 42 OFFCURVE",
"80 -85 OFFCURVE",
"80 -186 CURVE SMOOTH",
"80 -231 OFFCURVE",
"104 -265 OFFCURVE",
"150 -265 CURVE SMOOTH",
"287 -265 OFFCURVE",
"351 34 OFFCURVE",
"351 207 CURVE SMOOTH",
"351 230 OFFCURVE",
"351 261 OFFCURVE",
"347 286 CURVE SMOOTH"
);
}
);
};
layerId = "90775AEC-CE2A-409D-8CDA-B893D340B5FD";
paths = (
{
closed = 1;
nodes = (
"188 4 OFFCURVE",
"252 39 OFFCURVE",
"271 127 CURVE",
"280 275 LINE",
"290 282 OFFCURVE",
"292 291 OFFCURVE",
"292 303 CURVE SMOOTH",
"292 323 OFFCURVE",
"282 336 OFFCURVE",
"254 336 CURVE SMOOTH",
"127 336 OFFCURVE",
"24 258 OFFCURVE",
"24 131 CURVE SMOOTH",
"24 57 OFFCURVE",
"72 4 OFFCURVE",
"142 4 CURVE SMOOTH"
);
},
{
closed = 1;
nodes = (
"132 75 OFFCURVE",
"112 102 OFFCURVE",
"112 139 CURVE SMOOTH",
"112 213 OFFCURVE",
"171 270 OFFCURVE",
"261 265 CURVE",
"251 206 LINE SMOOTH",
"235 112 OFFCURVE",
"201 75 OFFCURVE",
"162 75 CURVE SMOOTH"
);
},
{
closed = 1;
nodes = (
"340 330 OFFCURVE",
"265 314 OFFCURVE",
"264 279 CURVE",
"269 251 OFFCURVE",
"264 222 OFFCURVE",
"264 190 CURVE SMOOTH",
"264 -30 OFFCURVE",
"182 -201 OFFCURVE",
"152 -201 CURVE SMOOTH",
"144 -201 OFFCURVE",
"138 -193 OFFCURVE",
"138 -177 CURVE SMOOTH",
"138 -119 OFFCURVE",
"198 -40 OFFCURVE",
"294 7 CURVE",
"340 31 OFFCURVE",
"396 48 OFFCURVE",
"458 69 CURVE SMOOTH",
"483 77 OFFCURVE",
"490 103 OFFCURVE",
"481 126 CURVE SMOOTH",
"476 137 OFFCURVE",
"466 145 OFFCURVE",
"444 137 CURVE SMOOTH",
"183 42 OFFCURVE",
"80 -85 OFFCURVE",
"80 -186 CURVE SMOOTH",
"80 -231 OFFCURVE",
"104 -265 OFFCURVE",
"150 -265 CURVE SMOOTH",
"287 -265 OFFCURVE",
"351 34 OFFCURVE",
"351 207 CURVE SMOOTH",
"351 230 OFFCURVE",
"351 261 OFFCURVE",
"347 286 CURVE SMOOTH"
);
}
);
width = 395;
}
);
note = g;
unicode = 0067;
},
{
color = 3;
glyphname = h;
lastChange = "2016-07-15 15:03:56 +0000";
layers = (
{
background = {
paths = (
{
closed = 1;
nodes = (
"1394 592 OFFCURVE",
"1400 585 OFFCURVE",
"1400 572 CURVE SMOOTH",
"1400 531 OFFCURVE",
"1340 438 OFFCURVE",
"1257 354 CURVE",
"1273 425 OFFCURVE",
"1318 592 OFFCURVE",
"1381 592 CURVE SMOOTH"
);
},
{
closed = 1;
nodes = (
"1133 24 OFFCURVE",
"1146 0 OFFCURVE",
"1173 0 CURVE SMOOTH",
"1201 0 OFFCURVE",
"1207 15 OFFCURVE",
"1214 43 CURVE SMOOTH",
"1229 102 OFFCURVE",
"1329 225 OFFCURVE",
"1357 225 CURVE SMOOTH",
"1360 225 OFFCURVE",
"1362 223 OFFCURVE",
"1362 218 CURVE SMOOTH",
"1362 213 OFFCURVE",
"1353 189 OFFCURVE",
"1336 146 CURVE SMOOTH",
"1319 103 OFFCURVE",
"1309 71 OFFCURVE",
"1309 50 CURVE SMOOTH",
"1309 12 OFFCURVE",
"1331 -7 OFFCURVE",
"1374 -7 CURVE SMOOTH",
"1401 -7 OFFCURVE",
"1430 0 OFFCURVE",
"1462 13 CURVE SMOOTH",
"1526 39 OFFCURVE",
"1571 80 OFFCURVE",
"1568 109 CURVE",
"1568 116 LINE SMOOTH",
"1568 143 OFFCURVE",
"1561 157 OFFCURVE",
"1546 157 CURVE SMOOTH",
"1540 157 OFFCURVE",
"1527 150 OFFCURVE",
"1506 135 CURVE SMOOTH",
"1451 96 OFFCURVE",
"1420 77 OFFCURVE",
"1411 77 CURVE SMOOTH",
"1402 77 OFFCURVE",
"1398 81 OFFCURVE",
"1398 89 CURVE SMOOTH",
"1398 95 OFFCURVE",
"1403 108 OFFCURVE",
"1412 127 CURVE SMOOTH",
"1443 193 OFFCURVE",
"1463 237 OFFCURVE",
"1470 258 CURVE",
"1476 279 OFFCURVE",
"1479 290 OFFCURVE",
"1479 292 CURVE SMOOTH",
"1479 317 OFFCURVE",
"1455 332 OFFCURVE",
"1412 332 CURVE SMOOTH",
"1369 332 OFFCURVE",
"1271 266 OFFCURVE",
"1220 165 CURVE",
"1248 284 LINE",
"1415 411 OFFCURVE",
"1478 505 OFFCURVE",
"1491 596 CURVE",
"1491 605 LINE SMOOTH",
"1491 656 OFFCURVE",
"1461 690 OFFCURVE",
"1410 690 CURVE SMOOTH",
"1327 690 OFFCURVE",
"1253 600 OFFCURVE",
"1212 476 CURVE SMOOTH",
"1171 352 OFFCURVE",
"1145 233 OFFCURVE",
"1136 119 CURVE SMOOTH",
"1134 95 OFFCURVE",
"1133 79 OFFCURVE",
"1133 72 CURVE SMOOTH"
);
},
{
closed = 1;
nodes = (
"848 331 OFFCURVE",
"776 270 OFFCURVE",
"714 163 CURVE",
"721 205 OFFCURVE",
"734 239 OFFCURVE",
"743 261 CURVE SMOOTH",
"752 282 OFFCURVE",
"756 296 OFFCURVE",
"756 303 CURVE SMOOTH",
"756 316 OFFCURVE",
"751 329 OFFCURVE",
"716 329 CURVE SMOOTH",
"688 329 OFFCURVE",
"673 316 OFFCURVE",
"662 289 CURVE SMOOTH",
"646 249 OFFCURVE",
"634 208 OFFCURVE",
"627 168 CURVE SMOOTH",
"622 138 OFFCURVE",
"619 108 OFFCURVE",
"619 79 CURVE SMOOTH",
"619 13 OFFCURVE",
"633 -5 OFFCURVE",
"665 -5 CURVE SMOOTH",
"694 -5 OFFCURVE",
"705 5 OFFCURVE",
"716 38 CURVE SMOOTH",
"746 127 OFFCURVE",
"817 228 OFFCURVE",
"843 228 CURVE SMOOTH",
"848 228 OFFCURVE",
"849 223 OFFCURVE",
"849 220 CURVE SMOOTH",
"849 185 OFFCURVE",
"814 114 OFFCURVE",
"814 72 CURVE SMOOTH",
"814 15 OFFCURVE",
"854 -5 OFFCURVE",
"899 -5 CURVE SMOOTH",
"962 -5 OFFCURVE",
"1007 36 OFFCURVE",
"1040 85 CURVE SMOOTH",
"1050 100 OFFCURVE",
"1053 119 OFFCURVE",
"1040 132 CURVE SMOOTH",
"1029 143 OFFCURVE",
"1015 145 OFFCURVE",
"1006 132 CURVE SMOOTH",
"976 89 OFFCURVE",
"955 69 OFFCURVE",
"933 69 CURVE SMOOTH",
"920 69 OFFCURVE",
"911 78 OFFCURVE",
"911 98 CURVE SMOOTH",
"911 136 OFFCURVE",
"960 238 OFFCURVE",
"960 287 CURVE SMOOTH",
"960 316 OFFCURVE",
"945 331 OFFCURVE",
"915 331 CURVE SMOOTH"
);
},
{
closed = 1;
nodes = (
"429 143 OFFCURVE",
"415 145 OFFCURVE",
"406 132 CURVE SMOOTH",
"376 89 OFFCURVE",
"355 69 OFFCURVE",
"333 69 CURVE SMOOTH",
"320 69 OFFCURVE",
"311 78 OFFCURVE",
"311 98 CURVE SMOOTH",
"311 136 OFFCURVE",
"360 238 OFFCURVE",
"360 287 CURVE SMOOTH",
"360 316 OFFCURVE",
"345 331 OFFCURVE",
"315 331 CURVE SMOOTH",
"248 331 OFFCURVE",
"176 270 OFFCURVE",
"114 163 CURVE",
"124 209 OFFCURVE",
"131 256 OFFCURVE",
"135 288 CURVE SMOOTH",
"164 510 OFFCURVE",
"208 602 OFFCURVE",
"241 602 CURVE SMOOTH",
"249 602 OFFCURVE",
"255 590 OFFCURVE",
"255 575 CURVE SMOOTH",
"255 476 OFFCURVE",
"159 352 OFFCURVE",
"89 280 CURVE SMOOTH",
"79 270 OFFCURVE",
"74 254 OFFCURVE",
"85 242 CURVE SMOOTH",
"95 231 OFFCURVE",
"114 240 OFFCURVE",
"124 250 CURVE SMOOTH",
"234 362 OFFCURVE",
"312 485 OFFCURVE",
"312 583 CURVE SMOOTH",
"312 636 OFFCURVE",
"280 666 OFFCURVE",
"234 666 CURVE SMOOTH",
"140 666 OFFCURVE",
"90 572 OFFCURVE",
"53 334 CURVE SMOOTH",
"31 195 OFFCURVE",
"19 128 OFFCURVE",
"19 79 CURVE SMOOTH",
"19 13 OFFCURVE",
"33 -5 OFFCURVE",
"65 -5 CURVE SMOOTH",
"94 -5 OFFCURVE",
"105 5 OFFCURVE",
"116 38 CURVE SMOOTH",
"146 127 OFFCURVE",
"217 228 OFFCURVE",
"243 228 CURVE SMOOTH",
"248 228 OFFCURVE",
"249 223 OFFCURVE",
"249 220 CURVE SMOOTH",
"249 185 OFFCURVE",
"214 114 OFFCURVE",
"214 72 CURVE SMOOTH",
"214 15 OFFCURVE",
"254 -5 OFFCURVE",
"299 -5 CURVE SMOOTH",
"362 -5 OFFCURVE",
"407 36 OFFCURVE",
"440 85 CURVE SMOOTH",
"450 100 OFFCURVE",
"453 119 OFFCURVE",
"440 132 CURVE SMOOTH"
);
}
);
};
layerId = "90775AEC-CE2A-409D-8CDA-B893D340B5FD";
paths = (
{
closed = 1;
nodes = (
"429 143 OFFCURVE",
"415 145 OFFCURVE",
"406 132 CURVE SMOOTH",
"376 89 OFFCURVE",
"355 69 OFFCURVE",
"333 69 CURVE SMOOTH",
"320 69 OFFCURVE",
"311 78 OFFCURVE",
"311 98 CURVE SMOOTH",
"311 136 OFFCURVE",
"360 238 OFFCURVE",
"360 287 CURVE SMOOTH",
"360 316 OFFCURVE",
"345 331 OFFCURVE",
"315 331 CURVE SMOOTH",
"248 331 OFFCURVE",
"176 270 OFFCURVE",
"117 161 CURVE",
"144 413 OFFCURVE",
"189 602 OFFCURVE",
"238 602 CURVE SMOOTH",
"246 602 OFFCURVE",
"252 590 OFFCURVE",
"252 575 CURVE SMOOTH",
"252 476 OFFCURVE",
"159 352 OFFCURVE",
"89 280 CURVE SMOOTH",
"79 270 OFFCURVE",
"74 254 OFFCURVE",
"85 242 CURVE SMOOTH",
"95 231 OFFCURVE",
"114 237 OFFCURVE",
"124 247 CURVE SMOOTH",
"234 359 OFFCURVE",
"309 485 OFFCURVE",
"309 583 CURVE SMOOTH",
"309 636 OFFCURVE",
"277 666 OFFCURVE",
"231 666 CURVE SMOOTH",
"140 666 OFFCURVE",
"87 565 OFFCURVE",
"46 314 CURVE SMOOTH",
"28 203 OFFCURVE",
"24 138 OFFCURVE",
"24 79 CURVE SMOOTH",
"24 13 OFFCURVE",
"38 -5 OFFCURVE",
"68 -5 CURVE SMOOTH",
"97 -5 OFFCURVE",
"108 5 OFFCURVE",
"119 38 CURVE SMOOTH",
"149 127 OFFCURVE",
"217 228 OFFCURVE",
"243 228 CURVE SMOOTH",
"248 228 OFFCURVE",
"249 223 OFFCURVE",
"249 220 CURVE SMOOTH",
"249 185 OFFCURVE",
"214 114 OFFCURVE",
"214 72 CURVE SMOOTH",
"214 15 OFFCURVE",
"254 -5 OFFCURVE",
"299 -5 CURVE SMOOTH",
"362 -5 OFFCURVE",
"407 36 OFFCURVE",
"440 85 CURVE SMOOTH",
"450 100 OFFCURVE",
"453 119 OFFCURVE",
"440 132 CURVE SMOOTH"
);
}
);
width = 379;
}
);
note = h;
unicode = 0068;
},
{
glyphname = i;
lastChange = "2016-07-15 07:31:59 +0000";
layers = (
{
layerId = "90775AEC-CE2A-409D-8CDA-B893D340B5FD";
paths = (
{
closed = 1;
nodes = (
"150 401 OFFCURVE",
"172 382 OFFCURVE",
"215 382 CURVE SMOOTH",
"252 382 OFFCURVE",
"279 405 OFFCURVE",
"279 442 CURVE SMOOTH",
"279 481 OFFCURVE",
"259 500 OFFCURVE",
"218 500 CURVE SMOOTH",
"181 500 OFFCURVE",
"150 475 OFFCURVE",
"150 438 CURVE SMOOTH"
);
},
{
closed = 1;
nodes = (
"39 42 OFFCURVE",
"80 -4 OFFCURVE",
"139 -4 CURVE SMOOTH",
"198 -4 OFFCURVE",
"258 28 OFFCURVE",
"306 85 CURVE SMOOTH",
"315 96 OFFCURVE",
"319 106 OFFCURVE",
"319 115 CURVE SMOOTH",
"319 133 OFFCURVE",
"302 149 OFFCURVE",
"282 149 CURVE SMOOTH",
"272 149 OFFCURVE",
"264 145 OFFCURVE",
"258 137 CURVE",
"220 93 OFFCURVE",
"189 71 OFFCURVE",
"164 71 CURVE SMOOTH",
"143 71 OFFCURVE",
"133 88 OFFCURVE",
"133 121 CURVE SMOOTH",
"133 167 OFFCURVE",
"149 221 OFFCURVE",
"181 282 CURVE",
"184 289 OFFCURVE",
"186 296 OFFCURVE",
"186 303 CURVE SMOOTH",
"186 318 OFFCURVE",
"168 331 OFFCURVE",
"141 331 CURVE SMOOTH",
"119 331 OFFCURVE",
"101 320 OFFCURVE",
"88 297 CURVE SMOOTH",
"60 251 OFFCURVE",
"39 174 OFFCURVE",
"39 117 CURVE SMOOTH"
);
}
);
width = 205;
}
);
note = i;
unicode = 0069;
},
{
glyphname = dotlessi;
lastChange = "2016-07-15 07:31:59 +0000";
layers = (
{
layerId = "90775AEC-CE2A-409D-8CDA-B893D340B5FD";
paths = (
{
closed = 1;
nodes = (
"34 37 OFFCURVE",
"75 -4 OFFCURVE",
"139 -4 CURVE SMOOTH",
"195 -4 OFFCURVE",
"248 26 OFFCURVE",
"297 85 CURVE SMOOTH",
"306 96 OFFCURVE",
"310 106 OFFCURVE",
"310 115 CURVE SMOOTH",
"310 133 OFFCURVE",
"293 149 OFFCURVE",
"274 149 CURVE SMOOTH",
"265 149 OFFCURVE",
"256 145 OFFCURVE",
"249 137 CURVE SMOOTH",
"211 93 OFFCURVE",
"179 71 OFFCURVE",
"154 71 CURVE SMOOTH",
"134 71 OFFCURVE",
"124 84 OFFCURVE",
"124 109 CURVE SMOOTH",
"124 159 OFFCURVE",
"153 255 OFFCURVE",
"180 303 CURVE",
"182 307 OFFCURVE",
"183 311 OFFCURVE",
"183 315 CURVE SMOOTH",
"183 335 OFFCURVE",
"158 348 OFFCURVE",
"135 348 CURVE SMOOTH",
"116 348 OFFCURVE",
"101 336 OFFCURVE",
"88 311 CURVE SMOOTH",
"62 261 OFFCURVE",
"34 160 OFFCURVE",
"34 101 CURVE SMOOTH"
);
}
);
width = 218;
}
);
note = dotlessi;
unicode = 0131;
},
{
glyphname = j;
lastChange = "2016-07-15 07:31:59 +0000";
layers = (
{
layerId = "90775AEC-CE2A-409D-8CDA-B893D340B5FD";
paths = (
{
closed = 1;
nodes = (
"219 388 OFFCURVE",
"243 411 OFFCURVE",
"243 447 CURVE SMOOTH",
"243 480 OFFCURVE",
"225 496 OFFCURVE",
"190 496 CURVE SMOOTH",
"153 496 OFFCURVE",
"125 473 OFFCURVE",
"125 440 CURVE SMOOTH",
"125 405 OFFCURVE",
"144 388 OFFCURVE",
"182 388 CURVE SMOOTH"
);
},
{
closed = 1;
nodes = (
"138 -89 OFFCURVE",
"127 -138 OFFCURVE",
"104 -138 CURVE SMOOTH",
"91 -138 OFFCURVE",
"85 -122 OFFCURVE",
"85 -89 CURVE SMOOTH",
"85 -26 OFFCURVE",
"100 55 OFFCURVE",
"131 152 CURVE",
"136 90 OFFCURVE",
"138 42 OFFCURVE",
"138 9 CURVE SMOOTH"
);
},
{
closed = 1;
nodes = (
"-1 -167 OFFCURVE",
"32 -209 OFFCURVE",
"98 -209 CURVE SMOOTH",
"171 -209 OFFCURVE",
"208 -137 OFFCURVE",
"208 6 CURVE SMOOTH",
"208 34 OFFCURVE",
"204 75 OFFCURVE",
"197 129 CURVE",
"205 129 LINE SMOOTH",
"273 129 OFFCURVE",
"343 155 OFFCURVE",
"343 215 CURVE SMOOTH",
"343 233 OFFCURVE",
"337 242 OFFCURVE",
"326 242 CURVE SMOOTH",
"323 242 OFFCURVE",
"314 239 OFFCURVE",
"297 232 CURVE SMOOTH",
"280 225 OFFCURVE",
"255 218 OFFCURVE",
"220 211 CURVE SMOOTH",
"185 204 OFFCURVE",
"161 199 OFFCURVE",
"147 194 CURVE",
"164 233 LINE",
"179 264 OFFCURVE",
"186 287 OFFCURVE",
"186 302 CURVE SMOOTH",
"186 320 OFFCURVE",
"177 329 OFFCURVE",
"160 329 CURVE SMOOTH",
"104 329 OFFCURVE",
"88 317 OFFCURVE",
"71 277 CURVE SMOOTH",
"38 198 OFFCURVE",
"16 106 OFFCURVE",
"5 1 CURVE SMOOTH",
"1 -35 OFFCURVE",
"-1 -63 OFFCURVE",
"-1 -84 CURVE SMOOTH"
);
}
);
width = 217;
}
);
note = j;
unicode = 006A;
},
{
glyphname = dotlessj;
lastChange = "2016-07-15 07:31:59 +0000";
layers = (
{
layerId = "90775AEC-CE2A-409D-8CDA-B893D340B5FD";
paths = (
{
closed = 1;
nodes = (
"138 -89 OFFCURVE",
"127 -138 OFFCURVE",
"104 -138 CURVE SMOOTH",
"91 -138 OFFCURVE",
"85 -122 OFFCURVE",
"85 -89 CURVE SMOOTH",
"85 -26 OFFCURVE",
"100 55 OFFCURVE",
"131 152 CURVE",
"136 90 OFFCURVE",
"138 42 OFFCURVE",
"138 9 CURVE SMOOTH"
);
},
{
closed = 1;
nodes = (
"-1 -167 OFFCURVE",
"32 -209 OFFCURVE",
"98 -209 CURVE SMOOTH",
"171 -209 OFFCURVE",
"208 -137 OFFCURVE",
"208 6 CURVE SMOOTH",
"208 34 OFFCURVE",
"204 75 OFFCURVE",
"197 129 CURVE",
"205 129 LINE SMOOTH",
"273 129 OFFCURVE",
"343 155 OFFCURVE",
"343 215 CURVE SMOOTH",
"343 233 OFFCURVE",
"337 242 OFFCURVE",
"326 242 CURVE SMOOTH",
"323 242 OFFCURVE",
"314 239 OFFCURVE",
"297 232 CURVE SMOOTH",
"280 225 OFFCURVE",
"255 218 OFFCURVE",
"220 211 CURVE SMOOTH",
"185 204 OFFCURVE",
"161 199 OFFCURVE",
"147 194 CURVE",
"164 233 LINE",
"179 264 OFFCURVE",
"186 287 OFFCURVE",
"186 302 CURVE SMOOTH",
"186 320 OFFCURVE",
"177 329 OFFCURVE",
"160 329 CURVE SMOOTH",
"104 329 OFFCURVE",
"88 317 OFFCURVE",
"71 277 CURVE SMOOTH",
"38 198 OFFCURVE",
"16 106 OFFCURVE",
"5 1 CURVE SMOOTH",
"1 -35 OFFCURVE",
"-1 -63 OFFCURVE",
"-1 -84 CURVE SMOOTH"
);
}
);
width = 217;
}
);
note = dotlessj;
unicode = 0237;
},
{
glyphname = k;
lastChange = "2016-07-15 07:31:59 +0000";
layers = (
{
layerId = "90775AEC-CE2A-409D-8CDA-B893D340B5FD";
paths = (
{
closed = 1;
nodes = (
"291 564 OFFCURVE",
"295 559 OFFCURVE",
"295 550 CURVE SMOOTH",
"295 478 OFFCURVE",
"257 439 OFFCURVE",
"214 386 CURVE SMOOTH",
"192 359 OFFCURVE",
"174 337 OFFCURVE",
"161 318 CURVE",
"173 413 OFFCURVE",
"232 564 OFFCURVE",
"283 564 CURVE SMOOTH"
);
},
{
closed = 1;
nodes = (
"249 22 OFFCURVE",
"300 -9 OFFCURVE",
"340 -9 CURVE SMOOTH",
"404 -9 OFFCURVE",
"508 66 OFFCURVE",
"508 105 CURVE SMOOTH",
"508 125 OFFCURVE",
"491 147 OFFCURVE",
"475 147 CURVE SMOOTH",
"466 147 OFFCURVE",
"460 142 OFFCURVE",
"455 132 CURVE",
"440 111 OFFCURVE",
"425 95 OFFCURVE",
"411 84 CURVE SMOOTH",
"396 73 OFFCURVE",
"386 67 OFFCURVE",
"380 66 CURVE",
"373 64 OFFCURVE",
"370 62 OFFCURVE",
"370 61 CURVE",
"359 59 OFFCURVE",
"350 58 OFFCURVE",
"343 58 CURVE SMOOTH",
"328 58 OFFCURVE",
"321 63 OFFCURVE",
"321 73 CURVE SMOOTH",
"321 108 OFFCURVE",
"363 140 OFFCURVE",
"395 158 CURVE SMOOTH",
"426 176 OFFCURVE",
"456 212 OFFCURVE",
"456 254 CURVE SMOOTH",
"456 296 OFFCURVE",
"432 318 OFFCURVE",
"392 318 CURVE SMOOTH",
"295 318 OFFCURVE",
"190 211 OFFCURVE",
"125 79 CURVE",
"125 88 OFFCURVE",
"139 190 OFFCURVE",
"143 206 CURVE",
"166 232 LINE SMOOTH",
"313 395 OFFCURVE",
"387 513 OFFCURVE",
"387 586 CURVE SMOOTH",
"387 634 OFFCURVE",
"361 663 OFFCURVE",
"310 663 CURVE SMOOTH",
"226 663 OFFCURVE",
"156 591 OFFCURVE",
"119 502 CURVE SMOOTH",
"82 413 OFFCURVE",
"42 254 OFFCURVE",
"42 94 CURVE SMOOTH",
"42 79 OFFCURVE",
"42 70 OFFCURVE",
"43 65 CURVE SMOOTH",
"44 60 OFFCURVE",
"44 56 OFFCURVE",
"45 53 CURVE",
"45 48 OFFCURVE",
"51 29 OFFCURVE",
"56 18 CURVE SMOOTH",
"61 6 OFFCURVE",
"74 -5 OFFCURVE",
"87 -5 CURVE SMOOTH",
"124 -5 OFFCURVE",
"161 20 OFFCURVE",
"196 70 CURVE SMOOTH",
"227 113 OFFCURVE",
"279 210 OFFCURVE",
"352 210 CURVE SMOOTH",
"355 210 OFFCURVE",
"355 209 OFFCURVE",
"353 206 CURVE",
"351 196 OFFCURVE",
"333 180 OFFCURVE",
"298 158 CURVE SMOOTH",
"274 142 OFFCURVE",
"249 112 OFFCURVE",
"249 79 CURVE SMOOTH"
);
}
);
width = 440;
}
);
note = k;
unicode = 006B;
},
{
glyphname = kgreenlandic;
lastChange = "2016-07-15 07:31:59 +0000";
layers = (
{
layerId = "90775AEC-CE2A-409D-8CDA-B893D340B5FD";
paths = (
{
closed = 1;
nodes = (
"217 396 OFFCURVE",
"221 391 OFFCURVE",
"221 381 CURVE SMOOTH",
"221 361 OFFCURVE",
"191 316 OFFCURVE",
"152 283 CURVE",
"166 358 OFFCURVE",
"185 396 OFFCURVE",
"208 396 CURVE SMOOTH"
);
},
{
closed = 1;
nodes = (
"249 22 OFFCURVE",
"300 -9 OFFCURVE",
"340 -9 CURVE SMOOTH",
"404 -9 OFFCURVE",
"508 66 OFFCURVE",
"508 105 CURVE SMOOTH",
"508 125 OFFCURVE",
"491 147 OFFCURVE",
"475 147 CURVE SMOOTH",
"466 147 OFFCURVE",
"460 142 OFFCURVE",
"455 132 CURVE",
"440 111 OFFCURVE",
"425 95 OFFCURVE",
"411 84 CURVE SMOOTH",
"396 73 OFFCURVE",
"386 67 OFFCURVE",
"380 66 CURVE",
"373 64 OFFCURVE",
"370 62 OFFCURVE",
"370 61 CURVE",
"359 59 OFFCURVE",
"350 58 OFFCURVE",
"343 58 CURVE SMOOTH",
"328 58 OFFCURVE",
"321 63 OFFCURVE",
"321 73 CURVE SMOOTH",
"321 108 OFFCURVE",
"363 140 OFFCURVE",
"395 158 CURVE SMOOTH",
"426 176 OFFCURVE",
"456 212 OFFCURVE",
"456 254 CURVE SMOOTH",
"456 296 OFFCURVE",
"432 318 OFFCURVE",
"392 318 CURVE SMOOTH",
"295 318 OFFCURVE",
"190 211 OFFCURVE",
"125 79 CURVE",
"125 88 OFFCURVE",
"139 190 OFFCURVE",
"143 206 CURVE",
"240 271 OFFCURVE",
"285 343 OFFCURVE",
"285 392 CURVE SMOOTH",
"285 440 OFFCURVE",
"256 470 OFFCURVE",
"212 470 CURVE SMOOTH",
"179 470 OFFCURVE",
"149 449 OFFCURVE",
"122 406 CURVE SMOOTH",
"68 321 OFFCURVE",
"43 199 OFFCURVE",
"43 91 CURVE SMOOTH",
"43 46 OFFCURVE",
"51 16 OFFCURVE",
"68 2 CURVE SMOOTH",
"74 -3 OFFCURVE",
"80 -5 OFFCURVE",
"87 -5 CURVE SMOOTH",
"124 -5 OFFCURVE",
"161 20 OFFCURVE",
"196 70 CURVE SMOOTH",
"227 113 OFFCURVE",
"279 210 OFFCURVE",
"352 210 CURVE SMOOTH",
"355 210 OFFCURVE",
"355 209 OFFCURVE",
"353 206 CURVE",
"351 196 OFFCURVE",
"333 180 OFFCURVE",
"298 158 CURVE SMOOTH",
"274 142 OFFCURVE",
"249 112 OFFCURVE",
"249 79 CURVE SMOOTH"
);
}
);
width = 440;
}
);
note = kgreenlandic;
unicode = 0138;
},
{
glyphname = l;
lastChange = "2016-07-15 07:31:59 +0000";
layers = (
{
layerId = "90775AEC-CE2A-409D-8CDA-B893D340B5FD";
paths = (
{
closed = 1;
nodes = (
"299 558 OFFCURVE",
"303 552 OFFCURVE",
"303 539 CURVE SMOOTH",
"302 486 OFFCURVE",
"228 341 OFFCURVE",
"160 260 CURVE",
"181 393 OFFCURVE",
"238 558 OFFCURVE",
"290 558 CURVE SMOOTH"
);
},
{
closed = 1;
nodes = (
"233 -5 OFFCURVE",
"287 24 OFFCURVE",
"338 82 CURVE",
"347 91 OFFCURVE",
"352 101 OFFCURVE",
"352 112 CURVE SMOOTH",
"352 132 OFFCURVE",
"333 148 OFFCURVE",
"316 148 CURVE SMOOTH",
"307 148 OFFCURVE",
"300 145 OFFCURVE",
"294 138 CURVE SMOOTH",
"255 94 OFFCURVE",
"220 72 OFFCURVE",
"189 72 CURVE SMOOTH",
"161 72 OFFCURVE",
"147 97 OFFCURVE",
"147 148 CURVE SMOOTH",
"147 156 OFFCURVE",
"148 164 OFFCURVE",
"149 172 CURVE",
"270 268 OFFCURVE",
"391 473 OFFCURVE",
"391 577 CURVE SMOOTH",
"391 629 OFFCURVE",
"367 655 OFFCURVE",
"320 655 CURVE SMOOTH",
"247 655 OFFCURVE",
"180 583 OFFCURVE",
"137 482 CURVE SMOOTH",
"94 380 OFFCURVE",
"67 280 OFFCURVE",
"57 181 CURVE",
"56 175 OFFCURVE",
"56 166 OFFCURVE",
"56 155 CURVE SMOOTH",
"56 60 OFFCURVE",
"102 -5 OFFCURVE",
"174 -5 CURVE SMOOTH"
);
}
);
width = 247;
}
);
note = l;
unicode = 006C;
},
{
glyphname = m;
lastChange = "2016-07-15 07:31:59 +0000";
layers = (
{
layerId = "90775AEC-CE2A-409D-8CDA-B893D340B5FD";
paths = (
{
closed = 1;
nodes = (
"205 19 OFFCURVE",
"221 2 OFFCURVE",
"253 2 CURVE SMOOTH",
"268 2 OFFCURVE",
"280 11 OFFCURVE",
"290 29 CURVE",
"325 106 OFFCURVE",
"349 157 OFFCURVE",
"363 181 CURVE SMOOTH",
"377 205 OFFCURVE",
"389 224 OFFCURVE",
"400 239 CURVE",
"371 176 OFFCURVE",
"357 120 OFFCURVE",
"357 72 CURVE SMOOTH",
"357 29 OFFCURVE",
"379 -2 OFFCURVE",
"435 -2 CURVE SMOOTH",
"490 -2 OFFCURVE",
"560 40 OFFCURVE",
"604 100 CURVE",
"605 101 OFFCURVE",
"605 103 OFFCURVE",
"605 107 CURVE SMOOTH",
"605 115 OFFCURVE",
"583 137 OFFCURVE",
"570 137 CURVE SMOOTH",
"563 137 OFFCURVE",
"559 135 OFFCURVE",
"556 131 CURVE",
"517 84 OFFCURVE",
"485 60 OFFCURVE",
"460 60 CURVE SMOOTH",
"443 60 OFFCURVE",
"434 73 OFFCURVE",
"434 100 CURVE SMOOTH",
"434 149 OFFCURVE",
"453 201 OFFCURVE",
"466 246 CURVE SMOOTH",
"477 281 OFFCURVE",
"483 302 OFFCURVE",
"483 308 CURVE SMOOTH",
"483 319 OFFCURVE",
"466 333 OFFCURVE",
"441 333 CURVE SMOOTH",
"387 333 OFFCURVE",
"333 273 OFFCURVE",
"279 152 CURVE",
"282 165 OFFCURVE",
"286 183 OFFCURVE",
"291 206 CURVE SMOOTH",
"302 255 OFFCURVE",
"308 286 OFFCURVE",
"308 298 CURVE SMOOTH",
"308 322 OFFCURVE",
"285 335 OFFCURVE",
"265 335 CURVE SMOOTH",
"245 335 OFFCURVE",
"222 320 OFFCURVE",
"195 289 CURVE SMOOTH",
"168 258 OFFCURVE",
"141 209 OFFCURVE",
"114 143 CURVE",
"114 182 OFFCURVE",
"124 234 OFFCURVE",
"143 297 CURVE",
"144 298 OFFCURVE",
"144 302 OFFCURVE",
"144 308 CURVE SMOOTH",
"144 319 OFFCURVE",
"130 330 OFFCURVE",
"113 330 CURVE SMOOTH",
"111 330 LINE SMOOTH",
"94 330 OFFCURVE",
"81 321 OFFCURVE",
"73 303 CURVE",
"48 230 OFFCURVE",
"35 164 OFFCURVE",
"35 103 CURVE SMOOTH",
"35 96 OFFCURVE",
"36 88 OFFCURVE",
"37 77 CURVE",
"38 26 OFFCURVE",
"55 0 OFFCURVE",
"87 0 CURVE SMOOTH",
"98 0 OFFCURVE",
"107 4 OFFCURVE",
"116 11 CURVE",
"133 26 OFFCURVE",
"148 62 OFFCURVE",
"164 96 CURVE SMOOTH",
"180 130 OFFCURVE",
"184 138 OFFCURVE",
"197 162 CURVE SMOOTH",
"211 187 OFFCURVE",
"226 210 OFFCURVE",
"243 233 CURVE",
"220 163 OFFCURVE",
"208 109 OFFCURVE",
"206 71 CURVE SMOOTH",
"205 53 LINE"
);
}
);
width = 489;
}
);
note = m;
unicode = 006D;
},
{
color = 3;
glyphname = n;
lastChange = "2016-07-15 15:02:00 +0000";
layers = (
{
background = {
paths = (
{
closed = 1;
nodes = (
"253 331 OFFCURVE",
"181 270 OFFCURVE",
"119 163 CURVE",
"126 205 OFFCURVE",
"139 239 OFFCURVE",
"148 261 CURVE SMOOTH",
"157 282 OFFCURVE",
"161 296 OFFCURVE",
"161 303 CURVE SMOOTH",
"161 316 OFFCURVE",
"156 329 OFFCURVE",
"121 329 CURVE SMOOTH",
"93 329 OFFCURVE",
"78 316 OFFCURVE",
"67 289 CURVE SMOOTH",
"38 219 OFFCURVE",
"24 146 OFFCURVE",
"24 79 CURVE SMOOTH",
"24 13 OFFCURVE",
"38 -5 OFFCURVE",
"70 -5 CURVE SMOOTH",
"99 -5 OFFCURVE",
"109 5 OFFCURVE",
"121 38 CURVE SMOOTH",
"153 125 OFFCURVE",
"212 221 OFFCURVE",
"248 221 CURVE SMOOTH",
"253 221 OFFCURVE",
"254 216 OFFCURVE",
"254 213 CURVE SMOOTH",
"254 188 OFFCURVE",
"219 114 OFFCURVE",
"219 72 CURVE SMOOTH",
"219 15 OFFCURVE",
"259 -5 OFFCURVE",
"304 -5 CURVE SMOOTH",
"367 -5 OFFCURVE",
"412 36 OFFCURVE",
"445 85 CURVE SMOOTH",
"455 100 OFFCURVE",
"458 119 OFFCURVE",
"445 132 CURVE SMOOTH",
"434 143 OFFCURVE",
"420 145 OFFCURVE",
"411 132 CURVE SMOOTH",
"381 89 OFFCURVE",
"360 69 OFFCURVE",
"338 69 CURVE SMOOTH",
"325 69 OFFCURVE",
"314 78 OFFCURVE",
"314 98 CURVE SMOOTH",
"314 136 OFFCURVE",
"367 238 OFFCURVE",
"367 287 CURVE SMOOTH",
"367 316 OFFCURVE",
"352 331 OFFCURVE",
"320 331 CURVE SMOOTH"
);
}
);
};
layerId = "90775AEC-CE2A-409D-8CDA-B893D340B5FD";
paths = (
{
closed = 1;
nodes = (
"253 331 OFFCURVE",
"181 270 OFFCURVE",
"119 159 CURVE",
"126 205 OFFCURVE",
"139 239 OFFCURVE",
"148 261 CURVE SMOOTH",
"157 282 OFFCURVE",
"161 296 OFFCURVE",
"161 303 CURVE SMOOTH",
"161 316 OFFCURVE",
"156 329 OFFCURVE",
"121 329 CURVE SMOOTH",
"93 329 OFFCURVE",
"78 316 OFFCURVE",
"67 289 CURVE SMOOTH",
"38 219 OFFCURVE",
"24 146 OFFCURVE",
"24 79 CURVE SMOOTH",
"24 13 OFFCURVE",
"38 -5 OFFCURVE",
"70 -5 CURVE SMOOTH",
"99 -5 OFFCURVE",
"110 5 OFFCURVE",
"121 38 CURVE SMOOTH",
"151 127 OFFCURVE",
"222 228 OFFCURVE",
"248 228 CURVE SMOOTH",
"253 228 OFFCURVE",
"254 223 OFFCURVE",
"254 220 CURVE SMOOTH",
"254 185 OFFCURVE",
"219 114 OFFCURVE",
"219 72 CURVE SMOOTH",
"219 15 OFFCURVE",
"259 -5 OFFCURVE",
"304 -5 CURVE SMOOTH",
"367 -5 OFFCURVE",
"412 36 OFFCURVE",
"445 85 CURVE SMOOTH",
"455 100 OFFCURVE",
"458 119 OFFCURVE",
"445 132 CURVE SMOOTH",
"434 143 OFFCURVE",
"420 145 OFFCURVE",
"411 132 CURVE SMOOTH",
"381 89 OFFCURVE",
"360 69 OFFCURVE",
"338 69 CURVE SMOOTH",
"325 69 OFFCURVE",
"316 78 OFFCURVE",
"316 98 CURVE SMOOTH",
"316 136 OFFCURVE",
"365 238 OFFCURVE",
"365 287 CURVE SMOOTH",
"365 316 OFFCURVE",
"350 331 OFFCURVE",
"320 331 CURVE SMOOTH"
);
}
);
width = 384;
}
);
note = n;
unicode = 006E;
},
{
glyphname = eng;
lastChange = "2016-07-15 07:31:59 +0000";
layers = (
{
layerId = "90775AEC-CE2A-409D-8CDA-B893D340B5FD";
paths = (
{
closed = 1;
nodes = (
"54 -124 OFFCURVE",
"54 -124 OFFCURVE",
"54 -123 CURVE SMOOTH",
"54 -122 OFFCURVE",
"54 -121 OFFCURVE",
"54 -120 CURVE SMOOTH",
"54 -119 OFFCURVE",
"54 -119 OFFCURVE",
"54 -119 CURVE SMOOTH",
"54 -119 OFFCURVE",
"54 -119 OFFCURVE",
"55 -119 CURVE",
"59 -108 OFFCURVE",
"70 -94 OFFCURVE",
"88 -77 CURVE SMOOTH",
"106 -60 OFFCURVE",
"133 -44 OFFCURVE",
"169 -28 CURVE",
"142 -61 OFFCURVE",
"78 -120 OFFCURVE",
"58 -120 CURVE SMOOTH",
"58 -120 OFFCURVE",
"58 -120 OFFCURVE",
"57 -120 CURVE SMOOTH",
"56 -120 OFFCURVE",
"56 -120 OFFCURVE",
"56 -120 CURVE",
"57 -122 OFFCURVE",
"57 -123 OFFCURVE",
"55 -124 CURVE"
);
},
{
closed = 1;
nodes = (
"-21 -173 OFFCURVE",
"0 -192 OFFCURVE",
"43 -192 CURVE SMOOTH",
"64 -192 OFFCURVE",
"92 -179 OFFCURVE",
"127 -154 CURVE SMOOTH",
"182 -117 OFFCURVE",
"226 -60 OFFCURVE",
"259 17 CURVE",
"275 26 OFFCURVE",
"297 35 OFFCURVE",
"326 42 CURVE SMOOTH",
"387 58 OFFCURVE",
"418 77 OFFCURVE",
"418 98 CURVE SMOOTH",
"418 106 OFFCURVE",
"413 110 OFFCURVE",
"403 110 CURVE SMOOTH",
"400 110 OFFCURVE",
"397 110 OFFCURVE",
"395 109 CURVE",
"393 109 LINE SMOOTH",
"376 109 OFFCURVE",
"307 87 OFFCURVE",
"271 70 CURVE",
"299 146 LINE SMOOTH",
"318 193 OFFCURVE",
"328 237 OFFCURVE",
"328 278 CURVE SMOOTH",
"328 311 OFFCURVE",
"320 328 OFFCURVE",
"293 328 CURVE SMOOTH",
"280 328 OFFCURVE",
"267 324 OFFCURVE",
"255 315 CURVE SMOOTH",
"230 297 OFFCURVE",
"217 281 OFFCURVE",
"177 233 CURVE SMOOTH",
"156 208 OFFCURVE",
"138 188 OFFCURVE",
"123 171 CURVE",
"127 180 OFFCURVE",
"139 219 OFFCURVE",
"159 287 CURVE",
"160 294 OFFCURVE",
"161 298 OFFCURVE",
"161 301 CURVE SMOOTH",
"161 322 OFFCURVE",
"151 332 OFFCURVE",
"130 332 CURVE SMOOTH",
"103 332 OFFCURVE",
"86 319 OFFCURVE",
"77 292 CURVE SMOOTH",
"51 207 OFFCURVE",
"38 137 OFFCURVE",
"38 81 CURVE SMOOTH",
"38 58 LINE SMOOTH",
"38 19 OFFCURVE",
"50 0 OFFCURVE",
"73 0 CURVE SMOOTH",
"83 0 OFFCURVE",
"93 8 OFFCURVE",
"102 23 CURVE",
"104 27 OFFCURVE",
"107 33 OFFCURVE",
"112 40 CURVE SMOOTH",
"117 47 OFFCURVE",
"121 54 OFFCURVE",
"124 59 CURVE",
"137 72 OFFCURVE",
"155 95 OFFCURVE",
"178 128 CURVE SMOOTH",
"201 161 OFFCURVE",
"224 187 OFFCURVE",
"247 205 CURVE",
"244 197 OFFCURVE",
"241 190 OFFCURVE",
"238 183 CURVE SMOOTH",
"232 169 OFFCURVE",
"229 162 OFFCURVE",
"227 155 CURVE SMOOTH",
"225 148 OFFCURVE",
"221 142 OFFCURVE",
"220 141 CURVE",
"181 39 LINE",
"136 20 OFFCURVE",
"101 -1 OFFCURVE",
"76 -23 CURVE",
"67 -30 OFFCURVE",
"55 -39 OFFCURVE",
"41 -52 CURVE SMOOTH",
"26 -65 OFFCURVE",
"17 -74 OFFCURVE",
"12 -78 CURVE",
"-10 -104 OFFCURVE",
"-21 -127 OFFCURVE",
"-21 -148 CURVE SMOOTH"
);
},
{
closed = 1;
nodes = (
"55 -119 OFFCURVE",
"55 -119 OFFCURVE",
"55 -120 CURVE",
"55 -120 OFFCURVE",
"55 -120 OFFCURVE",
"56 -120 CURVE",
"55 -119 LINE"
);
}
);
width = 321;
}
);
note = eng;
unicode = 014B;
},
{
glyphname = o;
lastChange = "2016-07-15 07:31:59 +0000";
layers = (
{
layerId = "90775AEC-CE2A-409D-8CDA-B893D340B5FD";
paths = (
{
closed = 1;
nodes = (
"146 66 OFFCURVE",
"126 94 OFFCURVE",
"126 145 CURVE SMOOTH",
"126 196 OFFCURVE",
"162 256 OFFCURVE",
"217 256 CURVE SMOOTH",
"218 256 LINE",
"236 253 LINE",
"216 228 OFFCURVE",
"206 204 OFFCURVE",
"206 180 CURVE SMOOTH",
"206 155 OFFCURVE",
"219 138 OFFCURVE",
"246 128 CURVE",
"241 93 OFFCURVE",
"219 66 OFFCURVE",
"182 66 CURVE SMOOTH"
);
},
{
closed = 1;
nodes = (
"44 49 OFFCURVE",
"98 -6 OFFCURVE",
"174 -6 CURVE SMOOTH",
"240 -6 OFFCURVE",
"288 33 OFFCURVE",
"317 110 CURVE",
"388 133 OFFCURVE",
"436 162 OFFCURVE",
"462 196 CURVE",
"464 199 OFFCURVE",
"465 203 OFFCURVE",
"465 210 CURVE SMOOTH",
"465 222 OFFCURVE",
"449 243 OFFCURVE",
"437 243 CURVE SMOOTH",
"430 243 OFFCURVE",
"425 241 OFFCURVE",
"421 237 CURVE SMOOTH",
"396 212 OFFCURVE",
"365 193 OFFCURVE",
"328 180 CURVE",
"330 191 OFFCURVE",
"331 202 OFFCURVE",
"331 212 CURVE SMOOTH",
"331 280 OFFCURVE",
"289 330 OFFCURVE",
"222 330 CURVE SMOOTH",
"121 330 OFFCURVE",
"44 237 OFFCURVE",
"44 126 CURVE SMOOTH"
);
}
);
width = 346;
}
);
note = o;
unicode = 006F;
},
{
glyphname = oslash;
lastChange = "2016-07-15 07:31:59 +0000";
layers = (
{
layerId = "90775AEC-CE2A-409D-8CDA-B893D340B5FD";
paths = (
{
closed = 1;
nodes = (
"403 398 OFFCURVE",
"397 401 OFFCURVE",
"391 401 CURVE SMOOTH",
"384 401 OFFCURVE",
"378 399 OFFCURVE",
"372 395 CURVE SMOOTH",
"323 361 OFFCURVE",
"274 317 OFFCURVE",
"223 264 CURVE SMOOTH",
"121 157 OFFCURVE",
"88 110 OFFCURVE",
"33 35 CURVE SMOOTH",
"5 -3 OFFCURVE",
"-11 -25 OFFCURVE",
"-15 -30 CURVE",
"-20 -35 OFFCURVE",
"-22 -41 OFFCURVE",
"-22 -46 CURVE SMOOTH",
"-22 -58 OFFCURVE",
"-12 -66 OFFCURVE",
"-4 -66 CURVE SMOOTH",
"0 -66 OFFCURVE",
"4 -64 OFFCURVE",
"7 -60 CURVE SMOOTH",
"140 127 OFFCURVE",
"273 267 OFFCURVE",
"407 358 CURVE",
"412 362 OFFCURVE",
"415 367 OFFCURVE",
"415 374 CURVE SMOOTH",
"415 381 OFFCURVE",
"413 387 OFFCURVE",
"408 393 CURVE"
);
},
{
closed = 1;
nodes = (
"219 66 OFFCURVE",
"241 93 OFFCURVE",
"246 128 CURVE",
"219 138 OFFCURVE",
"206 156 OFFCURVE",
"206 182 CURVE SMOOTH",
"206 205 OFFCURVE",
"216 228 OFFCURVE",
"236 253 CURVE",
"218 256 LINE",
"217 256 LINE SMOOTH",
"162 256 OFFCURVE",
"126 198 OFFCURVE",
"126 139 CURVE SMOOTH",
"126 96 OFFCURVE",
"146 66 OFFCURVE",
"182 66 CURVE SMOOTH"
);
},
{
closed = 1;
nodes = (
"44 237 OFFCURVE",
"121 330 OFFCURVE",
"222 330 CURVE SMOOTH",
"289 330 OFFCURVE",
"331 280 OFFCURVE",
"331 212 CURVE SMOOTH",
"331 202 OFFCURVE",
"330 191 OFFCURVE",
"328 180 CURVE",
"365 193 OFFCURVE",
"396 212 OFFCURVE",
"421 237 CURVE SMOOTH",
"425 241 OFFCURVE",
"430 243 OFFCURVE",
"435 243 CURVE SMOOTH",
"450 243 OFFCURVE",
"465 223 OFFCURVE",
"465 207 CURVE SMOOTH",
"465 202 OFFCURVE",
"464 199 OFFCURVE",
"462 196 CURVE",
"436 162 OFFCURVE",
"388 133 OFFCURVE",
"317 110 CURVE",
"288 33 OFFCURVE",
"240 -6 OFFCURVE",
"174 -6 CURVE SMOOTH",
"98 -6 OFFCURVE",
"44 49 OFFCURVE",
"44 126 CURVE SMOOTH"
);
}
);
width = 332;
}
);
note = oslash;
unicode = 00F8;
},
{
glyphname = oe;
lastChange = "2016-07-15 07:31:59 +0000";
layers = (
{
layerId = "90775AEC-CE2A-409D-8CDA-B893D340B5FD";
paths = (
{
closed = 1;
nodes = (
"381 251 OFFCURVE",
"390 244 OFFCURVE",
"390 231 CURVE SMOOTH",
"390 221 OFFCURVE",
"384 211 OFFCURVE",
"373 202 CURVE SMOOTH",
"361 192 OFFCURVE",
"342 180 OFFCURVE",
"317 167 CURVE SMOOTH",
"292 154 OFFCURVE",
"279 147 OFFCURVE",
"278 146 CURVE",
"278 201 OFFCURVE",
"325 251 OFFCURVE",
"362 251 CURVE SMOOTH"
);
},
{
closed = 1;
nodes = (
"108 183 OFFCURVE",
"116 216 OFFCURVE",
"125 229 CURVE SMOOTH",
"142 253 OFFCURVE",
"188 267 OFFCURVE",
"188 192 CURVE SMOOTH",
"188 155 OFFCURVE",
"183 126 OFFCURVE",
"172 107 CURVE SMOOTH",
"161 88 OFFCURVE",
"148 78 OFFCURVE",
"133 77 CURVE",
"112 80 OFFCURVE",
"102 95 OFFCURVE",
"102 121 CURVE",
"103 131 LINE SMOOTH"
);
},
{
closed = 1;
nodes = (
"409 -6 OFFCURVE",
"489 38 OFFCURVE",
"525 86 CURVE SMOOTH",
"530 93 OFFCURVE",
"533 101 OFFCURVE",
"533 109 CURVE SMOOTH",
"533 125 OFFCURVE",
"519 139 OFFCURVE",
"504 139 CURVE SMOOTH",
"497 139 OFFCURVE",
"491 137 OFFCURVE",
"486 132 CURVE",
"447 96 OFFCURVE",
"391 73 OFFCURVE",
"339 73 CURVE SMOOTH",
"312 73 OFFCURVE",
"294 82 OFFCURVE",
"285 99 CURVE",
"412 132 OFFCURVE",
"460 167 OFFCURVE",
"460 232 CURVE SMOOTH",
"460 297 OFFCURVE",
"419 329 OFFCURVE",
"362 329 CURVE SMOOTH",
"318 329 OFFCURVE",
"279 309 OFFCURVE",
"244 268 CURVE",
"221 307 OFFCURVE",
"192 326 OFFCURVE",
"159 326 CURVE SMOOTH",
"92 326 OFFCURVE",
"9 264 OFFCURVE",
"9 125 CURVE SMOOTH",
"9 43 OFFCURVE",
"47 2 OFFCURVE",
"122 2 CURVE SMOOTH",
"146 2 OFFCURVE",
"175 15 OFFCURVE",
"209 41 CURVE",
"234 10 OFFCURVE",
"275 -6 OFFCURVE",
"332 -6 CURVE SMOOTH"
);
}
);
width = 471;
}
);
note = oe;
unicode = 0153;
},
{
glyphname = p;
lastChange = "2016-07-15 07:31:59 +0000";
layers = (
{
layerId = "90775AEC-CE2A-409D-8CDA-B893D340B5FD";
paths = (
{
closed = 1;
nodes = (
"156 68 OFFCURVE",
"144 73 OFFCURVE",
"129 84 CURVE",
"141 124 LINE SMOOTH",
"161 190 OFFCURVE",
"181 230 OFFCURVE",
"202 244 CURVE SMOOTH",
"213 251 OFFCURVE",
"225 254 OFFCURVE",
"238 254 CURVE SMOOTH",
"251 254 OFFCURVE",
"261 247 OFFCURVE",
"268 232 CURVE",
"237 212 OFFCURVE",
"226 207 OFFCURVE",
"226 173 CURVE SMOOTH",
"226 156 OFFCURVE",
"235 143 OFFCURVE",
"254 135 CURVE",
"237 104 OFFCURVE",
"216 84 OFFCURVE",
"192 73 CURVE",
"183 70 OFFCURVE",
"175 68 OFFCURVE",
"167 68 CURVE SMOOTH"
);
},
{
closed = 1;
nodes = (
"13 -250 OFFCURVE",
"45 -227 OFFCURVE",
"53 -208 CURVE",
"54 -208 LINE SMOOTH",
"63 -208 OFFCURVE",
"77 -163 OFFCURVE",
"96 -72 CURVE",
"101 -52 OFFCURVE",
"105 -33 OFFCURVE",
"109 -16 CURVE",
"112 1 OFFCURVE",
"114 11 OFFCURVE",
"115 14 CURVE",
"132 -1 OFFCURVE",
"149 -8 OFFCURVE",
"165 -8 CURVE SMOOTH",
"240 -8 OFFCURVE",
"306 53 OFFCURVE",
"338 136 CURVE",
"401 157 OFFCURVE",
"488 221 OFFCURVE",
"523 262 CURVE",
"530 265 OFFCURVE",
"534 272 OFFCURVE",
"535 281 CURVE",
"536 299 OFFCURVE",
"524 315 OFFCURVE",
"516 316 CURVE",
"512 317 OFFCURVE",
"510 318 OFFCURVE",
"509 319 CURVE SMOOTH",
"508 320 OFFCURVE",
"507 321 OFFCURVE",
"506 320 CURVE SMOOTH",
"489 303 OFFCURVE",
"474 289 OFFCURVE",
"463 278 CURVE",
"440 257 OFFCURVE",
"387 214 OFFCURVE",
"356 206 CURVE",
"357 215 OFFCURVE",
"357 223 OFFCURVE",
"357 231 CURVE SMOOTH",
"357 290 OFFCURVE",
"329 331 OFFCURVE",
"267 331 CURVE SMOOTH",
"205 331 OFFCURVE",
"156 312 OFFCURVE",
"121 259 CURVE SMOOTH",
"85 206 OFFCURVE",
"77 183 OFFCURVE",
"60 133 CURVE SMOOTH",
"51 108 OFFCURVE",
"45 90 OFFCURVE",
"41 80 CURVE SMOOTH",
"33 60 OFFCURVE",
"-27 -210 OFFCURVE",
"-27 -233 CURVE SMOOTH",
"-27 -245 OFFCURVE",
"-25 -251 OFFCURVE",
"-21 -251 CURVE",
"-10 -250 LINE"
);
}
);
width = 365;
}
);
note = p;
unicode = 0070;
},
{
glyphname = thorn;
lastChange = "2016-07-15 07:31:59 +0000";
layers = (
{
layerId = "90775AEC-CE2A-409D-8CDA-B893D340B5FD";
paths = (
{
closed = 1;
nodes = (
"154 78 OFFCURVE",
"131 84 OFFCURVE",
"122 95 CURVE",
"131 198 OFFCURVE",
"163 249 OFFCURVE",
"216 249 CURVE SMOOTH",
"246 249 OFFCURVE",
"261 228 OFFCURVE",
"261 185 CURVE SMOOTH",
"261 148 OFFCURVE",
"225 78 OFFCURVE",
"190 78 CURVE SMOOTH"
);
},
{
closed = 1;
nodes = (
"-16 -219 OFFCURVE",
"3 -231 OFFCURVE",
"25 -231 CURVE SMOOTH",
"47 -231 OFFCURVE",
"66 -219 OFFCURVE",
"70 -200 CURVE SMOOTH",
"110 24 LINE",
"142 8 OFFCURVE",
"171 0 OFFCURVE",
"197 0 CURVE SMOOTH",
"222 0 OFFCURVE",
"246 9 OFFCURVE",
"269 27 CURVE",
"308 28 OFFCURVE",
"377 67 OFFCURVE",
"428 118 CURVE",
"442 131 OFFCURVE",
"449 147 OFFCURVE",
"449 165 CURVE SMOOTH",
"449 183 OFFCURVE",
"442 192 OFFCURVE",
"429 192 CURVE SMOOTH",
"422 192 OFFCURVE",
"415 189 OFFCURVE",
"408 182 CURVE",
"345 129 OFFCURVE",
"308 103 OFFCURVE",
"297 103 CURVE",
"320 127 OFFCURVE",
"331 160 OFFCURVE",
"331 202 CURVE SMOOTH",
"331 274 OFFCURVE",
"302 329 OFFCURVE",
"246 329 CURVE SMOOTH",
"231 329 OFFCURVE",
"217 327 OFFCURVE",
"205 322 CURVE",
"180 313 OFFCURVE",
"177 307 OFFCURVE",
"158 290 CURVE",
"198 494 LINE",
"199 501 OFFCURVE",
"200 508 OFFCURVE",
"200 515 CURVE SMOOTH",
"200 530 OFFCURVE",
"185 544 OFFCURVE",
"164 544 CURVE SMOOTH",
"143 544 OFFCURVE",
"119 528 OFFCURVE",
"115 505 CURVE SMOOTH",
"108 469 OFFCURVE",
"93 386 OFFCURVE",
"69 256 CURVE SMOOTH",
"-15 -191 LINE",
"-16 -198 LINE"
);
}
);
width = 355;
}
);
note = thorn;
unicode = 00FE;
},
{
glyphname = q;
lastChange = "2016-07-15 07:31:59 +0000";
layers = (
{
layerId = "90775AEC-CE2A-409D-8CDA-B893D340B5FD";
paths = (
{
closed = 1;
nodes = (
"218 58 OFFCURVE",
"218 56 OFFCURVE",
"217 55 CURVE",
"214 54 OFFCURVE",
"209 54 OFFCURVE",
"204 54 CURVE SMOOTH",
"159 54 OFFCURVE",
"135 89 OFFCURVE",
"135 147 CURVE SMOOTH",
"135 205 OFFCURVE",
"177 273 OFFCURVE",
"234 273 CURVE SMOOTH",
"239 273 OFFCURVE",
"245 273 OFFCURVE",
"252 272 CURVE SMOOTH",
"270 269 LINE SMOOTH",
"275 268 OFFCURVE",
"277 268 OFFCURVE",
"277 267 CURVE SMOOTH",
"277 251 OFFCURVE",
"266 209 OFFCURVE",
"245 141 CURVE",
"222 134 OFFCURVE",
"209 113 OFFCURVE",
"209 90 CURVE SMOOTH",
"209 78 OFFCURVE",
"212 68 OFFCURVE",
"218 59 CURVE"
);
},
{
closed = 1;
nodes = (
"467 187 OFFCURVE",
"495 226 OFFCURVE",
"495 250 CURVE SMOOTH",
"495 263 OFFCURVE",
"481 280 OFFCURVE",
"465 280 CURVE SMOOTH",
"456 280 OFFCURVE",
"449 275 OFFCURVE",
"442 265 CURVE SMOOTH",
"435 255 OFFCURVE",
"425 244 OFFCURVE",
"414 231 CURVE",
"393 208 OFFCURVE",
"370 186 OFFCURVE",
"345 165 CURVE",
"360 214 OFFCURVE",
"367 250 OFFCURVE",
"367 271 CURVE SMOOTH",
"367 300 OFFCURVE",
"296 336 OFFCURVE",
"227 336 CURVE SMOOTH",
"111 332 OFFCURVE",
"44 241 OFFCURVE",
"44 146 CURVE SMOOTH",
"44 51 OFFCURVE",
"95 -17 OFFCURVE",
"183 -17 CURVE SMOOTH",
"191 -17 OFFCURVE",
"197 -17 OFFCURVE",
"202 -16 CURVE",
"191 -57 OFFCURVE",
"177 -105 OFFCURVE",
"158 -160 CURVE SMOOTH",
"139 -215 OFFCURVE",
"130 -243 OFFCURVE",
"130 -245 CURVE SMOOTH",
"130 -264 OFFCURVE",
"159 -284 OFFCURVE",
"192 -284 CURVE SMOOTH",
"208 -284 OFFCURVE",
"218 -275 OFFCURVE",
"223 -257 CURVE SMOOTH",
"283 -44 OFFCURVE",
"313 62 OFFCURVE",
"313 62 CURVE",
"340 71 OFFCURVE",
"373 94 OFFCURVE",
"412 133 CURVE SMOOTH"
);
}
);
width = 395;
}
);
note = q;
unicode = 0071;
},
{
glyphname = r;
lastChange = "2016-07-15 07:31:59 +0000";
layers = (
{
layerId = "90775AEC-CE2A-409D-8CDA-B893D340B5FD";
paths = (
{
closed = 1;
nodes = (
"200 199 OFFCURVE",
"199 193 OFFCURVE",
"199 188 CURVE SMOOTH",
"199 155 OFFCURVE",
"223 138 OFFCURVE",
"271 138 CURVE SMOOTH",
"318 138 OFFCURVE",
"365 156 OFFCURVE",
"411 193 CURVE",
"413 194 OFFCURVE",
"414 196 OFFCURVE",
"414 199 CURVE SMOOTH",
"414 214 OFFCURVE",
"389 244 OFFCURVE",
"376 244 CURVE SMOOTH",
"375 244 LINE",
"330 226 OFFCURVE",
"303 217 OFFCURVE",
"293 217 CURVE SMOOTH",
"282 217 OFFCURVE",
"277 219 OFFCURVE",
"277 222 CURVE SMOOTH",
"277 223 OFFCURVE",
"281 232 OFFCURVE",
"288 249 CURVE SMOOTH",
"295 266 OFFCURVE",
"299 282 OFFCURVE",
"299 296 CURVE SMOOTH",
"299 318 OFFCURVE",
"282 329 OFFCURVE",
"249 329 CURVE SMOOTH",
"216 329 OFFCURVE",
"142 227 OFFCURVE",
"110 152 CURVE",
"121 181 OFFCURVE",
"143 286 OFFCURVE",
"143 300 CURVE SMOOTH",
"143 314 OFFCURVE",
"129 330 OFFCURVE",
"109 330 CURVE SMOOTH",
"84 330 OFFCURVE",
"65 314 OFFCURVE",
"52 281 CURVE",
"35 222 OFFCURVE",
"26 158 OFFCURVE",
"26 91 CURVE SMOOTH",
"26 71 LINE SMOOTH",
"26 24 OFFCURVE",
"42 0 OFFCURVE",
"75 0 CURVE SMOOTH",
"99 0 OFFCURVE",
"116 10 OFFCURVE",
"127 30 CURVE",
"144 75 OFFCURVE",
"160 115 OFFCURVE",
"175 149 CURVE SMOOTH",
"190 182 OFFCURVE",
"199 201 OFFCURVE",
"201 206 CURVE"
);
}
);
width = 282;
}
);
note = r;
unicode = 0072;
},
{
glyphname = s;
lastChange = "2016-07-15 07:31:59 +0000";
layers = (
{
layerId = "90775AEC-CE2A-409D-8CDA-B893D340B5FD";
paths = (
{
closed = 1;
nodes = (
"143 61 OFFCURVE",
"128 67 OFFCURVE",
"105 80 CURVE",
"106 81 OFFCURVE",
"107 85 OFFCURVE",
"110 92 CURVE",
"112 98 OFFCURVE",
"118 110 OFFCURVE",
"127 129 CURVE SMOOTH",
"161 199 LINE",
"188 159 OFFCURVE",
"202 126 OFFCURVE",
"202 100 CURVE SMOOTH",
"202 74 OFFCURVE",
"187 61 OFFCURVE",
"157 61 CURVE SMOOTH",
"150 61 LINE SMOOTH"
);
},
{
closed = 1;
nodes = (
"298 -6 OFFCURVE",
"386 32 OFFCURVE",
"418 95 CURVE",
"421 102 OFFCURVE",
"423 109 OFFCURVE",
"423 118 CURVE SMOOTH",
"423 135 OFFCURVE",
"403 161 OFFCURVE",
"387 161 CURVE SMOOTH",
"378 161 OFFCURVE",
"372 158 OFFCURVE",
"367 152 CURVE",
"336 112 OFFCURVE",
"306 86 OFFCURVE",
"279 75 CURVE",
"285 85 OFFCURVE",
"288 95 OFFCURVE",
"288 105 CURVE SMOOTH",
"288 140 OFFCURVE",
"248 186 OFFCURVE",
"216 220 CURVE SMOOTH",
"200 237 OFFCURVE",
"192 249 OFFCURVE",
"192 258 CURVE SMOOTH",
"192 261 OFFCURVE",
"194 266 OFFCURVE",
"199 275 CURVE",
"204 283 OFFCURVE",
"206 293 OFFCURVE",
"206 304 CURVE SMOOTH",
"206 326 OFFCURVE",
"187 341 OFFCURVE",
"164 341 CURVE SMOOTH",
"142 341 OFFCURVE",
"125 331 OFFCURVE",
"112 312 CURVE",
"116 312 OFFCURVE",
"10 112 OFFCURVE",
"-6 88 CURVE",
"26 31 OFFCURVE",
"96 -6 OFFCURVE",
"176 -6 CURVE SMOOTH",
"178 -6 OFFCURVE",
"179 -6 OFFCURVE",
"179 -6 CURVE"
);
}
);
width = 291;
}
);
note = s;
unicode = 0073;
},
{
glyphname = germandbls;
lastChange = "2016-07-15 07:31:59 +0000";
layers = (
{
layerId = "90775AEC-CE2A-409D-8CDA-B893D340B5FD";
paths = (
{
closed = 1;
nodes = (
"160 82 OFFCURVE",
"154 79 OFFCURVE",
"152 74 CURVE",
"147 57 OFFCURVE",
"145 45 OFFCURVE",
"145 39 CURVE SMOOTH",
"145 15 OFFCURVE",
"175 0 OFFCURVE",
"234 -5 CURVE SMOOTH",
"246 -6 OFFCURVE",
"255 -7 OFFCURVE",
"261 -7 CURVE SMOOTH",
"360 -7 OFFCURVE",
"437 57 OFFCURVE",
"437 149 CURVE SMOOTH",
"437 240 OFFCURVE",
"374 291 OFFCURVE",
"294 291 CURVE",
"386 296 OFFCURVE",
"448 339 OFFCURVE",
"448 422 CURVE SMOOTH",
"448 505 OFFCURVE",
"372 552 OFFCURVE",
"296 552 CURVE SMOOTH",
"258 552 OFFCURVE",
"227 547 OFFCURVE",
"203 537 CURVE SMOOTH",
"154 517 OFFCURVE",
"109 473 OFFCURVE",
"82 413 CURVE SMOOTH",
"54 353 OFFCURVE",
"36 291 OFFCURVE",
"28 210 CURVE SMOOTH",
"20 137 OFFCURVE",
"16 60 OFFCURVE",
"16 -23 CURVE SMOOTH",
"16 -47 OFFCURVE",
"38 -60 OFFCURVE",
"67 -60 CURVE SMOOTH",
"96 -60 OFFCURVE",
"119 -42 OFFCURVE",
"119 -13 CURVE SMOOTH",
"119 54 LINE SMOOTH",
"119 269 OFFCURVE",
"140 365 OFFCURVE",
"181 420 CURVE SMOOTH",
"204 451 OFFCURVE",
"241 474 OFFCURVE",
"285 474 CURVE SMOOTH",
"329 474 OFFCURVE",
"359 456 OFFCURVE",
"359 421 CURVE SMOOTH",
"359 367 OFFCURVE",
"325 340 OFFCURVE",
"256 340 CURVE SMOOTH",
"221 340 OFFCURVE",
"215 329 OFFCURVE",
"215 290 CURVE SMOOTH",
"215 270 OFFCURVE",
"224 257 OFFCURVE",
"243 250 CURVE",
"254 245 OFFCURVE",
"268 240 OFFCURVE",
"284 236 CURVE SMOOTH",
"299 232 OFFCURVE",
"311 229 OFFCURVE",
"318 226 CURVE",
"333 221 OFFCURVE",
"347 203 OFFCURVE",
"347 167 CURVE SMOOTH",
"347 107 OFFCURVE",
"306 71 OFFCURVE",
"249 71 CURVE",
"170 82 LINE"
);
}
);
width = 438;
}
);
note = germandbls;
unicode = 00DF;
},
{
glyphname = t;
lastChange = "2016-07-15 07:31:59 +0000";
layers = (
{
layerId = "90775AEC-CE2A-409D-8CDA-B893D340B5FD";
paths = (
{
closed = 1;
nodes = (
"273 535 OFFCURVE",
"276 532 OFFCURVE",
"276 527 CURVE SMOOTH",
"276 454 OFFCURVE",
"238 407 OFFCURVE",
"147 320 CURVE",
"164 428 OFFCURVE",
"217 535 OFFCURVE",
"268 535 CURVE SMOOTH"
);
},
{
closed = 1;
nodes = (
"38 157 OFFCURVE",
"42 157 OFFCURVE",
"45 158 CURVE",
"48 67 OFFCURVE",
"76 2 OFFCURVE",
"139 2 CURVE SMOOTH",
"146 2 LINE",
"205 9 OFFCURVE",
"257 37 OFFCURVE",
"304 88 CURVE",
"313 97 OFFCURVE",
"318 107 OFFCURVE",
"318 118 CURVE SMOOTH",
"318 138 OFFCURVE",
"300 153 OFFCURVE",
"283 153 CURVE SMOOTH",
"274 153 OFFCURVE",
"267 150 OFFCURVE",
"261 144 CURVE SMOOTH",
"225 107 OFFCURVE",
"192 85 OFFCURVE",
"163 79 CURVE",
"159 79 LINE SMOOTH",
"139 79 OFFCURVE",
"129 108 OFFCURVE",
"129 166 CURVE SMOOTH",
"129 178 OFFCURVE",
"129 191 OFFCURVE",
"130 204 CURVE",
"203 239 OFFCURVE",
"259 261 OFFCURVE",
"297 269 CURVE SMOOTH",
"311 272 OFFCURVE",
"318 279 OFFCURVE",
"318 290 CURVE SMOOTH",
"318 311 OFFCURVE",
"303 325 OFFCURVE",
"288 325 CURVE SMOOTH",
"276 325 OFFCURVE",
"248 317 OFFCURVE",
"205 302 CURVE",
"288 369 OFFCURVE",
"350 458 OFFCURVE",
"357 551 CURVE",
"357 560 LINE SMOOTH",
"357 600 OFFCURVE",
"333 631 OFFCURVE",
"278 631 CURVE SMOOTH",
"222 631 OFFCURVE",
"162 572 OFFCURVE",
"123 489 CURVE SMOOTH",
"83 404 OFFCURVE",
"58 320 OFFCURVE",
"49 235 CURVE",
"40 230 OFFCURVE",
"31 225 OFFCURVE",
"22 220 CURVE SMOOTH",
"13 215 OFFCURVE",
"8 207 OFFCURVE",
"8 196 CURVE SMOOTH",
"8 175 OFFCURVE",
"22 157 OFFCURVE",
"33 157 CURVE SMOOTH"
);
}
);
width = 268;
}
);
note = t;
unicode = 0074;
},
{
glyphname = u;
lastChange = "2016-07-15 07:31:59 +0000";
layers = (
{
layerId = "90775AEC-CE2A-409D-8CDA-B893D340B5FD";
paths = (
{
closed = 1;
nodes = (
"50 43 OFFCURVE",
"82 -4 OFFCURVE",
"142 -4 CURVE SMOOTH",
"202 -4 OFFCURVE",
"245 36 OFFCURVE",
"269 89 CURVE",
"268 84 OFFCURVE",
"267 74 OFFCURVE",
"267 61 CURVE SMOOTH",
"267 34 OFFCURVE",
"283 -4 OFFCURVE",
"330 -4 CURVE SMOOTH",
"407 -4 OFFCURVE",
"464 52 OFFCURVE",
"487 103 CURVE",
"484 118 OFFCURVE",
"459 139 OFFCURVE",
"447 139 CURVE SMOOTH",
"440 139 OFFCURVE",
"434 135 OFFCURVE",
"428 128 CURVE SMOOTH",
"400 96 OFFCURVE",
"377 80 OFFCURVE",
"358 80 CURVE SMOOTH",
"347 80 OFFCURVE",
"341 86 OFFCURVE",
"341 99 CURVE SMOOTH",
"341 103 OFFCURVE",
"358 197 OFFCURVE",
"379 254 CURVE SMOOTH",
"389 283 OFFCURVE",
"394 300 OFFCURVE",
"394 306 CURVE SMOOTH",
"394 323 OFFCURVE",
"379 332 OFFCURVE",
"350 332 CURVE SMOOTH",
"325 332 OFFCURVE",
"311 322 OFFCURVE",
"299 283 CURVE SMOOTH",
"264 172 LINE SMOOTH",
"245 115 OFFCURVE",
"201 74 OFFCURVE",
"168 74 CURVE SMOOTH",
"151 74 OFFCURVE",
"143 88 OFFCURVE",
"144 116 CURVE",
"144 171 OFFCURVE",
"176 258 OFFCURVE",
"189 284 CURVE SMOOTH",
"195 297 OFFCURVE",
"198 304 OFFCURVE",
"198 306 CURVE SMOOTH",
"198 321 OFFCURVE",
"177 331 OFFCURVE",
"148 331 CURVE SMOOTH",
"133 331 OFFCURVE",
"121 324 OFFCURVE",
"112 311 CURVE",
"79 270 OFFCURVE",
"50 171 OFFCURVE",
"50 106 CURVE SMOOTH"
);
}
);
width = 394;
}
);
note = u;
unicode = 0075;
},
{
glyphname = v;
lastChange = "2016-07-15 07:31:59 +0000";
layers = (
{
layerId = "90775AEC-CE2A-409D-8CDA-B893D340B5FD";
paths = (
{
closed = 1;
nodes = (
"154 318 OFFCURVE",
"130 334 OFFCURVE",
"106 334 CURVE SMOOTH",
"85 334 OFFCURVE",
"72 324 OFFCURVE",
"65 305 CURVE",
"50 254 OFFCURVE",
"42 205 OFFCURVE",
"42 158 CURVE SMOOTH",
"42 62 OFFCURVE",
"84 -10 OFFCURVE",
"135 -10 CURVE SMOOTH",
"144 -10 OFFCURVE",
"152 -8 OFFCURVE",
"160 -4 CURVE SMOOTH",
"211 21 OFFCURVE",
"255 69 OFFCURVE",
"294 140 CURVE",
"371 141 OFFCURVE",
"481 196 OFFCURVE",
"510 249 CURVE",
"513 254 OFFCURVE",
"514 260 OFFCURVE",
"514 269 CURVE SMOOTH",
"514 285 OFFCURVE",
"497 307 OFFCURVE",
"481 307 CURVE SMOOTH",
"472 307 OFFCURVE",
"464 302 OFFCURVE",
"457 291 CURVE",
"449 280 OFFCURVE",
"438 270 OFFCURVE",
"423 259 CURVE SMOOTH",
"395 237 OFFCURVE",
"363 222 OFFCURVE",
"327 214 CURVE",
"344 259 OFFCURVE",
"352 288 OFFCURVE",
"352 300 CURVE SMOOTH",
"352 324 OFFCURVE",
"341 336 OFFCURVE",
"320 336 CURVE SMOOTH",
"277 336 OFFCURVE",
"235 286 OFFCURVE",
"235 197 CURVE SMOOTH",
"235 181 LINE",
"212 130 OFFCURVE",
"186 96 OFFCURVE",
"157 77 CURVE",
"157 77 OFFCURVE",
"157 78 OFFCURVE",
"157 79 CURVE SMOOTH",
"157 80 OFFCURVE",
"156 85 OFFCURVE",
"153 94 CURVE",
"145 122 OFFCURVE",
"141 153 OFFCURVE",
"141 187 CURVE SMOOTH",
"141 220 OFFCURVE",
"145 255 OFFCURVE",
"153 292 CURVE",
"154 298 LINE"
);
}
);
width = 348;
}
);
note = v;
unicode = 0076;
},
{
glyphname = w;
lastChange = "2016-07-15 07:31:59 +0000";
layers = (
{
layerId = "90775AEC-CE2A-409D-8CDA-B893D340B5FD";
paths = (
{
closed = 1;
nodes = (
"588 230 OFFCURVE",
"591 249 OFFCURVE",
"591 268 CURVE SMOOTH",
"591 337 OFFCURVE",
"556 385 OFFCURVE",
"503 386 CURVE",
"442 385 OFFCURVE",
"409 350 OFFCURVE",
"409 303 CURVE SMOOTH",
"409 256 OFFCURVE",
"437 208 OFFCURVE",
"485 179 CURVE",
"484 177 OFFCURVE",
"483 175 OFFCURVE",
"482 174 CURVE",
"457 110 OFFCURVE",
"411 65 OFFCURVE",
"372 65 CURVE SMOOTH",
"341 65 OFFCURVE",
"325 85 OFFCURVE",
"325 124 CURVE SMOOTH",
"325 136 OFFCURVE",
"327 147 OFFCURVE",
"331 157 CURVE SMOOTH",
"339 176 OFFCURVE",
"344 188 OFFCURVE",
"352 204 CURVE",
"348 216 LINE",
"349 220 OFFCURVE",
"354 231 OFFCURVE",
"363 250 CURVE SMOOTH",
"372 268 OFFCURVE",
"376 283 OFFCURVE",
"376 295 CURVE SMOOTH",
"376 309 OFFCURVE",
"368 316 OFFCURVE",
"351 316 CURVE",
"341 315 LINE SMOOTH",
"328 314 OFFCURVE",
"314 295 OFFCURVE",
"301 259 CURVE",
"272 197 LINE",
"237 110 OFFCURVE",
"209 67 OFFCURVE",
"189 67 CURVE SMOOTH",
"187 67 OFFCURVE",
"183 68 OFFCURVE",
"177 70 CURVE",
"155 73 OFFCURVE",
"144 93 OFFCURVE",
"144 131 CURVE SMOOTH",
"144 174 OFFCURVE",
"164 206 OFFCURVE",
"179 228 CURVE SMOOTH",
"194 250 OFFCURVE",
"208 267 OFFCURVE",
"220 280 CURVE",
"231 293 OFFCURVE",
"230 290 OFFCURVE",
"230 303 CURVE SMOOTH",
"230 315 OFFCURVE",
"209 337 OFFCURVE",
"181 337 CURVE SMOOTH",
"166 337 OFFCURVE",
"153 328 OFFCURVE",
"141 309 CURVE",
"140 307 OFFCURVE",
"135 300 OFFCURVE",
"127 289 CURVE SMOOTH",
"111 266 OFFCURVE",
"97 245 OFFCURVE",
"81 216 CURVE SMOOTH",
"63 182 OFFCURVE",
"54 148 OFFCURVE",
"54 113 CURVE SMOOTH",
"54 44 OFFCURVE",
"103 -7 OFFCURVE",
"180 -7 CURVE SMOOTH",
"219 -7 OFFCURVE",
"252 13 OFFCURVE",
"279 53 CURVE",
"294 11 OFFCURVE",
"323 -10 OFFCURVE",
"364 -10 CURVE SMOOTH",
"374 -10 LINE",
"435 -7 OFFCURVE",
"512 50 OFFCURVE",
"561 150 CURVE",
"576 147 OFFCURVE",
"595 146 OFFCURVE",
"620 146 CURVE SMOOTH",
"644 146 OFFCURVE",
"674 151 OFFCURVE",
"710 162 CURVE",
"723 167 OFFCURVE",
"729 174 OFFCURVE",
"729 185 CURVE SMOOTH",
"729 205 OFFCURVE",
"717 219 OFFCURVE",
"702 219 CURVE SMOOTH",
"694 219 OFFCURVE",
"687 217 OFFCURVE",
"681 214 CURVE",
"656 210 OFFCURVE",
"636 208 OFFCURVE",
"621 208 CURVE SMOOTH",
"605 208 OFFCURVE",
"592 209 OFFCURVE",
"583 210 CURVE"
);
},
{
closed = 1;
nodes = (
"492 249 OFFCURVE",
"482 266 OFFCURVE",
"482 287 CURVE SMOOTH",
"482 308 OFFCURVE",
"488 318 OFFCURVE",
"500 318 CURVE SMOOTH",
"516 318 OFFCURVE",
"524 307 OFFCURVE",
"524 284 CURVE SMOOTH",
"524 270 OFFCURVE",
"520 253 OFFCURVE",
"513 234 CURVE"
);
}
);
width = 583;
}
);
note = w;
unicode = 0077;
},
{
glyphname = x;
lastChange = "2016-07-15 07:31:59 +0000";
layers = (
{
layerId = "90775AEC-CE2A-409D-8CDA-B893D340B5FD";
paths = (
{
closed = 1;
nodes = (
"190 15 OFFCURVE",
"230 -11 OFFCURVE",
"277 -11 CURVE SMOOTH",
"337 -11 OFFCURVE",
"373 39 OFFCURVE",
"406 106 CURVE",
"411 113 OFFCURVE",
"413 122 OFFCURVE",
"413 131 CURVE SMOOTH",
"413 150 OFFCURVE",
"402 164 OFFCURVE",
"385 164 CURVE SMOOTH",
"376 164 OFFCURVE",
"368 158 OFFCURVE",
"359 147 CURVE",
"334 110 OFFCURVE",
"315 87 OFFCURVE",
"304 79 CURVE",
"293 70 OFFCURVE",
"283 66 OFFCURVE",
"276 66 CURVE SMOOTH",
"261 66 OFFCURVE",
"252 70 OFFCURVE",
"240 81 CURVE",
"230 91 OFFCURVE",
"217 109 OFFCURVE",
"202 134 CURVE",
"281 243 LINE SMOOTH",
"287 251 OFFCURVE",
"295 255 OFFCURVE",
"306 255 CURVE",
"358 245 LINE",
"373 245 OFFCURVE",
"381 255 OFFCURVE",
"381 276 CURVE SMOOTH",
"381 316 OFFCURVE",
"354 334 OFFCURVE",
"321 334 CURVE SMOOTH",
"294 334 OFFCURVE",
"271 323 OFFCURVE",
"252 300 CURVE",
"169 191 LINE",
"168 192 OFFCURVE",
"165 199 OFFCURVE",
"158 211 CURVE SMOOTH",
"151 223 OFFCURVE",
"146 232 OFFCURVE",
"143 237 CURVE SMOOTH",
"140 242 OFFCURVE",
"136 249 OFFCURVE",
"130 260 CURVE",
"119 278 OFFCURVE",
"108 297 OFFCURVE",
"96 318 CURVE",
"93 324 OFFCURVE",
"87 327 OFFCURVE",
"77 327 CURVE SMOOTH",
"57 327 OFFCURVE",
"35 309 OFFCURVE",
"35 293 CURVE SMOOTH",
"35 284 OFFCURVE",
"37 277 OFFCURVE",
"41 270 CURVE",
"44 263 OFFCURVE",
"70 216 OFFCURVE",
"119 128 CURVE",
"98 103 OFFCURVE",
"76 82 OFFCURVE",
"54 66 CURVE",
"42 59 OFFCURVE",
"36 49 OFFCURVE",
"36 36 CURVE SMOOTH",
"36 10 OFFCURVE",
"58 -15 OFFCURVE",
"82 -15 CURVE SMOOTH",
"94 -15 OFFCURVE",
"105 -8 OFFCURVE",
"114 5 CURVE",
"139 45 OFFCURVE",
"153 66 OFFCURVE",
"155 68 CURVE"
);
}
);
width = 326;
}
);
note = x;
unicode = 0078;
},
{
glyphname = y;
lastChange = "2016-07-15 07:31:59 +0000";
layers = (
{
layerId = "90775AEC-CE2A-409D-8CDA-B893D340B5FD";
paths = (
{
closed = 1;
nodes = (
"63 -244 OFFCURVE",
"61 -241 OFFCURVE",
"61 -236 CURVE SMOOTH",
"61 -209 OFFCURVE",
"149 -108 OFFCURVE",
"178 -92 CURVE",
"165 -163 OFFCURVE",
"118 -245 OFFCURVE",
"73 -245 CURVE",
"66 -244 LINE"
);
},
{
closed = 1;
nodes = (
"90 -314 OFFCURVE",
"117 -308 OFFCURVE",
"141 -297 CURVE SMOOTH",
"188 -274 OFFCURVE",
"213 -244 OFFCURVE",
"236 -192 CURVE SMOOTH",
"254 -153 OFFCURVE",
"268 -104 OFFCURVE",
"279 -47 CURVE",
"394 16 OFFCURVE",
"467 59 OFFCURVE",
"498 82 CURVE",
"516 94 OFFCURVE",
"525 107 OFFCURVE",
"525 120 CURVE SMOOTH",
"525 146 OFFCURVE",
"509 159 OFFCURVE",
"494 159 CURVE SMOOTH",
"486 159 OFFCURVE",
"478 156 OFFCURVE",
"470 150 CURVE SMOOTH",
"452 137 OFFCURVE",
"393 99 OFFCURVE",
"293 36 CURVE",
"301 85 OFFCURVE",
"310 133 OFFCURVE",
"321 180 CURVE SMOOTH",
"331 227 OFFCURVE",
"336 259 OFFCURVE",
"336 277 CURVE SMOOTH",
"336 293 OFFCURVE",
"317 302 OFFCURVE",
"298 302 CURVE SMOOTH",
"277 302 OFFCURVE",
"262 286 OFFCURVE",
"253 254 CURVE SMOOTH",
"226 162 LINE SMOOTH",
"209 106 OFFCURVE",
"186 75 OFFCURVE",
"159 69 CURVE",
"152 69 LINE SMOOTH",
"130 69 OFFCURVE",
"119 82 OFFCURVE",
"119 108 CURVE SMOOTH",
"119 133 OFFCURVE",
"125 170 OFFCURVE",
"137 218 CURVE",
"139 222 OFFCURVE",
"142 228 OFFCURVE",
"146 235 CURVE SMOOTH",
"156 252 OFFCURVE",
"161 265 OFFCURVE",
"161 275 CURVE SMOOTH",
"161 295 OFFCURVE",
"143 306 OFFCURVE",
"124 306 CURVE SMOOTH",
"105 306 OFFCURVE",
"77 290 OFFCURVE",
"68 271 CURVE",
"38 214 OFFCURVE",
"23 155 OFFCURVE",
"23 94 CURVE SMOOTH",
"23 38 OFFCURVE",
"66 0 OFFCURVE",
"118 0 CURVE SMOOTH",
"145 0 OFFCURVE",
"200 28 OFFCURVE",
"228 77 CURVE",
"195 -11 LINE",
"184 -18 OFFCURVE",
"167 -30 OFFCURVE",
"144 -45 CURVE SMOOTH",
"97 -76 OFFCURVE",
"62 -104 OFFCURVE",
"40 -128 CURVE",
"37 -131 OFFCURVE",
"32 -138 OFFCURVE",
"23 -147 CURVE",
"6 -166 OFFCURVE",
"0 -174 OFFCURVE",
"-12 -191 CURVE",
"-23 -208 OFFCURVE",
"-28 -227 OFFCURVE",
"-28 -250 CURVE SMOOTH",
"-28 -296 OFFCURVE",
"2 -314 OFFCURVE",
"61 -314 CURVE SMOOTH"
);
}
);
width = 346;
}
);
note = y;
unicode = 0079;
},
{
glyphname = z;
lastChange = "2016-07-15 07:31:59 +0000";
layers = (
{
layerId = "90775AEC-CE2A-409D-8CDA-B893D340B5FD";
paths = (
{
closed = 1;
nodes = (
"37 318 OFFCURVE",
"27 308 OFFCURVE",
"27 287 CURVE SMOOTH",
"27 276 OFFCURVE",
"30 267 OFFCURVE",
"37 259 CURVE",
"43 251 OFFCURVE",
"46 246 OFFCURVE",
"47 245 CURVE",
"96 245 OFFCURVE",
"143 248 OFFCURVE",
"188 255 CURVE",
"39 145 LINE SMOOTH",
"12 126 OFFCURVE",
"-2 103 OFFCURVE",
"-2 77 CURVE SMOOTH",
"-2 24 OFFCURVE",
"42 -5 OFFCURVE",
"109 -5 CURVE SMOOTH",
"172 -5 OFFCURVE",
"235 18 OFFCURVE",
"296 64 CURVE SMOOTH",
"305 71 OFFCURVE",
"309 79 OFFCURVE",
"309 90 CURVE SMOOTH",
"309 114 OFFCURVE",
"304 126 OFFCURVE",
"293 126 CURVE SMOOTH",
"292 126 OFFCURVE",
"290 125 OFFCURVE",
"287 124 CURVE",
"219 84 OFFCURVE",
"165 64 OFFCURVE",
"126 64 CURVE SMOOTH",
"95 64 OFFCURVE",
"80 78 OFFCURVE",
"79 91 CURVE",
"85 94 OFFCURVE",
"113 117 OFFCURVE",
"164 160 CURVE SMOOTH",
"240 224 LINE",
"251 235 OFFCURVE",
"257 256 OFFCURVE",
"257 287 CURVE SMOOTH",
"257 302 OFFCURVE",
"240 319 OFFCURVE",
"216 319 CURVE SMOOTH",
"58 318 LINE SMOOTH"
);
}
);
width = 224;
}
);
note = z;
unicode = 007A;
},
{
glyphname = f_f;
lastChange = "2016-07-15 07:31:59 +0000";
layers = (
{
layerId = "90775AEC-CE2A-409D-8CDA-B893D340B5FD";
paths = (
{
closed = 1;
nodes = (
"499 499 OFFCURVE",
"504 494 OFFCURVE",
"504 483 CURVE SMOOTH",
"504 431 OFFCURVE",
"412 292 OFFCURVE",
"353 247 CURVE",
"373 310 LINE SMOOTH",
"400 395 OFFCURVE",
"448 499 OFFCURVE",
"489 499 CURVE SMOOTH"
);
},
{
closed = 1;
nodes = (
"343 -65 OFFCURVE",
"337 -8 OFFCURVE",
"337 105 CURVE SMOOTH",
"337 141 LINE SMOOTH",
"337 144 OFFCURVE",
"337 151 OFFCURVE",
"336 163 CURVE",
"341 160 LINE",
"364 109 OFFCURVE",
"378 34 OFFCURVE",
"378 -22 CURVE SMOOTH",
"378 -51 OFFCURVE",
"370 -65 OFFCURVE",
"354 -65 CURVE SMOOTH"
);
},
{
closed = 1;
nodes = (
"104 -118 OFFCURVE",
"101 -83 OFFCURVE",
"101 -12 CURVE SMOOTH",
"101 11 OFFCURVE",
"102 42 OFFCURVE",
"105 83 CURVE SMOOTH",
"107 124 OFFCURVE",
"108 150 OFFCURVE",
"109 162 CURVE",
"134 109 OFFCURVE",
"146 50 OFFCURVE",
"146 -17 CURVE SMOOTH",
"146 -84 OFFCURVE",
"134 -118 OFFCURVE",
"111 -118 CURVE SMOOTH"
);
},
{
closed = 1;
nodes = (
"229 1 OFFCURVE",
"218 54 OFFCURVE",
"196 131 CURVE",
"204 133 OFFCURVE",
"212 135 OFFCURVE",
"220 137 CURVE SMOOTH",
"227 139 OFFCURVE",
"235 141 OFFCURVE",
"244 143 CURVE SMOOTH",
"267 148 LINE",
"266 131 OFFCURVE",
"265 105 OFFCURVE",
"265 70 CURVE SMOOTH",
"265 18 LINE SMOOTH",
"265 -101 OFFCURVE",
"295 -160 OFFCURVE",
"354 -160 CURVE SMOOTH",
"435 -160 OFFCURVE",
"457 -94 OFFCURVE",
"457 -16 CURVE SMOOTH",
"457 23 OFFCURVE",
"443 74 OFFCURVE",
"416 137 CURVE",
"487 144 OFFCURVE",
"534 155 OFFCURVE",
"555 170 CURVE",
"575 183 OFFCURVE",
"595 211 OFFCURVE",
"595 249 CURVE SMOOTH",
"595 268 OFFCURVE",
"589 277 OFFCURVE",
"577 277 CURVE",
"577 278 OFFCURVE",
"577 279 OFFCURVE",
"577 280 CURVE SMOOTH",
"577 281 OFFCURVE",
"577 281 OFFCURVE",
"577 282 CURVE",
"524 239 OFFCURVE",
"488 215 OFFCURVE",
"471 210 CURVE",
"454 204 OFFCURVE",
"439 201 OFFCURVE",
"427 201 CURVE SMOOTH",
"415 201 OFFCURVE",
"404 203 OFFCURVE",
"394 208 CURVE",
"399 213 OFFCURVE",
"414 229 OFFCURVE",
"439 257 CURVE SMOOTH",
"490 312 OFFCURVE",
"498 324 OFFCURVE",
"533 372 CURVE SMOOTH",
"564 416 OFFCURVE",
"580 460 OFFCURVE",
"580 504 CURVE SMOOTH",
"580 555 OFFCURVE",
"554 589 OFFCURVE",
"499 589 CURVE SMOOTH",
"443 589 OFFCURVE",
"386 543 OFFCURVE",
"350 468 CURVE SMOOTH",
"315 396 OFFCURVE",
"289 313 OFFCURVE",
"273 219 CURVE",
"244 206 OFFCURVE",
"221 200 OFFCURVE",
"204 200 CURVE SMOOTH",
"186 200 OFFCURVE",
"173 202 OFFCURVE",
"166 205 CURVE",
"287 347 OFFCURVE",
"347 464 OFFCURVE",
"347 555 CURVE SMOOTH",
"347 608 OFFCURVE",
"321 640 OFFCURVE",
"274 640 CURVE SMOOTH",
"183 640 OFFCURVE",
"107 529 OFFCURVE",
"70 384 CURVE SMOOTH",
"31 237 OFFCURVE",
"12 105 OFFCURVE",
"12 -13 CURVE SMOOTH",
"12 -147 OFFCURVE",
"40 -214 OFFCURVE",
"96 -214 CURVE SMOOTH",
"125 -214 OFFCURVE",
"151 -203 OFFCURVE",
"172 -182 CURVE SMOOTH",
"215 -140 OFFCURVE",
"229 -91 OFFCURVE",
"229 -30 CURVE SMOOTH"
);
},
{
closed = 1;
nodes = (
"275 550 OFFCURVE",
"279 540 OFFCURVE",
"279 520 CURVE SMOOTH",
"279 471 OFFCURVE",
"248 398 OFFCURVE",
"185 299 CURVE SMOOTH",
"167 271 OFFCURVE",
"150 247 OFFCURVE",
"133 226 CURVE",
"132 227 OFFCURVE",
"132 228 OFFCURVE",
"131 228 CURVE",
"132 234 OFFCURVE",
"136 251 OFFCURVE",
"143 278 CURVE SMOOTH",
"156 332 OFFCURVE",
"172 389 OFFCURVE",
"192 449 CURVE SMOOTH",
"212 508 OFFCURVE",
"240 550 OFFCURVE",
"267 550 CURVE SMOOTH"
);
},
{
closed = 1;
nodes = (
"577 282 OFFCURVE",
"577 282 OFFCURVE",
"577 282 CURVE SMOOTH"
);
}
);
width = 511;
}
);
note = f_f;
},
{
glyphname = fi;
lastChange = "2016-07-15 07:31:59 +0000";
layers = (
{
layerId = "90775AEC-CE2A-409D-8CDA-B893D340B5FD";
paths = (
{
closed = 1;
nodes = (
"243 551 OFFCURVE",
"247 541 OFFCURVE",
"247 520 CURVE SMOOTH",
"247 512 OFFCURVE",
"240 496 OFFCURVE",
"227 471 CURVE SMOOTH",
"214 446 OFFCURVE",
"198 417 OFFCURVE",
"180 384 CURVE SMOOTH",
"161 350 OFFCURVE",
"148 322 OFFCURVE",
"139 301 CURVE",
"151 374 OFFCURVE",
"166 434 OFFCURVE",
"185 481 CURVE SMOOTH",
"203 528 OFFCURVE",
"220 551 OFFCURVE",
"236 551 CURVE SMOOTH"
);
},
{
closed = 1;
nodes = (
"470 383 OFFCURVE",
"500 409 OFFCURVE",
"500 456 CURVE SMOOTH",
"500 495 OFFCURVE",
"478 514 OFFCURVE",
"433 514 CURVE SMOOTH",
"389 514 OFFCURVE",
"354 487 OFFCURVE",
"354 446 CURVE SMOOTH",
"354 405 OFFCURVE",
"381 383 OFFCURVE",
"425 383 CURVE SMOOTH"
);
},
{
closed = 1;
nodes = (
"149 -88 OFFCURVE",
"139 -126 OFFCURVE",
"120 -126 CURVE SMOOTH",
"115 -126 OFFCURVE",
"111 -114 OFFCURVE",
"107 -91 CURVE SMOOTH",
"102 -60 OFFCURVE",
"99 -28 OFFCURVE",
"99 5 CURVE SMOOTH",
"99 97 OFFCURVE",
"107 143 OFFCURVE",
"122 143 CURVE",
"123 146 OFFCURVE",
"124 147 OFFCURVE",
"125 147 CURVE SMOOTH",
"130 147 OFFCURVE",
"135 131 OFFCURVE",
"141 98 CURVE SMOOTH",
"147 65 OFFCURVE",
"150 34 OFFCURVE",
"150 6 CURVE",
"149 -13 LINE"
);
},
{
closed = 1;
nodes = (
"170 641 OFFCURVE",
"105 543 OFFCURVE",
"70 408 CURVE SMOOTH",
"33 269 OFFCURVE",
"15 132 OFFCURVE",
"15 -4 CURVE SMOOTH",
"15 -140 OFFCURVE",
"48 -208 OFFCURVE",
"113 -208 CURVE SMOOTH",
"188 -208 OFFCURVE",
"229 -146 OFFCURVE",
"236 -21 CURVE",
"236 -9 LINE SMOOTH",
"236 33 OFFCURVE",
"224 78 OFFCURVE",
"201 126 CURVE",
"244 134 OFFCURVE",
"270 138 OFFCURVE",
"279 139 CURVE",
"275 128 OFFCURVE",
"273 117 OFFCURVE",
"273 104 CURVE SMOOTH",
"273 45 OFFCURVE",
"313 -11 OFFCURVE",
"370 -11 CURVE SMOOTH",
"419 -11 OFFCURVE",
"471 13 OFFCURVE",
"526 62 CURVE",
"545 77 OFFCURVE",
"554 91 OFFCURVE",
"554 106 CURVE SMOOTH",
"554 134 OFFCURVE",
"539 149 OFFCURVE",
"522 149 CURVE SMOOTH",
"513 149 OFFCURVE",
"506 146 OFFCURVE",
"500 141 CURVE",
"444 82 OFFCURVE",
"427 70 OFFCURVE",
"386 70 CURVE SMOOTH",
"378 70 OFFCURVE",
"370 84 OFFCURVE",
"370 99 CURVE SMOOTH",
"370 154 OFFCURVE",
"390 221 OFFCURVE",
"431 301 CURVE",
"432 302 OFFCURVE",
"432 305 OFFCURVE",
"432 310 CURVE SMOOTH",
"432 319 OFFCURVE",
"418 336 OFFCURVE",
"395 336 CURVE SMOOTH",
"372 336 OFFCURVE",
"338 324 OFFCURVE",
"330 301 CURVE",
"329 297 OFFCURVE",
"321 277 OFFCURVE",
"306 241 CURVE",
"274 220 OFFCURVE",
"232 210 OFFCURVE",
"179 210 CURVE SMOOTH",
"165 210 LINE",
"170 217 OFFCURVE",
"181 231 OFFCURVE",
"198 252 CURVE SMOOTH",
"231 293 OFFCURVE",
"234 298 OFFCURVE",
"259 335 CURVE SMOOTH",
"283 372 OFFCURVE",
"289 392 OFFCURVE",
"302 432 CURVE SMOOTH",
"313 465 OFFCURVE",
"319 509 OFFCURVE",
"319 562 CURVE SMOOTH",
"319 615 OFFCURVE",
"294 641 OFFCURVE",
"245 641 CURVE SMOOTH"
);
}
);
width = 441;
}
);
note = fi;
unicode = FB01;
},
{
glyphname = ordfeminine;
lastChange = "2016-07-15 07:31:59 +0000";
layers = (
{
layerId = "90775AEC-CE2A-409D-8CDA-B893D340B5FD";
paths = (
{
closed = 1;
nodes = (
"109 336 OFFCURVE",
"103 349 OFFCURVE",
"103 374 CURVE SMOOTH",
"103 424 OFFCURVE",
"138 491 OFFCURVE",
"182 496 CURVE",
"166 416 LINE SMOOTH",
"157 363 OFFCURVE",
"142 336 OFFCURVE",
"121 336 CURVE SMOOTH"
);
},
{
closed = 1;
nodes = (
"255 268 OFFCURVE",
"264 269 OFFCURVE",
"271 272 CURVE SMOOTH",
"286 278 LINE",
"289 279 OFFCURVE",
"294 282 OFFCURVE",
"299 286 CURVE",
"304 289 OFFCURVE",
"307 292 OFFCURVE",
"310 294 CURVE",
"315 297 OFFCURVE",
"329 310 OFFCURVE",
"333 314 CURVE SMOOTH",
"341 322 OFFCURVE",
"349 330 OFFCURVE",
"357 338 CURVE",
"337 432 LINE",
"302 363 OFFCURVE",
"291 346 OFFCURVE",
"252 346 CURVE SMOOTH",
"247 346 OFFCURVE",
"245 354 OFFCURVE",
"245 371 CURVE SMOOTH",
"245 387 OFFCURVE",
"248 410 OFFCURVE",
"254 439 CURVE SMOOTH",
"260 468 OFFCURVE",
"263 491 OFFCURVE",
"263 507 CURVE SMOOTH",
"263 539 OFFCURVE",
"255 541 OFFCURVE",
"215 541 CURVE SMOOTH",
"210 541 OFFCURVE",
"204 545 OFFCURVE",
"197 552 CURVE",
"189 559 OFFCURVE",
"180 563 OFFCURVE",
"171 563 CURVE SMOOTH",
"162 563 OFFCURVE",
"152 561 OFFCURVE",
"143 556 CURVE",
"71 524 OFFCURVE",
"17 446 OFFCURVE",
"17 358 CURVE SMOOTH",
"17 307 OFFCURVE",
"47 269 OFFCURVE",
"101 269 CURVE SMOOTH",
"128 269 OFFCURVE",
"156 283 OFFCURVE",
"186 312 CURVE",
"200 283 OFFCURVE",
"219 268 OFFCURVE",
"243 268 CURVE SMOOTH"
);
}
);
width = 317;
}
);
note = ordfeminine;
unicode = 00AA;
},
{
glyphname = ordmasculine;
lastChange = "2016-07-15 07:31:59 +0000";
layers = (
{
layerId = "90775AEC-CE2A-409D-8CDA-B893D340B5FD";
paths = (
{
closed = 1;
nodes = (
"204 268 OFFCURVE",
"253 354 OFFCURVE",
"253 435 CURVE SMOOTH",
"253 522 OFFCURVE",
"224 565 OFFCURVE",
"165 565 CURVE SMOOTH",
"80 565 OFFCURVE",
"18 491 OFFCURVE",
"18 408 CURVE SMOOTH",
"18 325 OFFCURVE",
"53 268 OFFCURVE",
"121 268 CURVE SMOOTH"
);
},
{
closed = 1;
nodes = (
"106 338 OFFCURVE",
"94 356 OFFCURVE",
"94 391 CURVE SMOOTH",
"94 438 OFFCURVE",
"116 495 OFFCURVE",
"148 495 CURVE SMOOTH",
"167 495 OFFCURVE",
"177 476 OFFCURVE",
"177 437 CURVE SMOOTH",
"177 394 OFFCURVE",
"158 338 OFFCURVE",
"131 338 CURVE SMOOTH"
);
}
);
width = 273;
}
);
note = ordmasculine;
unicode = 00BA;
},
{
glyphname = Delta;
lastChange = "2016-07-15 07:31:59 +0000";
layers = (
{
layerId = "90775AEC-CE2A-409D-8CDA-B893D340B5FD";
paths = (
{
closed = 1;
nodes = (
"267 148 OFFCURVE",
"331 254 OFFCURVE",
"425 412 CURVE",
"559 93 LINE",
"342 93 OFFCURVE",
"233 93 OFFCURVE",
"233 93 CURVE"
);
},
{
closed = 1;
nodes = (
"662 1 OFFCURVE",
"680 20 OFFCURVE",
"680 58 CURVE",
"491 507 LINE SMOOTH",
"480 531 OFFCURVE",
"464 543 OFFCURVE",
"443 543 CURVE SMOOTH",
"422 543 OFFCURVE",
"405 534 OFFCURVE",
"394 515 CURVE SMOOTH",
"330 411 OFFCURVE",
"264 303 OFFCURVE",
"196 191 CURVE SMOOTH",
"139 102 OFFCURVE",
"111 56 OFFCURVE",
"110 53 CURVE SMOOTH",
"109 50 OFFCURVE",
"108 45 OFFCURVE",
"108 38 CURVE SMOOTH",
"108 25 OFFCURVE",
"123 1 OFFCURVE",
"151 1 CURVE SMOOTH",
"625 1 LINE SMOOTH"
);
}
);
width = 721;
}
);
note = Delta;
unicode = 0394;
},
{
glyphname = Omega;
lastChange = "2016-07-15 07:31:59 +0000";
layers = (
{
layerId = "90775AEC-CE2A-409D-8CDA-B893D340B5FD";
paths = (
{
closed = 1;
nodes = (
"452 50 LINE",
"312 63 OFFCURVE",
"239 166 OFFCURVE",
"239 294 CURVE SMOOTH",
"239 459 OFFCURVE",
"359 617 OFFCURVE",
"534 617 CURVE SMOOTH",
"687 617 OFFCURVE",
"778 497 OFFCURVE",
"778 349 CURVE SMOOTH",
"778 200 OFFCURVE",
"684 66 OFFCURVE",
"521 50 CURVE",
"508 -12 LINE",
"591 -23 OFFCURVE",
"653 -28 OFFCURVE",
"692 -28 CURVE SMOOTH",
"731 -28 OFFCURVE",
"757 -27 OFFCURVE",
"771 -25 CURVE SMOOTH",
"785 -23 OFFCURVE",
"797 -18 OFFCURVE",
"807 -10 CURVE SMOOTH",
"826 5 OFFCURVE",
"824 12 OFFCURVE",
"824 24 CURVE SMOOTH",
"824 42 OFFCURVE",
"816 51 OFFCURVE",
"800 51 CURVE SMOOTH",
"797 51 LINE",
"774 48 OFFCURVE",
"742 47 OFFCURVE",
"701 47 CURVE",
"804 116 OFFCURVE",
"862 242 OFFCURVE",
"862 364 CURVE SMOOTH",
"862 425 OFFCURVE",
"851 479 OFFCURVE",
"828 528 CURVE SMOOTH",
"782 625 OFFCURVE",
"673 697 OFFCURVE",
"544 697 CURVE SMOOTH",
"415 697 OFFCURVE",
"316 647 OFFCURVE",
"254 572 CURVE SMOOTH",
"192 496 OFFCURVE",
"157 400 OFFCURVE",
"157 304 CURVE SMOOTH",
"157 201 OFFCURVE",
"191 119 OFFCURVE",
"258 58 CURVE",
"177 58 LINE SMOOTH",
"160 58 OFFCURVE",
"150 42 OFFCURVE",
"150 25 CURVE SMOOTH",
"150 8 OFFCURVE",
"170 -16 OFFCURVE",
"194 -17 CURVE SMOOTH",
"230 -18 LINE",
"458 -13 LINE"
);
}
);
width = 904;
}
);
note = Omega;
unicode = 03A9;
},
{
glyphname = mu;
lastChange = "2016-07-15 07:31:59 +0000";
layers = (
{
layerId = "90775AEC-CE2A-409D-8CDA-B893D340B5FD";
paths = (
{
closed = 1;
nodes = (
"103 75 OFFCURVE",
"95 89 OFFCURVE",
"95 117 CURVE SMOOTH",
"95 125 LINE",
"99 172 OFFCURVE",
"113 222 OFFCURVE",
"137 275 CURVE SMOOTH",
"149 301 LINE",
"147 299 LINE",
"148 316 OFFCURVE",
"130 331 OFFCURVE",
"102 331 CURVE SMOOTH",
"87 331 OFFCURVE",
"75 324 OFFCURVE",
"66 311 CURVE",
"66 314 OFFCURVE",
"65 313 OFFCURVE",
"62 306 CURVE SMOOTH",
"59 299 OFFCURVE",
"56 294 OFFCURVE",
"54 289 CURVE",
"49 279 OFFCURVE",
"44 264 OFFCURVE",
"39 248 CURVE SMOOTH",
"31 225 OFFCURVE",
"26 207 OFFCURVE",
"23 194 CURVE",
"-59 -103 LINE",
"-60 -110 OFFCURVE",
"-61 -117 OFFCURVE",
"-61 -124 CURVE SMOOTH",
"-61 -140 OFFCURVE",
"-46 -158 OFFCURVE",
"-27 -158 CURVE SMOOTH",
"-3 -158 OFFCURVE",
"14 -139 OFFCURVE",
"25 -100 CURVE SMOOTH",
"54 5 LINE",
"69 -1 OFFCURVE",
"84 -4 OFFCURVE",
"98 -4 CURVE SMOOTH",
"159 -4 OFFCURVE",
"211 62 OFFCURVE",
"216 98 CURVE",
"211 59 LINE",
"211 12 OFFCURVE",
"226 -4 OFFCURVE",
"274 -4 CURVE SMOOTH",
"322 -4 OFFCURVE",
"422 52 OFFCURVE",
"447 101 CURVE",
"444 116 OFFCURVE",
"412 139 OFFCURVE",
"401 139 CURVE SMOOTH",
"396 139 OFFCURVE",
"393 139 OFFCURVE",
"392 138 CURVE SMOOTH",
"390 136 OFFCURVE",
"388 134 OFFCURVE",
"386 133 CURVE",
"381 130 OFFCURVE",
"364 116 OFFCURVE",
"351 104 CURVE",
"333 89 OFFCURVE",
"318 81 OFFCURVE",
"305 80 CURVE",
"293 80 OFFCURVE",
"299 125 OFFCURVE",
"322 214 CURVE SMOOTH",
"334 261 OFFCURVE",
"340 289 OFFCURVE",
"340 298 CURVE SMOOTH",
"340 316 OFFCURVE",
"322 332 OFFCURVE",
"296 332 CURVE SMOOTH",
"270 332 OFFCURVE",
"260 325 OFFCURVE",
"244 276 CURVE",
"221 191 LINE",
"200 123 OFFCURVE",
"154 75 OFFCURVE",
"119 75 CURVE SMOOTH"
);
}
);
width = 347;
}
);
note = mu;
unicode = 03BC;
},
{
glyphname = pi;
lastChange = "2016-07-15 07:31:59 +0000";
layers = (
{
layerId = "90775AEC-CE2A-409D-8CDA-B893D340B5FD";
paths = (
{
closed = 1;
nodes = (
"118 227 OFFCURVE",
"137 212 OFFCURVE",
"163 212 CURVE SMOOTH",
"176 212 OFFCURVE",
"184 219 OFFCURVE",
"188 234 CURVE",
"199 311 OFFCURVE",
"215 335 OFFCURVE",
"266 340 CURVE",
"261 324 OFFCURVE",
"254 303 OFFCURVE",
"245 277 CURVE SMOOTH",
"236 251 OFFCURVE",
"229 231 OFFCURVE",
"224 217 CURVE SMOOTH",
"219 202 OFFCURVE",
"214 185 OFFCURVE",
"207 165 CURVE SMOOTH",
"200 144 OFFCURVE",
"195 128 OFFCURVE",
"192 117 CURVE",
"184 93 OFFCURVE",
"170 48 OFFCURVE",
"170 25 CURVE SMOOTH",
"170 1 OFFCURVE",
"186 -22 OFFCURVE",
"211 -22 CURVE SMOOTH",
"236 -22 OFFCURVE",
"275 34 OFFCURVE",
"275 45 CURVE SMOOTH",
"275 46 LINE",
"274 46 OFFCURVE",
"270 41 OFFCURVE",
"263 32 CURVE",
"268 56 OFFCURVE",
"280 102 OFFCURVE",
"301 169 CURVE SMOOTH",
"321 236 OFFCURVE",
"336 292 OFFCURVE",
"345 338 CURVE",
"362 337 OFFCURVE",
"390 334 OFFCURVE",
"431 329 CURVE",
"410 203 OFFCURVE",
"399 112 OFFCURVE",
"399 55 CURVE SMOOTH",
"399 -2 OFFCURVE",
"411 -30 OFFCURVE",
"435 -30 CURVE SMOOTH",
"450 -30 OFFCURVE",
"491 -17 OFFCURVE",
"499 -9 CURVE",
"502 -5 OFFCURVE",
"504 0 OFFCURVE",
"504 6 CURVE SMOOTH",
"504 12 OFFCURVE",
"503 29 OFFCURVE",
"500 57 CURVE SMOOTH",
"497 84 OFFCURVE",
"496 119 OFFCURVE",
"496 161 CURVE SMOOTH",
"496 202 OFFCURVE",
"501 257 OFFCURVE",
"510 324 CURVE",
"517 323 OFFCURVE",
"526 323 OFFCURVE",
"539 323 CURVE SMOOTH",
"569 323 LINE SMOOTH",
"601 323 OFFCURVE",
"626 334 OFFCURVE",
"643 356 CURVE SMOOTH",
"647 361 OFFCURVE",
"650 365 OFFCURVE",
"653 368 CURVE",
"655 371 OFFCURVE",
"656 373 OFFCURVE",
"657 373 CURVE",
"657 373 OFFCURVE",
"657 373 OFFCURVE",
"658 372 CURVE",
"654 392 OFFCURVE",
"639 407 OFFCURVE",
"619 407 CURVE SMOOTH",
"616 407 LINE SMOOTH",
"569 407 OFFCURVE",
"515 410 OFFCURVE",
"454 415 CURVE SMOOTH",
"393 420 OFFCURVE",
"347 423 OFFCURVE",
"314 423 CURVE SMOOTH",
"197 423 OFFCURVE",
"117 374 OFFCURVE",
"117 265 CURVE",
"118 248 LINE"
);
},
{
closed = 1;
nodes = (
"658 372 OFFCURVE",
"658 372 OFFCURVE",
"658 372 CURVE",
"658 371 LINE"
);
},
{
closed = 1;
nodes = (
"658 367 OFFCURVE",
"658 370 OFFCURVE",
"658 371 CURVE",
"658 362 LINE"
);
}
);
width = 605;
}
);
note = pi;
unicode = 03C0;
},
{
glyphname = zero;
lastChange = "2016-07-15 07:31:59 +0000";
layers = (
{
layerId = "90775AEC-CE2A-409D-8CDA-B893D340B5FD";
paths = (
{
closed = 1;
nodes = (
"42 70 OFFCURVE",
"96 -7 OFFCURVE",
"203 -7 CURVE SMOOTH",
"310 -7 OFFCURVE",
"393 78 OFFCURVE",
"408 273 CURVE",
"409 280 OFFCURVE",
"409 289 OFFCURVE",
"409 302 CURVE SMOOTH",
"409 415 OFFCURVE",
"358 495 OFFCURVE",
"254 495 CURVE SMOOTH",
"126 495 OFFCURVE",
"42 368 OFFCURVE",
"42 181 CURVE SMOOTH"
);
},
{
closed = 1;
nodes = (
"287 403 OFFCURVE",
"306 370 OFFCURVE",
"306 304 CURVE SMOOTH",
"306 295 OFFCURVE",
"305 281 OFFCURVE",
"304 261 CURVE SMOOTH",
"295 140 OFFCURVE",
"263 80 OFFCURVE",
"208 80 CURVE SMOOTH",
"169 80 OFFCURVE",
"149 115 OFFCURVE",
"149 185 CURVE SMOOTH",
"149 196 OFFCURVE",
"149 204 OFFCURVE",
"150 210 CURVE",
"155 273 OFFCURVE",
"166 321 OFFCURVE",
"185 354 CURVE SMOOTH",
"203 387 OFFCURVE",
"224 403 OFFCURVE",
"249 403 CURVE SMOOTH"
);
}
);
width = 417;
}
);
note = zero;
unicode = 0030;
},
{
glyphname = one;
lastChange = "2016-07-15 07:31:59 +0000";
layers = (
{
layerId = "90775AEC-CE2A-409D-8CDA-B893D340B5FD";
paths = (
{
closed = 1;
nodes = (
"136 -4 OFFCURVE",
"158 -16 OFFCURVE",
"184 -16 CURVE SMOOTH",
"210 -16 OFFCURVE",
"232 -5 OFFCURVE",
"235 12 CURVE",
"246 63 OFFCURVE",
"275 208 OFFCURVE",
"322 448 CURVE",
"323 457 OFFCURVE",
"324 464 OFFCURVE",
"324 467 CURVE SMOOTH",
"324 484 OFFCURVE",
"319 492 OFFCURVE",
"308 492 CURVE SMOOTH",
"303 492 LINE",
"194 470 OFFCURVE",
"136 458 OFFCURVE",
"129 456 CURVE SMOOTH",
"118 453 OFFCURVE",
"113 439 OFFCURVE",
"113 412 CURVE SMOOTH",
"113 385 OFFCURVE",
"119 372 OFFCURVE",
"131 372 CURVE SMOOTH",
"134 372 LINE",
"164 379 OFFCURVE",
"192 387 OFFCURVE",
"218 397 CURVE",
"193 289 OFFCURVE",
"166 164 OFFCURVE",
"137 22 CURVE",
"136 16 LINE"
);
}
);
width = 333;
}
);
note = one;
unicode = 0031;
},
{
glyphname = two;
lastChange = "2016-07-15 07:31:59 +0000";
layers = (
{
layerId = "90775AEC-CE2A-409D-8CDA-B893D340B5FD";
paths = (
{
closed = 1;
nodes = (
"114 112 OFFCURVE",
"123 120 OFFCURVE",
"142 120 CURVE SMOOTH",
"161 120 OFFCURVE",
"182 114 OFFCURVE",
"207 102 CURVE",
"183 82 OFFCURVE",
"162 72 OFFCURVE",
"143 72 CURVE SMOOTH",
"124 72 OFFCURVE",
"114 80 OFFCURVE",
"114 96 CURVE SMOOTH"
);
},
{
closed = 1;
nodes = (
"285 426 OFFCURVE",
"309 382 OFFCURVE",
"309 320 CURVE SMOOTH",
"309 258 OFFCURVE",
"283 190 OFFCURVE",
"242 151 CURVE",
"209 174 OFFCURVE",
"176 186 OFFCURVE",
"143 186 CURVE SMOOTH",
"78 186 OFFCURVE",
"46 155 OFFCURVE",
"46 97 CURVE SMOOTH",
"46 39 OFFCURVE",
"85 2 OFFCURVE",
"153 2 CURVE SMOOTH",
"187 2 OFFCURVE",
"219 15 OFFCURVE",
"250 42 CURVE",
"287 14 OFFCURVE",
"318 0 OFFCURVE",
"342 0 CURVE SMOOTH",
"389 0 OFFCURVE",
"410 43 OFFCURVE",
"410 83 CURVE SMOOTH",
"410 90 LINE SMOOTH",
"410 107 OFFCURVE",
"408 113 OFFCURVE",
"397 113 CURVE SMOOTH",
"391 113 OFFCURVE",
"384 109 OFFCURVE",
"375 100 CURVE SMOOTH",
"366 91 OFFCURVE",
"356 86 OFFCURVE",
"345 86 CURVE SMOOTH",
"334 86 OFFCURVE",
"322 91 OFFCURVE",
"309 102 CURVE",
"368 169 OFFCURVE",
"401 250 OFFCURVE",
"401 338 CURVE SMOOTH",
"401 426 OFFCURVE",
"345 501 OFFCURVE",
"238 501 CURVE SMOOTH",
"127 501 OFFCURVE",
"59 445 OFFCURVE",
"59 339 CURVE SMOOTH",
"59 286 OFFCURVE",
"75 259 OFFCURVE",
"108 259 CURVE SMOOTH",
"147 259 OFFCURVE",
"158 282 OFFCURVE",
"158 311 CURVE",
"157 328 LINE",
"157 339 OFFCURVE",
"157 351 OFFCURVE",
"158 364 CURVE",
"159 390 OFFCURVE",
"179 420 OFFCURVE",
"228 425 CURVE SMOOTH",
"238 426 LINE"
);
}
);
width = 417;
}
);
note = two;
unicode = 0032;
},
{
glyphname = three;
lastChange = "2016-07-15 07:31:59 +0000";
layers = (
{
layerId = "90775AEC-CE2A-409D-8CDA-B893D340B5FD";
paths = (
{
closed = 1;
nodes = (
"316 -23 OFFCURVE",
"396 18 OFFCURVE",
"396 145 CURVE SMOOTH",
"396 202 OFFCURVE",
"357 254 OFFCURVE",
"290 269 CURVE",
"355 278 OFFCURVE",
"386 335 OFFCURVE",
"386 384 CURVE SMOOTH",
"386 443 OFFCURVE",
"351 478 OFFCURVE",
"280 489 CURVE",
"269 490 OFFCURVE",
"261 491 OFFCURVE",
"255 491 CURVE SMOOTH",
"200 491 OFFCURVE",
"137 463 OFFCURVE",
"105 427 CURVE",
"101 422 OFFCURVE",
"99 416 OFFCURVE",
"99 409 CURVE SMOOTH",
"99 388 OFFCURVE",
"116 366 OFFCURVE",
"137 366 CURVE SMOOTH",
"148 366 OFFCURVE",
"159 372 OFFCURVE",
"170 384 CURVE",
"189 401 OFFCURVE",
"207 410 OFFCURVE",
"226 410 CURVE SMOOTH",
"262 410 OFFCURVE",
"280 393 OFFCURVE",
"280 360 CURVE SMOOTH",
"280 316 OFFCURVE",
"234 293 OFFCURVE",
"195 293 CURVE SMOOTH",
"160 293 OFFCURVE",
"143 281 OFFCURVE",
"143 258 CURVE SMOOTH",
"143 232 OFFCURVE",
"154 219 OFFCURVE",
"176 219 CURVE SMOOTH",
"240 219 OFFCURVE",
"302 187 OFFCURVE",
"302 135 CURVE SMOOTH",
"302 82 OFFCURVE",
"269 58 OFFCURVE",
"229 58 CURVE SMOOTH",
"188 58 OFFCURVE",
"149 79 OFFCURVE",
"133 112 CURVE",
"127 123 OFFCURVE",
"118 129 OFFCURVE",
"106 129 CURVE SMOOTH",
"82 129 OFFCURVE",
"60 109 OFFCURVE",
"60 89 CURVE SMOOTH",
"60 78 OFFCURVE",
"62 69 OFFCURVE",
"66 61 CURVE SMOOTH",
"93 5 OFFCURVE",
"149 -23 OFFCURVE",
"233 -23 CURVE SMOOTH"
);
}
);
width = 417;
}
);
note = three;
unicode = 0033;
},
{
glyphname = four;
lastChange = "2016-07-15 07:31:59 +0000";
layers = (
{
layerId = "90775AEC-CE2A-409D-8CDA-B893D340B5FD";
paths = (
{
closed = 1;
nodes = (
"370 309 OFFCURVE",
"357 316 OFFCURVE",
"332 316 CURVE SMOOTH",
"307 316 OFFCURVE",
"290 303 OFFCURVE",
"282 277 CURVE SMOOTH",
"264 218 OFFCURVE",
"251 173 OFFCURVE",
"243 142 CURVE",
"240 144 OFFCURVE",
"229 145 OFFCURVE",
"211 145 CURVE",
"167 143 LINE",
"228 336 OFFCURVE",
"258 438 OFFCURVE",
"258 448 CURVE SMOOTH",
"258 467 OFFCURVE",
"239 478 OFFCURVE",
"216 478 CURVE SMOOTH",
"193 478 OFFCURVE",
"179 470 OFFCURVE",
"174 455 CURVE SMOOTH",
"118 288 OFFCURVE",
"86 189 OFFCURVE",
"77 158 CURVE SMOOTH",
"68 126 OFFCURVE",
"63 105 OFFCURVE",
"63 95 CURVE SMOOTH",
"63 74 OFFCURVE",
"74 62 OFFCURVE",
"97 61 CURVE SMOOTH",
"167 60 OFFCURVE",
"210 60 OFFCURVE",
"225 60 CURVE",
"218 30 LINE",
"217 19 OFFCURVE",
"216 12 OFFCURVE",
"216 9 CURVE SMOOTH",
"216 -10 OFFCURVE",
"229 -20 OFFCURVE",
"254 -21 CURVE",
"283 -21 OFFCURVE",
"296 -15 OFFCURVE",
"307 32 CURVE",
"315 61 LINE",
"367 63 LINE SMOOTH",
"391 64 OFFCURVE",
"406 86 OFFCURVE",
"406 110 CURVE SMOOTH",
"406 131 OFFCURVE",
"398 142 OFFCURVE",
"381 142 CURVE SMOOTH",
"380 142 LINE",
"359 143 OFFCURVE",
"343 143 OFFCURVE",
"333 143 CURVE",
"370 295 LINE"
);
}
);
width = 417;
}
);
note = four;
unicode = 0034;
},
{
glyphname = five;
lastChange = "2016-07-15 07:31:59 +0000";
layers = (
{
layerId = "90775AEC-CE2A-409D-8CDA-B893D340B5FD";
paths = (
{
closed = 1;
nodes = (
"408 370 OFFCURVE",
"434 384 OFFCURVE",
"434 445 CURVE SMOOTH",
"434 476 OFFCURVE",
"427 491 OFFCURVE",
"414 491 CURVE SMOOTH",
"411 491 OFFCURVE",
"409 490 OFFCURVE",
"406 487 CURVE",
"393 469 OFFCURVE",
"377 460 OFFCURVE",
"358 460 CURVE SMOOTH",
"349 460 OFFCURVE",
"329 464 OFFCURVE",
"300 473 CURVE",
"270 481 OFFCURVE",
"244 485 OFFCURVE",
"222 485 CURVE SMOOTH",
"178 485 OFFCURVE",
"159 464 OFFCURVE",
"156 437 CURVE",
"153 388 OFFCURVE",
"140 343 OFFCURVE",
"119 304 CURVE",
"112 288 OFFCURVE",
"108 275 OFFCURVE",
"108 264 CURVE SMOOTH",
"108 242 OFFCURVE",
"118 231 OFFCURVE",
"138 231 CURVE SMOOTH",
"142 231 OFFCURVE",
"150 232 OFFCURVE",
"161 234 CURVE SMOOTH",
"172 236 OFFCURVE",
"184 237 OFFCURVE",
"197 237 CURVE SMOOTH",
"268 237 OFFCURVE",
"312 201 OFFCURVE",
"312 149 CURVE SMOOTH",
"312 123 OFFCURVE",
"303 104 OFFCURVE",
"286 92 CURVE SMOOTH",
"251 67 OFFCURVE",
"177 62 OFFCURVE",
"149 110 CURVE",
"142 115 OFFCURVE",
"138 122 OFFCURVE",
"138 132 CURVE SMOOTH",
"138 142 OFFCURVE",
"137 149 OFFCURVE",
"135 154 CURVE",
"132 158 OFFCURVE",
"130 161 OFFCURVE",
"128 163 CURVE",
"126 164 OFFCURVE",
"125 165 OFFCURVE",
"126 166 CURVE",
"99 166 OFFCURVE",
"72 147 OFFCURVE",
"72 104 CURVE SMOOTH",
"72 29 OFFCURVE",
"137 -8 OFFCURVE",
"235 -8 CURVE SMOOTH",
"333 -8 OFFCURVE",
"410 43 OFFCURVE",
"410 149 CURVE SMOOTH",
"410 255 OFFCURVE",
"340 306 OFFCURVE",
"252 306 CURVE SMOOTH",
"237 306 OFFCURVE",
"221 304 OFFCURVE",
"204 301 CURVE",
"232 377 LINE",
"245 377 LINE",
"365 370 LINE"
);
}
);
width = 430;
}
);
note = five;
unicode = 0035;
},
{
glyphname = six;
lastChange = "2016-07-15 07:31:59 +0000";
layers = (
{
layerId = "90775AEC-CE2A-409D-8CDA-B893D340B5FD";
paths = (
{
closed = 1;
nodes = (
"177 72 OFFCURVE",
"146 116 OFFCURVE",
"146 155 CURVE SMOOTH",
"146 208 OFFCURVE",
"174 235 OFFCURVE",
"231 235 CURVE SMOOTH",
"268 235 OFFCURVE",
"294 195 OFFCURVE",
"294 151 CURVE SMOOTH",
"294 107 OFFCURVE",
"270 72 OFFCURVE",
"229 72 CURVE SMOOTH"
);
},
{
closed = 1;
nodes = (
"388 251 OFFCURVE",
"316 320 OFFCURVE",
"244 320 CURVE SMOOTH",
"208 320 OFFCURVE",
"180 307 OFFCURVE",
"159 282 CURVE",
"196 362 OFFCURVE",
"258 394 OFFCURVE",
"299 413 CURVE SMOOTH",
"319 422 OFFCURVE",
"330 428 OFFCURVE",
"333 429 CURVE",
"351 436 OFFCURVE",
"360 451 OFFCURVE",
"360 473 CURVE SMOOTH",
"360 494 OFFCURVE",
"347 505 OFFCURVE",
"321 505 CURVE SMOOTH",
"312 505 OFFCURVE",
"296 500 OFFCURVE",
"273 489 CURVE SMOOTH",
"228 467 OFFCURVE",
"175 432 OFFCURVE",
"128 381 CURVE SMOOTH",
"79 328 OFFCURVE",
"54 260 OFFCURVE",
"54 177 CURVE SMOOTH",
"54 65 OFFCURVE",
"103 2 OFFCURVE",
"201 -12 CURVE",
"213 -13 OFFCURVE",
"222 -14 OFFCURVE",
"227 -14 CURVE SMOOTH",
"323 -14 OFFCURVE",
"388 55 OFFCURVE",
"388 154 CURVE SMOOTH"
);
}
);
width = 387;
}
);
note = six;
unicode = 0036;
},
{
glyphname = seven;
lastChange = "2016-07-15 07:31:59 +0000";
layers = (
{
layerId = "90775AEC-CE2A-409D-8CDA-B893D340B5FD";
paths = (
{
closed = 1;
nodes = (
"141 462 LINE SMOOTH",
"128 462 OFFCURVE",
"117 438 OFFCURVE",
"117 414 CURVE SMOOTH",
"117 385 OFFCURVE",
"130 371 OFFCURVE",
"155 371 CURVE SMOOTH",
"160 371 OFFCURVE",
"173 373 OFFCURVE",
"194 377 CURVE SMOOTH",
"214 381 OFFCURVE",
"244 385 OFFCURVE",
"283 388 CURVE SMOOTH",
"331 391 LINE",
"267 294 OFFCURVE",
"207 179 OFFCURVE",
"152 46 CURVE",
"151 43 OFFCURVE",
"150 37 OFFCURVE",
"150 28 CURVE SMOOTH",
"150 10 OFFCURVE",
"176 -13 OFFCURVE",
"203 -13 CURVE SMOOTH",
"225 -13 OFFCURVE",
"240 -1 OFFCURVE",
"248 23 CURVE",
"275 116 OFFCURVE",
"330 229 OFFCURVE",
"413 362 CURVE",
"414 363 OFFCURVE",
"417 368 OFFCURVE",
"422 375 CURVE",
"438 395 OFFCURVE",
"446 413 OFFCURVE",
"446 429 CURVE SMOOTH",
"446 454 OFFCURVE",
"436 467 OFFCURVE",
"416 467 CURVE",
"362 462 LINE"
);
}
);
width = 417;
}
);
note = seven;
unicode = 0037;
},
{
glyphname = eight;
lastChange = "2016-07-15 07:31:59 +0000";
layers = (
{
layerId = "90775AEC-CE2A-409D-8CDA-B893D340B5FD";
paths = (
{
closed = 1;
nodes = (
"208 411 OFFCURVE",
"230 428 OFFCURVE",
"273 428 CURVE SMOOTH",
"286 428 OFFCURVE",
"310 413 OFFCURVE",
"310 386 CURVE SMOOTH",
"310 359 OFFCURVE",
"281 327 OFFCURVE",
"256 308 CURVE",
"243 321 LINE SMOOTH",
"220 344 OFFCURVE",
"208 363 OFFCURVE",
"208 377 CURVE SMOOTH"
);
},
{
closed = 1;
nodes = (
"189 65 OFFCURVE",
"174 87 OFFCURVE",
"174 110 CURVE SMOOTH",
"174 151 OFFCURVE",
"196 183 OFFCURVE",
"240 207 CURVE",
"257 188 OFFCURVE",
"282 147 OFFCURVE",
"282 122 CURVE SMOOTH",
"282 97 OFFCURVE",
"261 65 OFFCURVE",
"224 65 CURVE SMOOTH"
);
},
{
closed = 1;
nodes = (
"409 477 OFFCURVE",
"347 509 OFFCURVE",
"263 509 CURVE SMOOTH",
"178 509 OFFCURVE",
"115 451 OFFCURVE",
"115 367 CURVE SMOOTH",
"115 324 OFFCURVE",
"152 287 OFFCURVE",
"189 267 CURVE",
"120 229 OFFCURVE",
"86 174 OFFCURVE",
"86 102 CURVE SMOOTH",
"86 22 OFFCURVE",
"135 -18 OFFCURVE",
"232 -18 CURVE SMOOTH",
"324 -18 OFFCURVE",
"385 31 OFFCURVE",
"385 111 CURVE SMOOTH",
"385 163 OFFCURVE",
"357 209 OFFCURVE",
"302 248 CURVE",
"373 280 OFFCURVE",
"409 333 OFFCURVE",
"409 408 CURVE SMOOTH"
);
}
);
width = 417;
}
);
note = eight;
unicode = 0038;
},
{
glyphname = nine;
lastChange = "2016-07-15 07:31:59 +0000";
layers = (
{
layerId = "90775AEC-CE2A-409D-8CDA-B893D340B5FD";
paths = (
{
closed = 1;
nodes = (
"292 169 OFFCURVE",
"264 138 OFFCURVE",
"208 138 CURVE SMOOTH",
"197 138 LINE SMOOTH",
"158 139 OFFCURVE",
"133 178 OFFCURVE",
"133 227 CURVE SMOOTH",
"133 275 OFFCURVE",
"165 319 OFFCURVE",
"221 319 CURVE SMOOTH",
"228 319 OFFCURVE",
"234 319 OFFCURVE",
"238 318 CURVE",
"274 313 OFFCURVE",
"292 284 OFFCURVE",
"292 231 CURVE SMOOTH"
);
},
{
closed = 1;
nodes = (
"107 400 OFFCURVE",
"37 320 OFFCURVE",
"37 217 CURVE SMOOTH",
"37 113 OFFCURVE",
"108 63 OFFCURVE",
"185 63 CURVE SMOOTH",
"223 63 OFFCURVE",
"254 72 OFFCURVE",
"279 91 CURVE",
"265 64 OFFCURVE",
"247 40 OFFCURVE",
"226 20 CURVE",
"218 13 OFFCURVE",
"212 7 OFFCURVE",
"207 3 CURVE",
"202 -2 OFFCURVE",
"195 -7 OFFCURVE",
"185 -13 CURVE",
"175 -20 OFFCURVE",
"168 -24 OFFCURVE",
"164 -27 CURVE SMOOTH",
"160 -30 OFFCURVE",
"153 -34 OFFCURVE",
"142 -39 CURVE",
"120 -51 OFFCURVE",
"123 -49 OFFCURVE",
"99 -60 CURVE SMOOTH",
"86 -66 OFFCURVE",
"79 -69 OFFCURVE",
"78 -70 CURVE",
"55 -79 OFFCURVE",
"44 -92 OFFCURVE",
"44 -109 CURVE SMOOTH",
"44 -129 OFFCURVE",
"66 -145 OFFCURVE",
"88 -145 CURVE SMOOTH",
"99 -145 OFFCURVE",
"110 -143 OFFCURVE",
"121 -139 CURVE",
"300 -66 OFFCURVE",
"389 53 OFFCURVE",
"389 217 CURVE SMOOTH",
"389 326 OFFCURVE",
"340 386 OFFCURVE",
"242 398 CURVE",
"229 399 OFFCURVE",
"219 400 OFFCURVE",
"212 400 CURVE SMOOTH"
);
}
);
width = 417;
}
);
note = nine;
unicode = 0039;
},
{
glyphname = fraction;
lastChange = "2016-07-15 07:31:59 +0000";
layers = (
{
layerId = "90775AEC-CE2A-409D-8CDA-B893D340B5FD";
paths = (
{
closed = 1;
nodes = (
"351 580 OFFCURVE",
"352 586 OFFCURVE",
"352 595 CURVE SMOOTH",
"352 611 OFFCURVE",
"333 631 OFFCURVE",
"312 631 CURVE SMOOTH",
"295 631 OFFCURVE",
"283 621 OFFCURVE",
"274 601 CURVE SMOOTH",
"18 15 LINE",
"15 10 OFFCURVE",
"14 2 OFFCURVE",
"14 -7 CURVE SMOOTH",
"14 -26 OFFCURVE",
"39 -49 OFFCURVE",
"66 -49 CURVE SMOOTH",
"79 -49 OFFCURVE",
"88 -42 OFFCURVE",
"93 -29 CURVE SMOOTH",
"349 575 LINE SMOOTH"
);
}
);
width = 265;
}
);
note = fraction;
unicode = 2044;
},
{
glyphname = onehalf;
lastChange = "2016-07-15 07:31:59 +0000";
layers = (
{
layerId = "90775AEC-CE2A-409D-8CDA-B893D340B5FD";
paths = (
{
closed = 1;
nodes = (
"136 224 OFFCURVE",
"136 222 OFFCURVE",
"136 222 CURVE",
"136 201 OFFCURVE",
"157 190 OFFCURVE",
"183 190 CURVE SMOOTH",
"209 190 OFFCURVE",
"232 201 OFFCURVE",
"235 217 CURVE SMOOTH",
"246 268 OFFCURVE",
"275 413 OFFCURVE",
"322 653 CURVE",
"323 662 OFFCURVE",
"324 669 OFFCURVE",
"324 672 CURVE SMOOTH",
"324 689 OFFCURVE",
"319 697 OFFCURVE",
"308 697 CURVE SMOOTH",
"303 697 LINE",
"188 674 OFFCURVE",
"130 663 OFFCURVE",
"129 662 CURVE",
"118 658 OFFCURVE",
"113 643 OFFCURVE",
"113 617 CURVE SMOOTH",
"113 590 OFFCURVE",
"119 577 OFFCURVE",
"130 577 CURVE SMOOTH",
"141 577 OFFCURVE",
"171 585 OFFCURVE",
"218 602 CURVE",
"193 495 OFFCURVE",
"166 371 OFFCURVE",
"137 228 CURVE"
);
},
{
closed = 1;
nodes = (
"663 582 OFFCURVE",
"664 589 OFFCURVE",
"664 596 CURVE SMOOTH",
"664 611 OFFCURVE",
"644 631 OFFCURVE",
"623 631 CURVE SMOOTH",
"606 631 OFFCURVE",
"594 621 OFFCURVE",
"585 601 CURVE SMOOTH",
"331 15 LINE",
"328 10 OFFCURVE",
"327 2 OFFCURVE",
"327 -7 CURVE SMOOTH",
"327 -27 OFFCURVE",
"352 -49 OFFCURVE",
"378 -49 CURVE SMOOTH",
"391 -49 OFFCURVE",
"400 -42 OFFCURVE",
"406 -29 CURVE SMOOTH",
"660 575 LINE SMOOTH"
);
},
{
closed = 1;
nodes = (
"720 78 OFFCURVE",
"711 84 OFFCURVE",
"711 96 CURVE SMOOTH",
"711 105 OFFCURVE",
"717 110 OFFCURVE",
"730 110 CURVE SMOOTH",
"739 110 LINE SMOOTH",
"765 110 OFFCURVE",
"782 107 OFFCURVE",
"791 102 CURVE",
"770 86 OFFCURVE",
"752 78 OFFCURVE",
"737 78 CURVE SMOOTH"
);
},
{
closed = 1;
nodes = (
"747 392 OFFCURVE",
"791 425 OFFCURVE",
"828 425 CURVE SMOOTH",
"879 425 OFFCURVE",
"905 384 OFFCURVE",
"905 302 CURVE SMOOTH",
"905 263 OFFCURVE",
"893 225 OFFCURVE",
"870 188 CURVE",
"862 174 OFFCURVE",
"852 162 OFFCURVE",
"841 151 CURVE",
"808 174 OFFCURVE",
"774 186 OFFCURVE",
"741 186 CURVE SMOOTH",
"674 186 OFFCURVE",
"644 154 OFFCURVE",
"644 99 CURVE SMOOTH",
"644 43 OFFCURVE",
"691 2 OFFCURVE",
"755 2 CURVE SMOOTH",
"786 2 OFFCURVE",
"818 15 OFFCURVE",
"849 42 CURVE",
"883 14 OFFCURVE",
"913 0 OFFCURVE",
"938 0 CURVE SMOOTH",
"989 0 OFFCURVE",
"1008 40 OFFCURVE",
"1008 81 CURVE SMOOTH",
"1008 102 OFFCURVE",
"1001 112 OFFCURVE",
"988 112 CURVE SMOOTH",
"984 112 OFFCURVE",
"979 109 OFFCURVE",
"974 104 CURVE",
"969 98 OFFCURVE",
"963 95 OFFCURVE",
"957 95 CURVE SMOOTH",
"946 95 LINE SMOOTH",
"929 95 OFFCURVE",
"915 97 OFFCURVE",
"906 102 CURVE",
"964 165 OFFCURVE",
"995 230 OFFCURVE",
"1000 297 CURVE",
"1000 304 LINE SMOOTH",
"1000 453 OFFCURVE",
"919 501 OFFCURVE",
"824 501 CURVE SMOOTH",
"728 501 OFFCURVE",
"657 443 OFFCURVE",
"657 339 CURVE SMOOTH",
"657 284 OFFCURVE",
"674 259 OFFCURVE",
"727 259 CURVE SMOOTH",
"747 259 OFFCURVE",
"757 268 OFFCURVE",
"757 287 CURVE SMOOTH",
"757 299 OFFCURVE",
"755 313 OFFCURVE",
"752 329 CURVE SMOOTH",
"749 344 OFFCURVE",
"747 353 OFFCURVE",
"747 355 CURVE SMOOTH"
);
}
);
width = 1017;
}
);
note = onehalf;
unicode = 00BD;
},
{
glyphname = onequarter;
lastChange = "2016-07-15 07:31:59 +0000";
layers = (
{
layerId = "90775AEC-CE2A-409D-8CDA-B893D340B5FD";
paths = (
{
closed = 1;
nodes = (
"136 224 OFFCURVE",
"136 222 OFFCURVE",
"136 222 CURVE",
"136 201 OFFCURVE",
"157 190 OFFCURVE",
"183 190 CURVE SMOOTH",
"209 190 OFFCURVE",
"232 201 OFFCURVE",
"235 217 CURVE SMOOTH",
"246 268 OFFCURVE",
"275 413 OFFCURVE",
"322 653 CURVE",
"323 662 OFFCURVE",
"324 669 OFFCURVE",
"324 672 CURVE SMOOTH",
"324 689 OFFCURVE",
"319 697 OFFCURVE",
"308 697 CURVE SMOOTH",
"303 697 LINE",
"188 674 OFFCURVE",
"130 663 OFFCURVE",
"129 662 CURVE",
"118 658 OFFCURVE",
"113 643 OFFCURVE",
"113 617 CURVE SMOOTH",
"113 590 OFFCURVE",
"119 577 OFFCURVE",
"130 577 CURVE SMOOTH",
"141 577 OFFCURVE",
"171 585 OFFCURVE",
"218 602 CURVE",
"193 495 OFFCURVE",
"166 371 OFFCURVE",
"137 228 CURVE"
);
},
{
closed = 1;
nodes = (
"696 611 OFFCURVE",
"678 631 OFFCURVE",
"651 631 CURVE SMOOTH",
"638 631 OFFCURVE",
"626 621 OFFCURVE",
"617 601 CURVE SMOOTH",
"362 15 LINE",
"359 10 OFFCURVE",
"358 2 OFFCURVE",
"358 -7 CURVE SMOOTH",
"358 -26 OFFCURVE",
"384 -49 OFFCURVE",
"409 -49 CURVE SMOOTH",
"422 -49 OFFCURVE",
"431 -42 OFFCURVE",
"437 -29 CURVE SMOOTH",
"693 575 LINE SMOOTH",
"695 580 OFFCURVE",
"696 585 OFFCURVE",
"696 590 CURVE SMOOTH"
);
},
{
closed = 1;
nodes = (
"968 309 OFFCURVE",
"956 316 OFFCURVE",
"931 316 CURVE SMOOTH",
"882 316 OFFCURVE",
"881 277 OFFCURVE",
"870 241 CURVE SMOOTH",
"858 204 OFFCURVE",
"847 164 OFFCURVE",
"842 141 CURVE",
"837 144 OFFCURVE",
"827 145 OFFCURVE",
"810 145 CURVE",
"766 143 LINE",
"827 339 OFFCURVE",
"858 441 OFFCURVE",
"858 450 CURVE SMOOTH",
"858 466 OFFCURVE",
"838 478 OFFCURVE",
"814 478 CURVE SMOOTH",
"791 478 OFFCURVE",
"777 470 OFFCURVE",
"772 455 CURVE SMOOTH",
"736 352 OFFCURVE",
"701 245 OFFCURVE",
"666 132 CURVE",
"663 120 OFFCURVE",
"661 108 OFFCURVE",
"661 97 CURVE SMOOTH",
"661 74 OFFCURVE",
"673 62 OFFCURVE",
"696 61 CURVE SMOOTH",
"765 60 OFFCURVE",
"807 60 OFFCURVE",
"822 60 CURVE",
"816 30 LINE",
"814 22 OFFCURVE",
"813 15 OFFCURVE",
"813 9 CURVE SMOOTH",
"813 -10 OFFCURVE",
"826 -20 OFFCURVE",
"851 -21 CURVE",
"882 -21 OFFCURVE",
"893 -15 OFFCURVE",
"905 32 CURVE",
"914 61 LINE",
"965 63 LINE SMOOTH",
"989 64 OFFCURVE",
"1005 87 OFFCURVE",
"1005 111 CURVE SMOOTH",
"1005 132 OFFCURVE",
"996 142 OFFCURVE",
"979 142 CURVE SMOOTH",
"978 142 LINE",
"956 143 OFFCURVE",
"940 143 OFFCURVE",
"930 143 CURVE",
"968 295 LINE"
);
}
);
width = 1017;
}
);
note = onequarter;
unicode = 00BC;
},
